<svg xmlns="http://www.w3.org/2000/svg" width="2000" height="1300" viewBox="0 0 2000 1300"><g transform="translate(-104 -1353.5)"><rect width="2000" height="1300" rx="80" transform="translate(104 1353.5)" fill="#fff"/><g transform="translate(184 1800.5)"><g transform="translate(-79 -1875)"><g transform="translate(82 1875)"><g transform="translate(125 109)"><g transform="translate(987)"><g transform="translate(87 5)"><path d="M10.244,1.794a3,3,0,0,1,5.56,2.25l-.066.163-9.99,22.74A3,3,0,0,1,.188,24.7l.066-.163Z" transform="translate(56.249 158.099)" fill="#fe7624"/><path d="M18.791.032a3,3,0,0,1,2.538,3.4l-15.36,106a3,3,0,1,1-5.938-.86l15.36-106A3,3,0,0,1,18.791.032Z" transform="translate(39.27 212.12)" fill="#fe7624"/><path d="M66.346.154a3,3,0,0,1,1.9,3.793L32.675,111.138l-5.727,17.405-1.022,3.149q-.217.671-.434,1.329l-.436,1.3q-.109.322-.219.64l-.439,1.26-.442,1.233q-.111.3-.222.606l-.446,1.192q-.112.295-.224.586l-.452,1.152q-.113.285-.227.566l-.458,1.113q-1.38,3.3-2.857,6.131l-.5.933c-3.845,7.056-8.328,11.909-14.2,14.924a3,3,0,1,1-2.74-5.338c6.086-3.124,10.616-9.179,14.691-18.824l.443-1.066.44-1.1q.109-.277.219-.558l.435-1.139.433-1.168q.216-.591.43-1.2l.429-1.227q.107-.31.214-.624l.426-1.271,2.881-8.829,7.779-23.564,32.1-96.7A3,3,0,0,1,66.346.154Z" transform="translate(50.369 228.569)" fill="#fe7624"/><path d="M101.813,176.951a2.994,2.994,0,0,1-.749-.1l-.173-.049-30.64-9.88a3,3,0,0,1-1.984-3.61l.049-.169,8.289-25.623-.825.089c-1.519.153-3.073.256-4.619.3L70,137.943l-.966.007A69.23,69.23,0,0,1,47.822,134.6a68.626,68.626,0,0,1-32.834-22.718A69.169,69.169,0,0,1,.343,75.832,68.464,68.464,0,0,1,3,48.911l.341-1.088A68.949,68.949,0,0,1,134.913,89.1l-.342,1.09-29.93,84.76A3,3,0,0,1,101.813,176.951ZM80.967,130.839a3,3,0,0,1,2.887,3.763l-.048.162L74.95,162.136l25,8.063L128.886,88.27a62.649,62.649,0,0,0,.757-36.1,63.162,63.162,0,0,0-18.47-29.928A62.467,62.467,0,0,0,90.229,9.717l-.969-.338-.988-.328a62.95,62.95,0,1,0-19.229,122.9h.014a61.54,61.54,0,0,0,11.34-1.057A3.093,3.093,0,0,1,80.967,130.839ZM68.991,99.86a30.891,30.891,0,0,1-8.534-1.206l-.306-.091-.178-.017a3.08,3.08,0,0,1-.355-.069l-.177-.051a30.948,30.948,0,0,1,9.056-60.4l.455,0,.485,0A30.951,30.951,0,0,1,98.719,77.453l-.14.482-.152.487A30.971,30.971,0,0,1,68.991,99.86Zm-.046-55.84A24.95,24.95,0,0,0,60.55,92.466l.14.049.1.01a3.127,3.127,0,0,1,.356.068l.176.051A24.927,24.927,0,0,0,92.578,77l.13-.391.134-.432A24.95,24.95,0,0,0,68.955,44.02Z" transform="translate(-2.172 -2.5)" fill="#fe7624"/><path d="M17.822,142.634a2.991,2.991,0,0,1-.494-.041l-.215-.044-.212-.059L2.08,137.708A3,3,0,0,1,.1,134.1l.049-.169L22.725,63.872l.031-.42A68.953,68.953,0,0,1,64.83,5.363l.722-.3.743-.3a68.95,68.95,0,0,1,91.048,84.606l-.24.761-.2.6a68.937,68.937,0,0,1-98.827,38.545l-.579-.324-.46-.264-38.2,13.762A2.984,2.984,0,0,1,17.822,142.634ZM91.473,6h0A62.952,62.952,0,0,0,28.684,64.658a2.916,2.916,0,0,1-.073.482l-.065.234L6.776,132.918l10.991,3.545,38.567-13.892a3,3,0,0,1,2.2.067l.187.087.182.1a62.934,62.934,0,0,0,92.11-33.4l.194-.575.187-.574A62.951,62.951,0,0,0,91.476,6Zm-.064,94a31.021,31.021,0,1,1,2.526-.1C93.1,99.966,92.248,100,91.409,100Zm.015-56a25,25,0,0,0-.011,50c.676,0,1.36-.028,2.035-.083A25,25,0,0,0,91.424,44Z" transform="translate(100.349 37.797)" fill="#fe7624"/><path d="M71.675.355a3,3,0,0,1,1.231,4.06L36.966,71.7,5.65,130.479a3,3,0,0,1-5.3-2.816L19.672,91.375,47.691,38.868,67.615,1.586A3,3,0,0,1,71.675.355Z" transform="translate(45.509 223.489)" fill="#fe7624"/><path d="M19.146,2.08a3,3,0,0,1,5.759,1.673l-.049.169-19,58.88A3,3,0,0,1,.1,61.129l.049-.169Z" transform="translate(32.349 210.869)" fill="#fe7624"/><path d="M18.432,1.669A3,3,0,0,1,22.082.159l.169.063,14.29,5.81a3,3,0,0,1-2.095,5.62l-.165-.062-12.042-4.9-.092.115c-3.391,4.143-10.255,9.321-17.434,12.7l-.459.214a3,3,0,1,1-2.507-5.451Q2.784,13.8,3.81,13.266l.816-.432.808-.446q.4-.226.8-.458l.789-.469.776-.478.383-.242.755-.489q.747-.492,1.46-.993l.7-.5C12.137,8,13.1,7.249,13.978,6.514l.568-.487q.277-.242.539-.479l.508-.47.242-.231.458-.453a12.625,12.625,0,0,0,2.056-2.563Z" transform="translate(84.719 167.589)" fill="#fe7624"/><path d="M2.739.012a3,3,0,0,1,3.25,2.727A11.3,11.3,0,0,0,28,5.209a11.12,11.12,0,0,0,.365-1.469l.06-.374a3,3,0,0,1,5.94.847,17.111,17.111,0,0,1-.654,2.834A17.3,17.3,0,0,1,.012,3.261,3,3,0,0,1,2.739.012Z" transform="translate(66.84 210.76)" fill="#fe7624"/></g><g transform="translate(189)"><path d="M6.575,0l.176.008,34.69,2.56A3,3,0,0,1,44.22,5.609l-.008.176-3.34,44.36a3,3,0,0,1-5.991-.274l.008-.176L38,8.33,9.3,6.211l-3.3,43.934a3,3,0,0,1-3.04,2.775l-.176-.008A3,3,0,0,1,0,49.871L.009,49.7l3.53-46.92A3,3,0,0,1,6.575,0Z" transform="translate(14.48 140.16)" fill="#fe7624"/><path d="M17.7.009A3,3,0,0,1,20.47,3.05l-.008.176L5.992,195.466A3,3,0,0,1,0,195.192l.008-.176L14.479,2.776A3,3,0,0,1,17.519,0Z" transform="translate(-2.14 215.729)" fill="#fe7624"/><path d="M17.575.009A3,3,0,0,1,20.35,3.05l-.008.176L5.992,194.076A3,3,0,0,1,0,193.8l.008-.176L14.359,2.776A3,3,0,0,1,17.4,0Z" transform="translate(32.12 216.579)" fill="#fe7624"/><path d="M0,157.533l41.35,3.11,8.86-117.71C52.8,8.443,47.02,1.223,31.79.073S11,11.323,8.4,45.823Z" transform="translate(16.18 0.847)" fill="#fe7624"/><path d="M3.049,0l.176.008,25.628,1.93c6.261.466,10.032,4.692,11.241,13.189l.1.739q.023.187.044.377l.078.77q.144,1.562.188,3.293l.016.877q0,.444,0,.9l-.01.92q0,.233-.01.468l-.029.952-.041.974q-.012.246-.025.5l-.06,1.006-.073,1.028-6.54,87a3,3,0,0,1-5.991-.274l.008-.176,6.576-87.482.063-.935.053-.907.043-.879.033-.852.023-.825q0-.2.008-.4l.008-.785,0-.759-.012-.734-.022-.708q-.007-.174-.014-.345l-.036-.671-.045-.646-.055-.622q-.015-.152-.031-.3l-.069-.586-.078-.562-.087-.539q-.023-.132-.047-.261l-.1-.505q-.105-.494-.229-.944l-.128-.439q-.033-.107-.067-.212l-.141-.407-.149-.386q-.115-.282-.24-.541l-.171-.336a5.179,5.179,0,0,0-4.271-2.969L2.775,5.992A3,3,0,0,1,3.049,0Z" transform="translate(42.72 25.899)" fill="#fe7624"/><circle cx="6.52" cy="6.52" r="6.52" transform="translate(66.94 134.05)" fill="#fe7624"/></g><g transform="translate(31 55)"><path d="M24.063.09a8.41,8.41,0,0,1,8.384,3.9L63.19,56.508a110.158,110.158,0,0,1,13.8,38.5l.146.949,6,40.71a3,3,0,0,1-5.905,1.048l-.031-.174-6-40.7A104.155,104.155,0,0,0,58.491,60.365l-.478-.822L27.393,7.227a2.419,2.419,0,0,0-4.426.513l-.046.175L8.851,66.844a104.359,104.359,0,0,0-1.859,38.578l.138.964,4.51,30.32a3,3,0,0,1-5.9,1.056l-.031-.174L1.2,107.268a110.36,110.36,0,0,1,1.6-40.861l.224-.956,14.063-58.9A8.42,8.42,0,0,1,24.063.09Z" transform="translate(-2.123 -2.028)" fill="#fe7624"/><path d="M2.559.033A3,3,0,0,1,5.937,2.386l.031.174L33.726,189.349a28.05,28.05,0,0,1,.314,4.815,3,3,0,0,1-6-.127,22.047,22.047,0,0,0-.161-3.164l-.087-.632L.033,3.441A3,3,0,0,1,2.559.033Z" transform="translate(79.31 160.73)" fill="#fe7624"/><path d="M2.559.033A3,3,0,0,1,5.937,2.386l.031.174,28.27,190.25a3,3,0,0,1-5.9,1.055l-.031-.174L.033,3.441A3,3,0,0,1,2.559.033Z" transform="translate(7.98 161.58)" fill="#fe7624"/><path d="M44.73,43.5,20.88,2.747a5.42,5.42,0,0,0-10,1.47L0,50C11.86,45.607,32.82,39.187,44.73,43.5Z" transform="translate(7 0.933)" fill="#fe7624"/><path d="M69.67,6.694Q68.965,3.5,68.07.364C58.07-.766,45.57.3,36.79,9.8,23.85,2.234,9.38,6.954,0,11.8c.07,2.22.21,4.45.41,6.67,8.18-4.68,22.46-10.48,34.19-3l5.83,39.27,6.19.8-6.09-40.95C48.24,5.614,60.52,5.3,69.67,6.694Z" transform="translate(0.97 80.306)" fill="#fe7624"/><path d="M6.07,0H0L28.14,189.32l6.08.14L6.07,0Z" transform="translate(45.66 165.37)" fill="#fe7624"/></g><g transform="translate(0 190)"><g transform="translate(10 28)"><path d="M90.119,1.137a3,3,0,0,1,4.815,3.575l-.113.152L5.351,117.744a3,3,0,0,1-4.815-3.575l.113-.152Z" transform="translate(48.06 44.87)" fill="#2e186a"/><path d="M79.545,1.142a3,3,0,0,1,4.823,3.564l-.113.153-78.9,99.98a3,3,0,0,1-4.823-3.564l.113-.153Z" transform="translate(61.36 89.2)" fill="#2e186a"/><path d="M49.978,1.126a3,3,0,0,1,4.8,3.6l-.114.152L5.342,66.5a3,3,0,0,1-4.8-3.6l.114-.152Z" transform="translate(97.88 127.2)" fill="#2e186a"/><path d="M14.664,1.143a3,3,0,0,1,4.824,3.562l-.113.153L5.356,22.638A3,3,0,0,1,.532,19.075l.113-.153Z" transform="translate(130.97 172)" fill="#2e186a"/><path d="M96.665,1.117a3,3,0,0,1,4.785,3.615l-.115.151-96,119.05A3,3,0,0,1,.55,120.318l.114-.151Z" transform="translate(37 4.63)" fill="#2e186a"/><path d="M1.085.691a3,3,0,0,1,4.1.251l.126.142L99.079,114.1a3,3,0,0,1-4.492,3.973l-.126-.142L.691,4.916A3,3,0,0,1,1.085.691Z" transform="translate(21.45 75.81)" fill="#2e186a"/><path d="M1,.762a3,3,0,0,1,4.105.1L5.238,1l28.07,31.43a3,3,0,0,1-4.344,4.134l-.131-.138L.762,5A3,3,0,0,1,1,.762Z" transform="translate(48.06 157.75)" fill="#2e186a"/><path d="M1.09.686a3,3,0,0,1,4.1.262l.125.143L41.224,44.6a3,3,0,0,1-4.5,3.962L36.6,48.42.686,4.91A3,3,0,0,1,1.09.686Z" transform="translate(100.27 -1.42)" fill="#2e186a"/><path d="M1.073.7a3,3,0,0,1,4.1.231l.126.142,71.24,85a3,3,0,0,1-4.472,4l-.126-.142L.7,4.927A3,3,0,0,1,1.073.7Z" transform="translate(67.85 -0.93)" fill="#2e186a"/><path d="M1.085.691a3,3,0,0,1,4.1.251l.126.142,112.92,136.1a3,3,0,0,1-4.492,3.973l-.126-.142L.691,4.916A3,3,0,0,1,1.085.691Z" transform="translate(32.44 -1.42)" fill="#2e186a"/><path d="M1.084.691a3,3,0,0,1,4.1.251l.126.142,147.07,177.25a3,3,0,0,1-4.492,3.974l-.126-.142L.691,4.916A3,3,0,0,1,1.084.691Z" transform="translate(-2.29 -0.93)" fill="#2e186a"/><path d="M26.145,1.142a3,3,0,0,1,4.823,3.564l-.113.153-25.5,32.32A3,3,0,0,1,.532,33.615l.113-.153Z" transform="translate(8.4 -1.01)" fill="#2e186a"/><path d="M50.245,1.142a3,3,0,0,1,4.823,3.564l-.113.153-49.6,62.86A3,3,0,0,1,.532,64.154L.645,64Z" transform="translate(16.51 -2.26)" fill="#2e186a"/><path d="M75.112,1.133a3,3,0,0,1,4.81,3.582l-.113.152L5.348,98.527a3,3,0,0,1-4.81-3.582l.113-.152Z" transform="translate(26.79 -1.42)" fill="#2e186a"/><g transform="translate(140)"><path d="M1.113.668a3,3,0,0,1,4.1.3l.124.144,132.96,164.3a3,3,0,0,1-4.54,3.918l-.124-.144L.668,4.887A3,3,0,0,1,1.113.668Z" transform="translate(-2.35 26.34)" fill="#2e186a"/><path d="M1.113.668a3,3,0,0,1,4.1.3l.124.144,91.41,112.96a3,3,0,0,1-4.54,3.918l-.124-.144L.668,4.887A3,3,0,0,1,1.113.668Z" transform="translate(0.56 77.01)" fill="#2e186a"/><path d="M1.113.668a3,3,0,0,1,4.1.3l.124.144,52.03,64.3a3,3,0,0,1-4.54,3.918l-.124-.144L.668,4.887A3,3,0,0,1,1.113.668Z" transform="translate(2.5 125.48)" fill="#2e186a"/><path d="M1.113.668a3,3,0,0,1,4.1.3l.124.144,15.95,19.72a3,3,0,0,1-4.541,3.917l-.124-.144L.668,4.887A3,3,0,0,1,1.113.668Z" transform="translate(5.26 170.25)" fill="#2e186a"/><path d="M1.089.688a3,3,0,0,1,4.1.258l.125.142L144.9,169.929a3,3,0,0,1-4.5,3.966l-.125-.142L.688,4.912A3,3,0,0,1,1.089.688Z" transform="translate(11.76 -1.42)" fill="#2e186a"/><path d="M139.484,1.106a3,3,0,0,1,4.768,3.637l-.115.151L5.327,175.384a3,3,0,0,1-4.768-3.637l.115-.151Z" transform="translate(32.67 18.34)" fill="#2e186a"/><path d="M93.4,1.113a3,3,0,0,1,4.779,3.623l-.115.151-92.73,114.6a3,3,0,0,1-4.779-3.623l.115-.151Z" transform="translate(71.12 74.83)" fill="#2e186a"/><path d="M48.118,1.113A3,3,0,0,1,52.9,4.736l-.115.151L5.332,63.517A3,3,0,0,1,.553,59.894l.115-.151Z" transform="translate(107.42 132.01)" fill="#2e186a"/><path d="M9.448,1.113a3,3,0,0,1,4.779,3.623l-.115.151-8.78,10.85A3,3,0,0,1,.553,12.114l.115-.151Z" transform="translate(140.9 179.79)" fill="#2e186a"/><path d="M56.6.958A3,3,0,0,1,61.123,4.9L61,5.042,5.2,65.112a3,3,0,0,1-4.521-3.94L.8,61.028Z" transform="translate(-1.67 -2.26)" fill="#2e186a"/><path d="M25.171.886a3,3,0,0,1,4.392,4.083l-.134.144-24.3,24.47A3,3,0,0,1,.737,25.5l.134-.144Z" transform="translate(-2.35 0.01)" fill="#2e186a"/><path d="M81.613,1.07a3,3,0,0,1,4.711,3.711l-.118.149L5.3,101.21A3,3,0,0,1,.586,97.5L.7,97.35Z" transform="translate(0.56 -2.26)" fill="#2e186a"/><path d="M109.771,1.109a3,3,0,0,1,4.773,3.631l-.115.151L5.329,139.241A3,3,0,0,1,.556,135.61l.115-.151Z" transform="translate(4.43 -1.42)" fill="#2e186a"/><path d="M151.242,1.047A3,3,0,0,1,155.917,4.8l-.119.148L5.278,180.523A3,3,0,0,1,.6,176.765l.119-.148Z" transform="translate(5.52 -1.01)" fill="#2e186a"/><path d="M1.113.668a3,3,0,0,1,4.1.3l.124.144,47.6,58.81a3,3,0,0,1-4.54,3.919l-.124-.144L.668,4.888A3,3,0,0,1,1.113.668Z" transform="translate(115.79 -2.16)" fill="#2e186a"/><path d="M1.113.668a3,3,0,0,1,4.1.3l.124.144L25.962,26.6a3,3,0,0,1-4.54,3.918l-.124-.144L.668,4.887A3,3,0,0,1,1.113.668Z" transform="translate(149.05 -1.01)" fill="#2e186a"/><path d="M1.113.668a3,3,0,0,1,4.1.3l.124.144,76.9,95.02a3,3,0,0,1-4.54,3.918l-.124-.144L.668,4.887A3,3,0,0,1,1.113.668Z" transform="translate(84.26 -2.16)" fill="#2e186a"/><path d="M1.113.668a3,3,0,0,1,4.1.3l.124.144,104.8,129.5a3,3,0,0,1-4.54,3.918l-.124-.144L.668,4.887A3,3,0,0,1,1.113.668Z" transform="translate(50.07 -0.72)" fill="#2e186a"/></g></g><path d="M25.967,2.6a3,3,0,0,1,5.965.627l-.019.175L5.973,195.552a3,3,0,0,1-5.965-.627l.019-.175Z" transform="translate(298.31 25.82)" fill="#2e186a"/><path d="M2.816.006A3,3,0,0,1,5.979,2.64l.016.176,11.64,189.06a3,3,0,0,1-5.973.544l-.016-.176L.006,3.184A3,3,0,0,1,2.816.006Z" transform="translate(144.71 26.99)" fill="#2e186a"/><path d="M346.35,0a17.37,17.37,0,0,1,.326,34.737l-.326,0h-200a3,3,0,0,1-.176-5.995l.176-.005h200A11.37,11.37,0,0,0,346.7,6.005L346.35,6H11.988A11.341,11.341,0,0,0,4.871,8.475a3,3,0,0,1-3.742-4.69A17.335,17.335,0,0,1,11.578,0L12,0Z" transform="translate(-2.11 -2.92)" fill="#2e186a"/><path d="M137.4,0a3,3,0,0,1,.176,5.995L137.4,6H3A3,3,0,0,1,2.824.005L3,0Z" transform="translate(6.86 25.82)" fill="#2e186a"/></g></g><g transform="translate(148 201)"><g transform="translate(29 26)"><path d="M11.844,0A3,3,0,0,1,14.8,3.044a136.61,136.61,0,0,1-9,46.808A3,3,0,1,1,.2,47.708,130.61,130.61,0,0,0,8.8,2.956,3,3,0,0,1,11.844,0Z" transform="translate(-2.801 -2.83)" fill="#2e186a"/><path d="M.05,2.456A3,3,0,0,1,3.371.023L3.545.05l85.44,15.77a3,3,0,0,1-.915,5.927l-.174-.027L2.456,5.951A3,3,0,0,1,.05,2.456Z" transform="translate(6.909 13.049)" fill="#2e186a"/><path d="M.05,2.456A3,3,0,0,1,3.371.023L3.545.05l95.17,17.57a3,3,0,0,1-.915,5.927l-.174-.027L2.456,5.951A3,3,0,0,1,.05,2.456Z" transform="translate(3.749 30.139)" fill="#2e186a"/><path d="M.05,2.456A3,3,0,0,1,3.371.023L3.545.05l90.88,16.77a3,3,0,0,1-.915,5.927l-.174-.027L2.456,5.951A3,3,0,0,1,.05,2.456Z" transform="translate(5.329 21.599)" fill="#2e186a"/></g><path d="M.232,11.906C1.693,3.964,9.642-1.152,17.986.223l.321.056L103.5,16a3,3,0,0,1-.915,5.927l-.174-.027L17.218,6.179C11.919,5.2,6.993,8.316,6.133,12.992c-.846,4.6,2.506,9.185,7.647,10.272l.277.055,97,17.91a3,3,0,0,1-.915,5.927l-.174-.027-97-17.91C4.511,27.658-1.248,19.951.232,11.906Z" transform="translate(10.488 -2.689)" fill="#2e186a"/><path d="M.232,11.916C1.693,3.972,9.643-1.152,17.985.223l.321.056,119.36,22a3,3,0,0,1-.913,5.928l-.174-.027-119.361-22C11.922,5.2,6.994,8.323,6.133,13c-.846,4.6,2.506,9.183,7.647,10.263l.277.054L145,47.489a3,3,0,0,1-.915,5.927l-.174-.027L12.972,29.22C4.514,27.671-1.248,19.963.232,11.916Z" transform="translate(-2.513 67.321)" fill="#2e186a"/></g><path d="M52.223.343a7.5,7.5,0,1,1,4.469,14.319c-12.987,4.053-24.987,9.557-32.931,16.222-9.667,8.111-11.528,16-4.387,26.364A7.5,7.5,0,0,1,7.021,65.756C-4.9,48.445-1.05,32.121,14.12,19.393,23.93,11.161,37.5,4.938,52.223.343Z" transform="translate(-6.768 385.708)" fill="#2e186a"/><g transform="translate(52 284)"><g transform="translate(71 73)"><path d="M.033,2.561A3,3,0,0,1,3.265.012L3.44.033,178.71,26a3,3,0,0,1-.7,5.956l-.175-.021L2.561,5.968A3,3,0,0,1,.033,2.561Z" transform="translate(12.14 14.32)" fill="#fe7624"/><path d="M.033,2.561A3,3,0,0,1,3.265.012L3.44.033,183.5,26.7a3,3,0,0,1-.7,5.956l-.175-.021L2.561,5.968A3,3,0,0,1,.033,2.561Z" transform="translate(3.84 -2.35)" fill="#fe7624"/><path d="M.033,2.561A3,3,0,0,1,3.265.012L3.44.033l180.97,26.81a3,3,0,0,1-.7,5.956l-.175-.021L2.561,5.968A3,3,0,0,1,.033,2.561Z" transform="translate(11.92 30.78)" fill="#fe7624"/><path d="M.033,2.561A3,3,0,0,1,3.265.012L3.44.033l193.91,28.73a3,3,0,0,1-.7,5.956l-.175-.021L2.561,5.968A3,3,0,0,1,.033,2.561Z" transform="translate(7.3 47.48)" fill="#fe7624"/><path d="M.033,2.561A3,3,0,0,1,3.265.012L3.44.033l138.9,20.59a3,3,0,0,1-.7,5.956l-.175-.021L2.561,5.968A3,3,0,0,1,.033,2.561Z" transform="translate(-2.83 60.52)" fill="#fe7624"/></g><path d="M.024,2.625A3,3,0,0,1,3.376.024C16.723,1.709,28.727,5.3,38.5,11.773,51.758,20.547,59.229,33.736,59.181,51.8c-.044,17.7-7.389,31.2-20.238,40.343C28.815,99.35,15.679,103.433,3.185,104.2a3,3,0,1,1-.37-5.989c11.442-.707,23.507-4.457,32.648-10.964C46.772,79.2,53.142,67.5,53.181,51.782c.043-15.988-6.375-27.318-17.99-35.007C26.318,10.9,15.138,7.556,2.625,5.977A3,3,0,0,1,.024,2.625Z" transform="translate(30 50)" fill="#fe7624"/><path d="M0,3A3,3,0,0,1,3.4.028l.173.029,217.86,42.58a3,3,0,0,1-.977,5.917l-.174-.029L6,6.644V118.992l133.961-1.3a3,3,0,0,1,3.022,2.795l.007.176a3,3,0,0,1-2.795,3.022l-.176.007-136.99,1.33A3,3,0,0,1,.005,122.2L0,122.021Z" transform="translate(29.96 36.449)" fill="#fe7624"/><path d="M7.545,4.876A21,21,0,0,1,24.332.266l.418.071,217.48,39.8a3,3,0,0,1-.906,5.929l-.174-.027L23.675,6.24A15,15,0,0,0,6.005,20.6L6,20.988v165.27a3,3,0,0,1-5.995.176L0,186.258V20.986A21,21,0,0,1,7.545,4.876Z" transform="translate(-2.64 -2.988)" fill="#fe7624"/></g></g><g transform="translate(131)"><path d="M1312.988,521.192H139.148a3.014,3.014,0,0,1-2.881-2.163L1.537,55.351A38.5,38.5,0,0,1,38.2,6.082L698.551,0h.229a25.49,25.49,0,0,1,24.25,17.614l138.672,427,496.669,3.893a3,3,0,0,1,2.975,2.917v.174l-.02.509-.032.631-.042.7-.052.762-.087,1.113c-.187,2.26-.451,4.625-.783,7.028a119.484,119.484,0,0,1-5.575,23.517c-4,11.269-9.424,19.978-16.119,25.886a37.259,37.259,0,0,1-11.574,7.014A39.923,39.923,0,0,1,1312.988,521.192ZM698.782,6h-.177L38.251,12.082A32.5,32.5,0,0,0,7.3,53.675L141.4,515.192H1312.988a33.643,33.643,0,0,0,11.91-2.076,31.783,31.783,0,0,0,9.88-6.023,43.232,43.232,0,0,0,7.96-9.663,70.523,70.523,0,0,0,6.15-13l.212-.591a113.452,113.452,0,0,0,5.285-22.332c.283-2.044.514-4.066.687-6.009l.086-1.026-495.664-3.884a2.984,2.984,0,0,1-2.768-1.9l-.062-.173L717.324,19.469A19.5,19.5,0,0,0,698.782,6Z" transform="translate(192.772 71.568)" fill="#2e186a"/><path d="M738.031,394.081h-.026l-616.454-1.25a13.141,13.141,0,0,1-12.545-9.386L.547,18.1A13.11,13.11,0,0,1,13.1,1.241L615.194,0l.312,0a13.127,13.127,0,0,1,12.211,8.959l122.76,367.851a13.12,13.12,0,0,1-12.446,17.269ZM615.281,6h-.063L13.1,7.241A7.108,7.108,0,0,0,6.3,16.387L114.756,381.733a7.139,7.139,0,0,0,6.812,5.1l616.45,1.25h.014a7.119,7.119,0,0,0,6.754-9.37L622.026,10.86A7.1,7.1,0,0,0,615.281,6Z" transform="translate(261.788 98.489)" fill="#fe7624"/><g transform="translate(397 147)"><path d="M23.72,63.3c-6.414,0-12.4-3.315-16.866-9.334A33.719,33.719,0,0,1,1.829,43.9a41.919,41.919,0,0,1,0-24.5A33.72,33.72,0,0,1,6.854,9.334C11.316,3.315,17.306,0,23.72,0s12.4,3.315,16.865,9.334A33.72,33.72,0,0,1,45.611,19.4a41.919,41.919,0,0,1,0,24.5,33.72,33.72,0,0,1-5.025,10.068C36.124,59.985,30.134,63.3,23.72,63.3Zm0-57.3a12.934,12.934,0,0,0-6.793,1.992,19.138,19.138,0,0,0-5.644,5.457A31.909,31.909,0,0,0,6,31.65a31.909,31.909,0,0,0,5.283,18.2,19.139,19.139,0,0,0,5.644,5.457,12.578,12.578,0,0,0,13.585,0,19.139,19.139,0,0,0,5.644-5.457,31.91,31.91,0,0,0,5.283-18.2,31.91,31.91,0,0,0-5.283-18.2,19.138,19.138,0,0,0-5.644-5.457A12.933,12.933,0,0,0,23.72,6Z" transform="matrix(0.648, -0.762, 0.762, 0.648, 74.384, 81.516)" fill="#fe7624"/><path d="M44.211,0c28.242,0,58.567,19.738,72.961,46.885a3,3,0,0,1-5.3,2.811C98.482,24.443,70.146,6,44.211,6,18.908,6,3.367,23.581,6.369,48.034a3,3,0,0,1-5.955.731C-3.028,20.736,15.3,0,44.211,0Z" transform="translate(78.899 109.15)" fill="#fe7624"/><path d="M23.72,63.3c-6.414,0-12.4-3.315-16.866-9.334A33.719,33.719,0,0,1,1.829,43.9a41.919,41.919,0,0,1,0-24.5A33.72,33.72,0,0,1,6.854,9.334C11.316,3.315,17.306,0,23.72,0s12.4,3.315,16.865,9.334A33.72,33.72,0,0,1,45.611,19.4a41.919,41.919,0,0,1,0,24.5,33.72,33.72,0,0,1-5.025,10.068C36.124,59.985,30.134,63.3,23.72,63.3Zm0-57.3a12.934,12.934,0,0,0-6.793,1.992,19.138,19.138,0,0,0-5.644,5.457A31.909,31.909,0,0,0,6,31.65a31.909,31.909,0,0,0,5.283,18.2,19.139,19.139,0,0,0,5.644,5.457,12.578,12.578,0,0,0,13.585,0,19.139,19.139,0,0,0,5.644-5.457,31.91,31.91,0,0,0,5.283-18.2,31.91,31.91,0,0,0-5.283-18.2,19.138,19.138,0,0,0-5.644-5.457A12.933,12.933,0,0,0,23.72,6Z" transform="matrix(0.648, -0.762, 0.762, 0.648, 288.489, 213.763)" fill="#fe7624"/><path d="M44.21,0c28.452,0,59.271,20.25,73.418,47.758a3,3,0,1,1-5.336,2.744C99.141,24.929,70.333,6,44.21,6,18.8,6,3.243,23.726,6.406,48.327a3,3,0,0,1-5.951.765C-3.169,20.906,15.176,0,44.21,0Z" transform="translate(293.01 241.41)" fill="#fe7624"/><path d="M23.72,63.3c-6.414,0-12.4-3.315-16.866-9.334A33.719,33.719,0,0,1,1.829,43.9a41.919,41.919,0,0,1,0-24.5A33.72,33.72,0,0,1,6.854,9.334C11.316,3.315,17.306,0,23.72,0s12.4,3.315,16.865,9.334A33.72,33.72,0,0,1,45.611,19.4a41.919,41.919,0,0,1,0,24.5,33.72,33.72,0,0,1-5.025,10.068C36.124,59.985,30.134,63.3,23.72,63.3Zm0-57.3a12.934,12.934,0,0,0-6.793,1.992,19.138,19.138,0,0,0-5.644,5.457A31.909,31.909,0,0,0,6,31.65a31.909,31.909,0,0,0,5.283,18.2,19.139,19.139,0,0,0,5.644,5.457,12.578,12.578,0,0,0,13.585,0,19.139,19.139,0,0,0,5.644-5.457,31.91,31.91,0,0,0,5.283-18.2,31.91,31.91,0,0,0-5.283-18.2,19.138,19.138,0,0,0-5.644-5.457A12.933,12.933,0,0,0,23.72,6Z" transform="matrix(0.648, -0.762, 0.762, 0.648, 258.064, 54.137)" fill="#fe7624"/><path d="M44.213,0c28.692,0,59.52,20.371,73.6,48.113a3,3,0,1,1-5.351,2.715C99.372,25.036,70.564,6,44.213,6,18.682,6,3.115,23.858,6.446,48.6A3,3,0,0,1,.5,49.4C-3.315,21.064,15.046,0,44.213,0Z" transform="translate(262.577 81.81)" fill="#fe7624"/><path d="M120.5,0a3,3,0,0,1,.176,5.995L120.5,6H7.132l35.1,107.86H189.071l-31.6-97.141A3,3,0,0,1,159.228,13l.166-.059a3,3,0,0,1,3.722,1.759l.059.166,32.88,101.07a3,3,0,0,1-2.675,3.923l-.178.005H40.052a3,3,0,0,1-2.79-1.9l-.062-.174L.149,3.928A3,3,0,0,1,2.824.005L3,0Z" transform="translate(21.778 42.29)" fill="#fe7624"/><path d="M156.162,0a3,3,0,0,1,2.79,1.9l.062.174,10.49,32.25a3,3,0,0,1-5.646,2.022l-.059-.166L153.983,6H7.132l35.1,107.85H189.08L170.579,57a3,3,0,0,1,1.758-3.722l.166-.059a3,3,0,0,1,3.722,1.758l.059.166,19.78,60.78a3,3,0,0,1-2.674,3.923l-.178.005H40.052a3,3,0,0,1-2.79-1.9l-.062-.174L.149,3.928A3,3,0,0,1,2.824.005L3,0Z" transform="translate(205.448 14.92)" fill="#fe7624"/><path d="M156.162,0a3,3,0,0,1,2.79,1.9l.062.174,37.05,113.86a3,3,0,0,1-2.674,3.923l-.178.005H40.052a3,3,0,0,1-2.79-1.9l-.062-.174-3.8-11.68a3,3,0,0,1,5.646-2.022l.059.166,3.125,9.608H189.081L153.983,6H7.133L31.585,81.121a3,3,0,0,1-1.758,3.722l-.166.059a3,3,0,0,1-3.722-1.758l-.059-.166L.15,3.929A3,3,0,0,1,2.824.005L3,0Z" transform="translate(235.878 174.55)" fill="#fe7624"/><path d="M61.452,26.26H9.592a2.994,2.994,0,0,1-2.853-2.072L.149,3.928A3,3,0,0,1,3,0h51.86a2.993,2.993,0,0,1,2.853,2.072l6.59,20.26a3,3,0,0,1-2.853,3.929ZM7.133,6,11.77,20.259H57.321L52.683,6Z" transform="translate(136.508 33.78)" fill="#fe7624"/><path d="M61.452,26.25H9.592a2.993,2.993,0,0,1-2.853-2.072L.149,3.929A3,3,0,0,1,3,0h51.86a2.993,2.993,0,0,1,2.853,2.072l6.59,20.25a3,3,0,0,1-2.853,3.929ZM7.133,6,11.77,20.25H57.321L52.683,6Z" transform="translate(340.118 47.74)" fill="#fe7624"/><path d="M61.462,26.26H9.592a2.994,2.994,0,0,1-2.853-2.072L.149,3.928A3,3,0,0,1,3,0h51.86a2.993,2.993,0,0,1,2.852,2.071l6.6,20.26a3,3,0,0,1-2.853,3.929ZM7.133,6,11.77,20.26H57.329L52.684,6Z" transform="translate(220.988 254.54)" fill="#fe7624"/><path d="M2.073.148A3,3,0,0,1,5.794,1.906l.059.166L42.9,115.933a3,3,0,0,1-5.646,2.023l-.059-.166L.148,3.929A3,3,0,0,1,2.073.148Z" transform="translate(-2.121 42.289)" fill="#fe7624"/><path d="M2.073.148A3,3,0,0,1,5.794,1.907l.059.166L12.309,21.93h94.662a3,3,0,0,1,2.995,2.824l.005.176a3,3,0,0,1-2.824,2.995l-.176.005H10.131a3,3,0,0,1-2.791-1.9l-.062-.174L.148,3.928A3,3,0,0,1,2.073.148Z" transform="translate(224.319 134.219)" fill="#fe7624"/><path d="M24.88,0a3,3,0,0,1,2.79,1.9l.062.174L46.323,59.2a3,3,0,0,1-5.646,2.023l-.059-.166L22.7,6H3A3,3,0,0,1,.005,3.176L0,3A3,3,0,0,1,2.824.005L3,0Z" transform="translate(196.3 174.34)" fill="#fe7624"/><path d="M4.8.6,4.688.513,4.59.432,4.326.193A.381.381,0,0,0,4.1.12L3.791.093l.433.03,1.057.05,1.7.056L10,.3l3.568.063,6.619.087L30.1.542,45.462.633,60.571.686,78.979.713l13.561,0,17.07-.036L124.927.6,135.939.519l7.214-.082,5.291-.086,2.767-.063L153.136.23l1.224-.051.726-.042.248-.018L155.391.1a3,3,0,0,1,3.559,1.8l.06.166.054.621.023.331a2.016,2.016,0,0,1-.274,1.367l-.132.212-.256.384-.321.3-.148.132-.116.094c-.035.027-.068.05-.1.071l-.1.06-.194.1a3.145,3.145,0,0,1-.731.25,5.649,5.649,0,0,1-.648.1l-.509.044-.651.04-.98.045-1.488.052-1.825.049-4.788.093-6.629.088-6.635.063-13.095.084-15.017.055-14.125.023-18.349,0L58.322,6.68,40.371,6.608l-16.26-.115L14.955,6.4l-5.3-.08L7.648,6.277,6.441,6.238,5.408,6.194l-.877-.05L3.8,6.088l-.611-.064-.313-.042L2.6,5.937l-.244-.048-.215-.052-.248-.074-.056-.02-.2-.083L1.5,5.593l-.16-.1-.146-.1A3,3,0,0,1,4.655.5Z" transform="translate(200 -1.901)" fill="#fe7624"/></g><g transform="translate(0 80)"><g transform="translate(226)"><path d="M12.92.016A3,3,0,0,1,13.7,5.962l-.206.028-.112.024-.173.047-.229.072-.28.1a7.672,7.672,0,0,0-2.518,1.613,13.243,13.243,0,0,0-3.617,6.93l-.12.568q-.114.576-.2,1.188l-.082.621a34.866,34.866,0,0,0-.176,5.629l.041.788.055.808q.016.2.033.411l.077.837q.042.423.092.856l.107.876.122.9.138.916q.036.231.075.465l.161.946q.042.239.087.481l.185.977.2,1,.218,1.018.234,1.039q.061.262.123.527l.259,1.07.276,1.091q.071.275.144.553l.3,1.123q.078.283.157.57L9.4,41.18l2.41,8.295,8.042,27.957,16.36,57.121L86.209,309.542,143.23,509.388a3,3,0,0,1-5.717,1.814L49.367,202.386,23.36,111.442,10.88,67.915,6.326,52.1l-2.51-8.645q-.183-.623-.356-1.237L3.121,41q-.082-.3-.162-.6l-.311-1.189-.293-1.17q-.142-.58-.275-1.151l-.258-1.133q-.311-1.4-.568-2.75l-.2-1.068-.18-1.049q-.128-.78-.237-1.54l-.137-1Q.374,27.35.279,26.392l-.087-.949-.071-.932A45.017,45.017,0,0,1,.168,17.3l.08-.766c.671-5.8,2.688-10.1,5.822-13.058A13.644,13.644,0,0,1,10.561.629,9.6,9.6,0,0,1,12.92.016Z" transform="translate(-2.925 -2.45)" fill="#2e186a"/><path d="M705.69,0a3,3,0,0,1,.176,5.995L705.69,6H3A3,3,0,0,1,2.824.005L3,0Z" transform="translate(114.85 432.92)" fill="#2e186a"/><path d="M530.75,0a3,3,0,0,1,.176,5.995L530.75,6H3A3,3,0,0,1,2.824.005L3,0Z" transform="translate(788.4 463.79)" fill="#2e186a"/><path d="M48.487,0a3,3,0,0,1,2.871,3.124l-.048.9-.074,1.144-.1,1.3c-.207,2.619-.5,5.533-.908,8.67a165.127,165.127,0,0,1-5.456,26.348c-3.491,11.594-8.154,21.183-14.224,28.1C23.112,78.06,13.8,82.193,2.7,81.064A3,3,0,0,1,3.3,75.1c16.941,1.722,28.549-11.5,35.726-35.337a159.277,159.277,0,0,0,5.25-25.383c.351-2.732.619-5.288.815-7.612l.1-1.2L45.3,4.011l.052-.9.012-.242A3,3,0,0,1,48.31,0Z" transform="translate(746.84 432.92)" fill="#2e186a"/></g><g transform="translate(453 451)"><path d="M55.69,44.46H15a15,15,0,0,1-15-15V15A15,15,0,0,1,15,0H55.69a15,15,0,0,1,15,15V29.46a15,15,0,0,1-15,15ZM6,14.59V29.46a9.01,9.01,0,0,0,9,9H55.69a9.01,9.01,0,0,0,9-9L64.65,15v-.41Z" transform="translate(0.78 0.81)" fill="#fe7624"/><path d="M55.7,44.46H15a15,15,0,0,1-15-15V15A15,15,0,0,1,15,0H55.7a15,15,0,0,1,15,15V29.46a15,15,0,0,1-15,15ZM6,14.59V29.46a9.01,9.01,0,0,0,9,9H55.7a9.01,9.01,0,0,0,9-9V14.59Z" transform="translate(91.3 0.81)" fill="#fe7624"/></g><g transform="translate(0 455)"><rect width="44.66" height="36.04" rx="10.95" transform="translate(366.67 0.48)" fill="#fe7624"/><path d="M296.273.081a379.53,379.53,0,0,1,64.312,4.126q1.615.244,3.171.495l2.047.336,1,.169,1.964.342.961.172,1.881.346,1.824.348,1.766.35.861.175,1.7.355,1.549.335,1.331.3,1.11.259.686.167.505.128a7.5,7.5,0,0,1-3.508,14.582l-1.129-.275-1.2-.28-.856-.193-1.4-.3-1.008-.213-1.614-.331-1.671-.331-.857-.165-1.756-.329-1.812-.327-1.867-.324-.954-.161-1.948-.319q-1.481-.238-3.022-.471a364.637,364.637,0,0,0-61.76-3.961A315.3,315.3,0,0,0,214.5,27.208l-1.465.433q-2.977.888-5.954,1.744l-2.977.847q-11.163,3.145-22.268,5.81l-2.953.7C145.439,44.586,113.04,49.02,85.321,49.316c-41.377.442-70.975-8.146-84-27.082a7.5,7.5,0,0,1,12.206-8.715l.153.214c19.058,27.707,101.046,27.111,192.3.352l2.768-.819C236.963,4.846,266.405.7,296.273.081Z" transform="translate(-7.071 3.256)" fill="#2e186a"/></g></g><g transform="translate(504)"><path d="M125.96,0H19.34a20.23,20.23,0,0,0-13,4.7L0,9.98l28.21-.26a21.82,21.82,0,0,0-.21,3v6.13a7.2,7.2,0,0,0,7.2,7.2h90.73c4,0,7.25-5.68,7.25-12.68V12.7C133.21,5.67,129.97,0,125.96,0Z" transform="translate(0.52 68.15)" fill="#2e186a"/><rect width="45.45" height="11.84" transform="translate(49.56 58.49)" fill="#2e186a"/><g transform="translate(4)"><path d="M124.47,58.49H12a12,12,0,0,1-12-12V12A12,12,0,0,1,12,0H124.47a12,12,0,0,1,12,12V46.49a12,12,0,0,1-12,12ZM33.46.34A10.43,10.43,0,0,0,23.05,10.77V47.72A10.43,10.43,0,0,0,33.47,58.15a3,3,0,0,0,0-6h-.01a4.429,4.429,0,0,1-4.42-4.379v-37A4.438,4.438,0,0,1,33.46,6.34a3,3,0,1,0,0-6ZM90.3,10C80.788,10,73.05,19.107,73.05,30.3S80.788,50.59,90.3,50.59s17.25-9.111,17.25-20.31C107.55,19.1,99.812,10,90.3,10Z" transform="translate(0.7)" fill="#2e186a"/><path d="M11.25,0C5.05,0,0,6.41,0,14.28S5,28.57,11.25,28.57,22.5,22.16,22.5,14.28,17.47,0,11.25,0Z" transform="translate(79.75 16)" fill="#2e186a"/></g><ellipse cx="6.04" cy="7.33" rx="6.04" ry="7.33" transform="translate(56.75 22.97)" fill="#fe7624"/></g></g><path d="M1837.7,0a3,3,0,0,1,.176,5.995L1837.7,6H3A3,3,0,0,1,2.824.005L3,0Z" transform="translate(-3 588.01)" fill="#2e186a"/></g></g></g></g></svg>