<?xml version="1.0" encoding="utf-8"?>
<!-- Generator: Adobe Illustrator 13.0.0, SVG Export Plug-In . SVG Version: 6.00 Build 14948)  -->
<!DOCTYPE svg PUBLIC "-//W3C//DTD SVG 1.1//EN" "http://www.w3.org/Graphics/SVG/1.1/DTD/svg11.dtd">
<svg version="1.1" id="Layer_1" xmlns="http://www.w3.org/2000/svg" xmlns:xlink="http://www.w3.org/1999/xlink" x="0px" y="0px"
	 width="231.669px" height="63.909px" viewBox="223 61.517 231.669 63.909" enable-background="new 223 61.517 231.669 63.909"
	 xml:space="preserve">
<g>
	<path fill="#29ABE2" d="M239.304,122.969v-1.303c-0.839,0.569-1.759,1.004-2.762,1.303c-1.003,0.299-2.044,0.449-3.122,0.449
		c-2.875,0-5.331-1.011-7.366-3.032c-2.037-2.021-3.054-4.469-3.054-7.343c0-2.875,1.018-5.33,3.054-7.367
		c2.036-2.036,4.491-3.054,7.366-3.054c1.078,0,2.118,0.157,3.122,0.472c1.003,0.314,1.923,0.771,2.762,1.37v-7.231h-3.054v-4.537
		h10.645v4.537h-3.055v21.2h3.055v4.537L239.304,122.969L239.304,122.969z M237.575,108.888c-1.153-1.152-2.538-1.729-4.154-1.729
		s-3.002,0.577-4.155,1.729c-1.153,1.153-1.729,2.537-1.729,4.155c0,1.616,0.576,3.002,1.729,4.154
		c1.153,1.153,2.538,1.729,4.155,1.729c1.617,0,3.001-0.576,4.154-1.729c1.153-1.152,1.729-2.538,1.729-4.154
		C239.304,111.426,238.728,110.042,237.575,108.888z"/>
	<path fill="#29ABE2" d="M264.695,120.386c-2.052,2.021-4.514,3.032-7.389,3.032c-2.845,0-5.293-1.011-7.343-3.032
		c-2.052-2.021-3.077-4.469-3.077-7.343c0-2.875,1.025-5.33,3.077-7.367c2.05-2.036,4.498-3.054,7.343-3.054
		c2.875,0,5.337,1.019,7.389,3.054c2.05,2.037,3.076,4.492,3.076,7.367C267.771,115.918,266.745,118.366,264.695,120.386z
		 M261.483,108.888c-1.139-1.152-2.531-1.729-4.177-1.729c-1.617,0-2.995,0.577-4.132,1.729c-1.138,1.153-1.708,2.537-1.708,4.155
		c0,1.616,0.569,3.002,1.708,4.154c1.137,1.153,2.515,1.729,4.132,1.729c1.646,0,3.039-0.576,4.177-1.729
		c1.138-1.152,1.707-2.538,1.707-4.154C263.19,111.426,262.621,110.042,261.483,108.888z"/>
	<path fill="#29ABE2" d="M281.775,122.969v-0.674c-0.479,0.21-0.981,0.375-1.505,0.494c-0.525,0.12-1.071,0.18-1.639,0.18
		c-2.097,0-3.908-0.757-5.435-2.269c-1.527-1.512-2.291-3.331-2.291-5.457v-8.085h-3.054v-4.536h7.59v12.621
		c0,0.869,0.314,1.616,0.943,2.246c0.629,0.629,1.377,0.943,2.246,0.943c0.868,0,1.609-0.314,2.223-0.943
		c0.613-0.63,0.921-1.377,0.921-2.246v-8.085h-3.054v-4.536h7.635v15.811h3.054v4.536H281.775z"/>
	<path fill="#29ABE2" d="M306.126,122.969v-1.303c-0.839,0.569-1.76,1.004-2.763,1.303c-1.004,0.299-2.043,0.449-3.122,0.449
		c-2.875,0-5.33-1.011-7.366-3.032c-2.037-2.021-3.054-4.469-3.054-7.343c0-2.875,1.018-5.33,3.054-7.367
		c2.036-2.036,4.492-3.054,7.366-3.054c1.078,0,2.118,0.157,3.122,0.472c1.003,0.314,1.923,0.771,2.763,1.37v-7.231h-3.054v-4.537
		h10.645v4.537h-3.055v21.2h3.055v4.537L306.126,122.969L306.126,122.969z M304.396,108.888c-1.153-1.152-2.538-1.729-4.154-1.729
		c-1.617,0-3.003,0.577-4.155,1.729c-1.153,1.153-1.73,2.537-1.73,4.155c0,1.616,0.577,3.002,1.73,4.154
		c1.152,1.153,2.538,1.729,4.155,1.729c1.617,0,3.001-0.576,4.154-1.729c1.153-1.152,1.73-2.538,1.73-4.154
		C306.126,111.426,305.549,110.042,304.396,108.888z"/>
	<path fill="#29ABE2" d="M331.857,120.386c-2.052,2.021-4.514,3.032-7.388,3.032c-2.845,0-5.293-1.011-7.344-3.032
		c-2.051-2.021-3.076-4.469-3.076-7.343c0-2.875,1.025-5.33,3.076-7.367c2.051-2.036,4.499-3.054,7.344-3.054
		c2.875,0,5.336,1.019,7.388,3.054c2.051,2.037,3.077,4.492,3.077,7.367C334.934,115.918,333.908,118.366,331.857,120.386z
		 M328.646,108.888c-1.139-1.152-2.531-1.729-4.177-1.729c-1.617,0-2.995,0.577-4.132,1.729c-1.138,1.153-1.707,2.537-1.707,4.155
		c0,1.616,0.569,3.002,1.707,4.154c1.138,1.153,2.515,1.729,4.132,1.729c1.646,0,3.039-0.576,4.177-1.729
		c1.138-1.152,1.707-2.538,1.707-4.154C330.354,111.426,329.784,110.042,328.646,108.888z"/>
	<path fill="#29ABE2" d="M348.938,122.969v-0.674c-0.479,0.21-0.981,0.375-1.505,0.494c-0.524,0.12-1.071,0.18-1.64,0.18
		c-2.097,0-3.908-0.757-5.435-2.269c-1.527-1.512-2.291-3.331-2.291-5.457v-8.085h-3.054v-4.536h7.591v12.621
		c0,0.869,0.315,1.616,0.943,2.246c0.629,0.629,1.377,0.943,2.245,0.943c0.869,0,1.609-0.314,2.225-0.943
		c0.612-0.63,0.92-1.377,0.92-2.246v-8.085h-3.055v-4.536h7.637v15.811h3.054v4.536H348.938z"/>
	<path fill="#29ABE2" d="M377.975,122.969v-4.536h3.055v-11.274h-3.055v-4.536h7.592v15.811h3.054v4.536H377.975z M385.455,97.861
		c-0.584,0.6-1.296,0.898-2.134,0.898c-0.839,0-1.558-0.299-2.156-0.898c-0.599-0.599-0.898-1.317-0.898-2.155
		s0.3-1.557,0.898-2.156c0.599-0.599,1.317-0.898,2.156-0.898c0.838,0,1.55,0.299,2.134,0.898c0.583,0.6,0.875,1.318,0.875,2.156
		C386.33,96.545,386.038,97.263,385.455,97.861z"/>
	<path fill="#29ABE2" d="M404.43,122.969v-12.621c0-0.868-0.307-1.617-0.92-2.246c-0.615-0.628-1.355-0.943-2.224-0.943
		s-1.617,0.315-2.246,0.943c-0.628,0.629-0.942,1.378-0.942,2.246v8.085h3.054v4.536h-10.645v-4.536h3.055c0-0.958,0-1.902,0-2.83
		s0-1.871,0-2.829c0-0.929,0-1.864,0-2.808s0-1.879,0-2.808h-3.055v-4.536h7.591v0.674c0.509-0.209,1.025-0.374,1.549-0.494
		s1.07-0.18,1.64-0.18c2.126,0,3.944,0.756,5.457,2.268c1.512,1.513,2.27,3.332,2.27,5.457v8.085h3.054v4.537H404.43L404.43,122.969
		z"/>
	<path fill="#29ABE2" d="M423.814,122.969v-0.674c-0.48,0.21-0.981,0.375-1.505,0.494c-0.524,0.12-1.07,0.18-1.64,0.18
		c-2.096,0-3.908-0.757-5.435-2.269c-1.527-1.512-2.291-3.331-2.291-5.457v-8.085h-3.055v-4.536h7.592v12.621
		c0,0.869,0.314,1.616,0.943,2.246c0.629,0.629,1.377,0.943,2.245,0.943s1.609-0.314,2.224-0.943
		c0.613-0.63,0.921-1.377,0.921-2.246v-8.085h-3.055v-4.536h7.636v15.811h3.055v4.536H423.814z"/>
	<path fill="#29ABE2" d="M444.25,122.969v-4.536h0.943l-1.482-2.111l-1.437,2.111h0.942v4.536H432.75v-4.536h3.953l4.222-6.108
		l-3.593-5.166h-3.997v-4.536h9.881v4.536h-0.314l0.809,1.213l0.854-1.213h-0.314v-4.536h9.881v4.536h-3.997l-3.639,5.166
		l4.268,6.108h3.907v4.536H444.25z"/>
	<g>
		<g>
			<g>
				<g>
					<path fill="#FFFF00" d="M364.997,110.211c-0.389,0.224-0.536,0.509-0.445,0.857c0.087,0.316,0.334,0.595,0.744,0.832
						c0.404,0.235,0.879,0.378,1.426,0.429c0.607,0.058,1.103-0.026,1.49-0.25s0.53-0.509,0.429-0.857
						c-0.085-0.317-0.33-0.593-0.734-0.827c-0.409-0.238-0.887-0.383-1.435-0.434C365.875,109.903,365.383,109.987,364.997,110.211z
						"/>
				</g>
				<g>
					<path fill="#FFFFFF" d="M363.592,109.395c0.767-0.441,1.723-0.633,2.871-0.572c1.094,0.056,2.036,0.312,2.825,0.772
						c0.794,0.461,1.234,1.008,1.325,1.639c0.104,0.662-0.23,1.216-1,1.66c-0.769,0.443-1.728,0.636-2.877,0.577
						c-1.089-0.054-2.03-0.311-2.824-0.772c-0.79-0.459-1.231-1.005-1.324-1.639C362.495,110.391,362.828,109.837,363.592,109.395z
						 M366.721,112.329c0.607,0.058,1.103-0.026,1.49-0.25s0.53-0.509,0.429-0.857c-0.085-0.317-0.33-0.593-0.734-0.827
						c-0.409-0.238-0.887-0.383-1.435-0.434c-0.596-0.058-1.088,0.026-1.475,0.25c-0.388,0.224-0.535,0.509-0.444,0.857
						c0.086,0.316,0.334,0.595,0.743,0.832C365.7,112.135,366.175,112.278,366.721,112.329"/>
				</g>
				<g>
					<path fill="#FFFF00" d="M374.793,111.102l-8.297,4.791l-8.243-4.791l8.297-4.791L374.793,111.102z M366.737,113.471
						c1.149,0.059,2.108-0.134,2.877-0.577c0.77-0.444,1.104-0.999,1-1.66c-0.091-0.631-0.531-1.178-1.325-1.639
						c-0.789-0.46-1.731-0.717-2.825-0.772c-1.148-0.06-2.104,0.131-2.871,0.572c-0.765,0.441-1.098,0.997-1.004,1.665
						c0.093,0.634,0.534,1.18,1.325,1.639C364.707,113.161,365.648,113.418,366.737,113.471"/>
				</g>
			</g>
			<g>
				<g>
					<path fill="#93278F" d="M374.822,120.635l-8.298,4.791l-0.027-9.533l8.298-4.791L374.822,120.635z M369.62,122.268l2.104-1.215
						l-0.002-0.397l-0.359,0.208l-0.018-6.034l0.36-0.207l-0.001-0.405l-1.742,1.007l0.018,6.438l-0.36,0.207L369.62,122.268"/>
				</g>
				<g>
					<polygon fill="#FFFFFF" points="369.961,115.224 369.979,121.663 369.62,121.87 369.62,122.268 371.723,121.053 
						371.721,120.656 371.362,120.864 371.344,114.83 371.705,114.623 371.704,114.218 					"/>
				</g>
			</g>
			<g>
				<g>
					<path fill="#ED1E79" d="M366.469,125.426l-8.297-4.791l0.026-9.532l8.298,4.79L366.469,125.426z M361.276,121.057l2.103,1.214
						l0.002-0.397l-0.36-0.207l0.017-6.034l0.361,0.208v-0.405l-1.742-1.006l-0.019,6.438l-0.36-0.207L361.276,121.057"/>
				</g>
				<g>
					<polygon fill="#FFFFFF" points="361.656,114.428 361.637,120.868 361.278,120.66 361.276,121.057 363.379,122.271 
						363.381,121.874 363.021,121.667 363.038,115.633 363.398,115.841 363.398,115.435 					"/>
				</g>
			</g>
		</g>
		<g>
			<g>
				<g>
					<path fill="#FFFF00" d="M362.423,101.559c-0.387-0.223-0.708-0.207-0.965,0.045c-0.231,0.233-0.347,0.586-0.349,1.06
						c-0.001,0.468,0.113,0.951,0.342,1.45c0.255,0.553,0.574,0.941,0.961,1.164c0.389,0.224,0.708,0.206,0.959-0.057
						c0.231-0.232,0.349-0.583,0.35-1.05c0.001-0.473-0.113-0.96-0.343-1.46C363.129,102.168,362.811,101.784,362.423,101.559z"/>
				</g>
				<g>
					<path fill="#FFFF00" d="M366.55,110.489l-8.297-4.79l0.027-9.532l8.297,4.79L366.55,110.489z M360.47,104.698
						c0.522,1.025,1.169,1.759,1.938,2.202c0.771,0.445,1.417,0.457,1.938,0.036c0.502-0.394,0.753-1.049,0.757-1.968
						c0.003-0.912-0.246-1.856-0.743-2.832c-0.522-1.024-1.167-1.758-1.932-2.199c-0.766-0.441-1.413-0.454-1.944-0.039
						c-0.502,0.398-0.754,1.054-0.757,1.967C359.724,102.783,359.971,103.728,360.47,104.698"/>
				</g>
				<g>
					<path fill="#FFFFFF" d="M362.428,99.937c0.765,0.441,1.409,1.175,1.932,2.199c0.497,0.976,0.746,1.921,0.743,2.833
						c-0.004,0.918-0.255,1.573-0.757,1.967c-0.521,0.421-1.168,0.409-1.938-0.035c-0.769-0.444-1.415-1.178-1.938-2.202
						c-0.499-0.971-0.746-1.915-0.743-2.834c0.003-0.912,0.255-1.567,0.757-1.966C361.015,99.483,361.663,99.496,362.428,99.937z
						 M361.452,104.114c0.254,0.553,0.574,0.94,0.961,1.163c0.389,0.225,0.707,0.206,0.959-0.056
						c0.231-0.233,0.348-0.583,0.349-1.051c0.002-0.473-0.112-0.959-0.342-1.459c-0.248-0.544-0.567-0.928-0.955-1.152
						c-0.387-0.223-0.708-0.207-0.964,0.045c-0.231,0.233-0.348,0.586-0.35,1.06C361.109,103.131,361.222,103.614,361.452,104.114"
						/>
				</g>
			</g>
			<g>
				<g>
					<path fill="#8CC63F" d="M374.902,105.699l-8.297,4.791l-0.027-9.533l8.298-4.79L374.902,105.699z M369.702,107.333l2.103-1.214
						l-0.002-0.398l-0.36,0.208l-0.018-6.033l0.361-0.208l-0.002-0.405l-1.742,1.006l0.018,6.438l-0.359,0.209L369.702,107.333"/>
				</g>
				<g>
					<polygon fill="#FFFFFF" points="370.042,100.288 370.06,106.726 369.7,106.935 369.702,107.333 371.804,106.119 
						371.802,105.72 371.442,105.928 371.425,99.895 371.786,99.687 371.785,99.282 					"/>
				</g>
			</g>
			<g>
				<g>
					<polygon fill="#FFFFFF" points="362.944,94.837 368.511,98.072 368.151,98.28 368.495,98.479 370.597,97.265 370.254,97.065 
						369.894,97.273 364.677,94.243 365.039,94.034 364.687,93.83 					"/>
				</g>
				<g>
					<path fill="#ED1E79" d="M374.875,96.167l-8.298,4.79l-8.244-4.79l8.298-4.791L374.875,96.167z M368.495,98.479l2.103-1.214
						l-0.343-0.2l-0.36,0.208l-5.217-3.03l0.361-0.209l-0.352-0.204l-1.743,1.006l5.567,3.235l-0.36,0.207L368.495,98.479"/>
				</g>
			</g>
		</g>
		<g>
			<g>
				<g>
					<path fill="#29ABE2" d="M362.422,86.638c-0.386-0.224-0.707-0.208-0.965,0.044c-0.23,0.234-0.348,0.586-0.348,1.06
						c-0.002,0.468,0.112,0.951,0.342,1.45c0.253,0.553,0.574,0.94,0.961,1.164c0.388,0.224,0.706,0.204,0.957-0.057
						c0.232-0.232,0.35-0.583,0.35-1.051c0.002-0.473-0.112-0.958-0.343-1.458C363.128,87.247,362.811,86.863,362.422,86.638z"/>
				</g>
				<g>
					<path fill="#29ABE2" d="M366.55,95.568l-8.298-4.791l0.027-9.533l8.296,4.79L366.55,95.568z M360.469,89.777
						c0.523,1.025,1.17,1.759,1.938,2.203c0.77,0.445,1.416,0.456,1.938,0.036c0.501-0.394,0.753-1.049,0.756-1.967
						c0.003-0.913-0.245-1.856-0.743-2.833c-0.523-1.024-1.166-1.757-1.932-2.199c-0.765-0.441-1.413-0.455-1.943-0.039
						c-0.503,0.398-0.755,1.054-0.757,1.966C359.724,87.862,359.971,88.806,360.469,89.777"/>
				</g>
				<g>
					<path fill="#FFFFFF" d="M362.427,85.017c0.765,0.441,1.408,1.174,1.932,2.198c0.498,0.976,0.746,1.92,0.743,2.833
						c-0.003,0.918-0.255,1.574-0.756,1.967c-0.522,0.42-1.169,0.41-1.938-0.036c-0.769-0.444-1.415-1.178-1.938-2.203
						c-0.498-0.97-0.745-1.914-0.742-2.833c0.002-0.912,0.254-1.567,0.757-1.966C361.014,84.562,361.663,84.575,362.427,85.017z
						 M361.452,89.193c0.253,0.553,0.574,0.94,0.961,1.164c0.388,0.224,0.706,0.204,0.957-0.057c0.232-0.232,0.35-0.583,0.35-1.051
						c0.002-0.473-0.112-0.958-0.343-1.458c-0.248-0.544-0.565-0.929-0.954-1.152c-0.386-0.224-0.707-0.208-0.965,0.044
						c-0.23,0.234-0.348,0.586-0.348,1.06C361.108,88.21,361.222,88.693,361.452,89.193"/>
				</g>
			</g>
			<g>
				<path fill="#8CC63F" d="M370.737,86.636c-0.387,0.223-0.707,0.608-0.961,1.156c-0.229,0.499-0.343,0.986-0.343,1.458
					c0.002,0.468,0.118,0.818,0.35,1.051c0.257,0.257,0.578,0.275,0.965,0.052c0.388-0.224,0.705-0.61,0.953-1.161
					c0.231-0.5,0.345-0.983,0.344-1.45c-0.002-0.473-0.118-0.827-0.35-1.06C371.444,86.427,371.125,86.412,370.737,86.636z"/>
			</g>
			<g>
				<path fill="#FFFFFF" d="M370.732,85.013c0.766-0.441,1.41-0.454,1.938-0.036c0.502,0.398,0.754,1.054,0.757,1.966
					c0.003,0.919-0.246,1.863-0.743,2.833c-0.519,1.021-1.162,1.754-1.932,2.199s-1.418,0.457-1.945,0.04
					c-0.501-0.393-0.754-1.049-0.756-1.967c-0.003-0.913,0.244-1.857,0.743-2.833C369.322,86.188,369.968,85.455,370.732,85.013z
					 M369.783,90.302c0.257,0.258,0.578,0.275,0.965,0.052c0.388-0.224,0.705-0.61,0.953-1.161c0.231-0.5,0.345-0.982,0.344-1.45
					c-0.002-0.473-0.118-0.827-0.35-1.06c-0.251-0.256-0.57-0.272-0.958-0.047c-0.387,0.222-0.707,0.607-0.961,1.156
					c-0.229,0.499-0.343,0.986-0.343,1.458C369.435,89.719,369.551,90.068,369.783,90.302"/>
			</g>
			<g>
				<path fill="#8CC63F" d="M374.901,90.78l-8.297,4.791l-0.028-9.535l8.299-4.79L374.901,90.78z M368.807,92.016
					c0.527,0.417,1.176,0.405,1.945-0.04s1.413-1.178,1.932-2.199c0.497-0.97,0.746-1.915,0.743-2.833
					c-0.003-0.913-0.255-1.568-0.757-1.966c-0.528-0.418-1.173-0.406-1.938,0.036c-0.764,0.441-1.41,1.175-1.938,2.202
					c-0.499,0.976-0.746,1.92-0.743,2.833C368.053,90.967,368.306,91.623,368.807,92.016"/>
			</g>
			<g>
				<g>
					<polygon fill="#FFFFFF" points="362.944,79.915 368.511,83.151 368.15,83.359 368.495,83.558 370.597,82.344 370.253,82.144 
						369.894,82.352 364.677,79.321 365.037,79.113 364.686,78.909 					"/>
				</g>
				<g>
					<path fill="#F7931E" d="M374.875,81.245l-8.298,4.79l-8.243-4.79l8.298-4.791L374.875,81.245z M368.495,83.558l2.103-1.214
						l-0.344-0.199l-0.36,0.208l-5.216-3.031l0.359-0.208l-0.351-0.205l-1.742,1.006l5.567,3.236l-0.361,0.208L368.495,83.558"/>
				</g>
			</g>
		</g>
		<g>
			<g>
				<g>
					<path fill="#ED1E79" d="M362.45,71.701c-0.387-0.223-0.708-0.207-0.965,0.045c-0.231,0.234-0.347,0.586-0.349,1.06
						c-0.002,0.468,0.112,0.951,0.343,1.45c0.253,0.553,0.574,0.941,0.96,1.164c0.389,0.224,0.707,0.205,0.959-0.056
						c0.231-0.233,0.348-0.583,0.349-1.051c0.002-0.473-0.112-0.958-0.343-1.459C363.155,72.31,362.838,71.925,362.45,71.701z"/>
				</g>
				<g>
					<path fill="#ED1E79" d="M366.577,80.632l-8.298-4.79l0.028-9.533l8.297,4.791L366.577,80.632z M360.496,74.84
						c0.523,1.025,1.17,1.759,1.939,2.202c0.771,0.445,1.416,0.457,1.938,0.036c0.501-0.394,0.754-1.049,0.757-1.967
						c0.003-0.913-0.245-1.856-0.743-2.833c-0.522-1.024-1.168-1.757-1.932-2.198c-0.764-0.442-1.412-0.456-1.944-0.039
						c-0.503,0.398-0.754,1.053-0.757,1.965C359.75,72.926,359.999,73.869,360.496,74.84"/>
				</g>
				<g>
					<path fill="#FFFFFF" d="M362.455,70.08c0.764,0.441,1.409,1.174,1.932,2.198c0.498,0.976,0.746,1.92,0.743,2.833
						c-0.003,0.918-0.256,1.573-0.757,1.967c-0.521,0.421-1.167,0.409-1.938-0.036c-0.77-0.444-1.416-1.178-1.939-2.202
						c-0.497-0.971-0.745-1.915-0.742-2.833c0.003-0.913,0.254-1.568,0.757-1.966C361.042,69.625,361.69,69.637,362.455,70.08z
						 M361.479,74.256c0.253,0.553,0.574,0.941,0.96,1.164c0.389,0.224,0.707,0.205,0.959-0.056
						c0.231-0.233,0.348-0.583,0.349-1.051c0.002-0.473-0.112-0.958-0.343-1.459c-0.249-0.543-0.565-0.928-0.954-1.152
						c-0.386-0.223-0.707-0.207-0.965,0.045c-0.231,0.234-0.347,0.586-0.348,1.06C361.134,73.274,361.249,73.756,361.479,74.256"/>
				</g>
			</g>
			<g>
				<path fill="#29ABE2" d="M370.763,71.699c-0.386,0.223-0.706,0.608-0.96,1.156c-0.23,0.499-0.345,0.986-0.343,1.458
					c0.001,0.468,0.118,0.818,0.349,1.051c0.257,0.258,0.578,0.276,0.965,0.052c0.388-0.224,0.706-0.61,0.954-1.16
					c0.23-0.5,0.345-0.983,0.343-1.45c-0.001-0.473-0.117-0.827-0.349-1.06C371.471,71.49,371.152,71.475,370.763,71.699z"/>
			</g>
			<g>
				<path fill="#FFFFFF" d="M370.759,70.077c0.765-0.442,1.41-0.454,1.938-0.035c0.502,0.397,0.755,1.053,0.757,1.966
					c0.003,0.918-0.246,1.862-0.743,2.833c-0.519,1.021-1.162,1.754-1.933,2.199c-0.769,0.444-1.417,0.457-1.944,0.04
					c-0.502-0.393-0.754-1.049-0.756-1.967c-0.003-0.912,0.244-1.857,0.743-2.833C369.349,71.252,369.996,70.518,370.759,70.077z
					 M369.81,75.365c0.256,0.258,0.577,0.276,0.964,0.052c0.389-0.224,0.707-0.61,0.954-1.16c0.23-0.5,0.345-0.983,0.343-1.45
					c0-0.473-0.117-0.827-0.349-1.06c-0.251-0.256-0.57-0.272-0.959-0.048c-0.386,0.223-0.706,0.608-0.96,1.156
					c-0.23,0.499-0.345,0.986-0.343,1.458C369.462,74.781,369.579,75.132,369.81,75.365"/>
			</g>
			<g>
				<path fill="#29ABE2" d="M374.929,75.843l-8.298,4.79l-0.027-9.534l8.298-4.791L374.929,75.843z M368.834,77.079
					c0.527,0.417,1.176,0.405,1.944-0.04c0.771-0.444,1.415-1.178,1.933-2.199c0.497-0.971,0.746-1.915,0.743-2.833
					c-0.002-0.913-0.255-1.569-0.757-1.966c-0.528-0.419-1.174-0.407-1.938,0.035c-0.764,0.441-1.41,1.175-1.938,2.202
					c-0.499,0.975-0.746,1.92-0.743,2.833C368.081,76.03,368.333,76.686,368.834,77.079"/>
			</g>
			<g>
				<g>
					<polygon fill="#FFFFFF" points="362.97,64.978 368.538,68.214 368.177,68.421 368.522,68.621 370.624,67.407 370.281,67.208 
						369.921,67.415 364.704,64.384 365.064,64.177 364.713,63.972 					"/>
				</g>
				<g>
					<path fill="#93278F" d="M374.901,66.308l-8.297,4.791l-8.243-4.791l8.297-4.791L374.901,66.308z M368.522,68.621l2.102-1.214
						l-0.343-0.199l-0.359,0.208l-5.218-3.031l0.36-0.207l-0.351-0.205l-1.744,1.006l5.568,3.236l-0.36,0.207L368.522,68.621"/>
				</g>
			</g>
		</g>
	</g>
</g>
</svg>
