<?xml version="1.0" encoding="UTF-8" standalone="no"?>
<!-- Created with Inkscape (http://www.inkscape.org/) -->

<svg
   xmlns:dc="http://purl.org/dc/elements/1.1/"
   xmlns:cc="http://creativecommons.org/ns#"
   xmlns:rdf="http://www.w3.org/1999/02/22-rdf-syntax-ns#"
   xmlns:svg="http://www.w3.org/2000/svg"
   xmlns="http://www.w3.org/2000/svg"
   xmlns:xlink="http://www.w3.org/1999/xlink"
   xmlns:sodipodi="http://sodipodi.sourceforge.net/DTD/sodipodi-0.dtd"
   xmlns:inkscape="http://www.inkscape.org/namespaces/inkscape"
   width="1000"
   height="300"
   id="svg15286"
   version="1.1"
   inkscape:version="0.47 r22583"
   sodipodi:docname="counter  c.svg">
  <defs
     id="defs15288">
    <inkscape:perspective
       sodipodi:type="inkscape:persp3d"
       inkscape:vp_x="0 : 526.18109 : 1"
       inkscape:vp_y="0 : 1000 : 0"
       inkscape:vp_z="744.09448 : 526.18109 : 1"
       inkscape:persp3d-origin="372.04724 : 350.78739 : 1"
       id="perspective15294" />
    <inkscape:perspective
       id="perspective15304"
       inkscape:persp3d-origin="0.5 : 0.33333333 : 1"
       inkscape:vp_z="1 : 0.5 : 1"
       inkscape:vp_y="0 : 1000 : 0"
       inkscape:vp_x="0 : 0.5 : 1"
       sodipodi:type="inkscape:persp3d" />
    <linearGradient
       inkscape:collect="always"
       xlink:href="#linearGradient3763"
       id="linearGradient3769"
       x1="3097.1428"
       y1="510.93362"
       x2="2815"
       y2="755.93359"
       gradientUnits="userSpaceOnUse"
       gradientTransform="translate(-2403.2785,233.89788)" />
    <linearGradient
       inkscape:collect="always"
       id="linearGradient3763">
      <stop
         style="stop-color:#ffffff;stop-opacity:1;"
         offset="0"
         id="stop3765" />
      <stop
         style="stop-color:#ffffff;stop-opacity:0;"
         offset="1"
         id="stop3767" />
    </linearGradient>
    <inkscape:path-effect
       fuse_tolerance="0"
       vertical_pattern="false"
       prop_units="false"
       tang_offset="0"
       normal_offset="0"
       spacing="0"
       scale_y_rel="false"
       prop_scale="1"
       copytype="single_stretched"
       pattern="m -2403.2785,-151.021 c 0,-2.76 2.24,-5 5,-5 2.76,0 5,2.24 5,5 0,2.76 -2.24,5 -5,5 -2.76,0 -5,-2.24 -5,-5 z"
       is_visible="true"
       id="path-effect3845"
       effect="skeletal" />
    <linearGradient
       inkscape:collect="always"
       xlink:href="#linearGradient3737"
       id="linearGradient3743"
       x1="2773.8789"
       y1="701.70312"
       x2="2773.8789"
       y2="651.4762"
       gradientUnits="userSpaceOnUse"
       gradientTransform="translate(-2403.2785,233.89788)" />
    <linearGradient
       inkscape:collect="always"
       id="linearGradient3737">
      <stop
         style="stop-color:#ffffff;stop-opacity:1;"
         offset="0"
         id="stop3739" />
      <stop
         style="stop-color:#ffffff;stop-opacity:0;"
         offset="1"
         id="stop3741" />
    </linearGradient>
    <linearGradient
       inkscape:collect="always"
       xlink:href="#linearGradient3729"
       id="linearGradient3735"
       x1="2858.2266"
       y1="734.133"
       x2="2858.2266"
       y2="627.71613"
       gradientUnits="userSpaceOnUse"
       gradientTransform="translate(-2403.2785,233.89788)" />
    <linearGradient
       inkscape:collect="always"
       id="linearGradient3729">
      <stop
         style="stop-color:#ffffff;stop-opacity:1;"
         offset="0"
         id="stop3731" />
      <stop
         style="stop-color:#ffffff;stop-opacity:0;"
         offset="1"
         id="stop3733" />
    </linearGradient>
    <linearGradient
       inkscape:collect="always"
       xlink:href="#linearGradient3721"
       id="linearGradient3727"
       x1="2925.9067"
       y1="738.21265"
       x2="2925.9067"
       y2="592.96246"
       gradientUnits="userSpaceOnUse"
       gradientTransform="translate(-2403.2785,233.89788)" />
    <linearGradient
       inkscape:collect="always"
       id="linearGradient3721">
      <stop
         style="stop-color:#ffffff;stop-opacity:1;"
         offset="0"
         id="stop3723" />
      <stop
         style="stop-color:#ffffff;stop-opacity:0;"
         offset="1"
         id="stop3725" />
    </linearGradient>
    <inkscape:perspective
       id="perspective15529"
       inkscape:persp3d-origin="0.5 : 0.33333333 : 1"
       inkscape:vp_z="1 : 0.5 : 1"
       inkscape:vp_y="0 : 1000 : 0"
       inkscape:vp_x="0 : 0.5 : 1"
       sodipodi:type="inkscape:persp3d" />
    <linearGradient
       inkscape:collect="always"
       xlink:href="#linearGradient4210"
       id="linearGradient3089"
       gradientUnits="userSpaceOnUse"
       x1="4337.3931"
       y1="1643.1841"
       x2="4337.3931"
       y2="1564.447"
       gradientTransform="translate(-4197.4402,-738.80493)" />
    <linearGradient
       inkscape:collect="always"
       id="linearGradient4210">
      <stop
         style="stop-color:#ffffff;stop-opacity:1;"
         offset="0"
         id="stop4212" />
      <stop
         style="stop-color:#ffffff;stop-opacity:0;"
         offset="1"
         id="stop4214" />
    </linearGradient>
    <linearGradient
       inkscape:collect="always"
       xlink:href="#linearGradient4141"
       id="linearGradient3085"
       gradientUnits="userSpaceOnUse"
       gradientTransform="translate(-4197.471,-1104.4655)"
       x1="4333.9287"
       y1="2211.8247"
       x2="4333.9287"
       y2="1878.8224" />
    <linearGradient
       inkscape:collect="always"
       id="linearGradient4141">
      <stop
         style="stop-color:#ffffff;stop-opacity:1;"
         offset="0"
         id="stop4143" />
      <stop
         style="stop-color:#ffffff;stop-opacity:0;"
         offset="1"
         id="stop4145" />
    </linearGradient>
    <radialGradient
       inkscape:collect="always"
       xlink:href="#linearGradient4160"
       id="radialGradient3081"
       gradientUnits="userSpaceOnUse"
       gradientTransform="matrix(-1.0813069,5.6163649e-8,-3.0767558e-6,-1.0023815,5199.7708,2859.8145)"
       cx="4668.3857"
       cy="1954.3492"
       fx="4668.3857"
       fy="1954.3492"
       r="127.6389" />
    <linearGradient
       id="linearGradient4160">
      <stop
         style="stop-color:#aa0000;stop-opacity:0;"
         offset="0"
         id="stop4162" />
      <stop
         id="stop4172"
         offset="0.63826454"
         style="stop-color:#aa0000;stop-opacity:0.12156863;" />
      <stop
         id="stop4170"
         offset="0.74036157"
         style="stop-color:#aa0000;stop-opacity:0.24705882;" />
      <stop
         id="stop4168"
         offset="0.85272467"
         style="stop-color:#aa0000;stop-opacity:0.49803922;" />
      <stop
         style="stop-color:#aa0000;stop-opacity:1;"
         offset="1"
         id="stop4164" />
    </linearGradient>
    <linearGradient
       inkscape:collect="always"
       xlink:href="#linearGradient4331"
       id="linearGradient4337"
       x1="4673.7988"
       y1="1685.7899"
       x2="4673.7988"
       y2="1648.2736"
       gradientUnits="userSpaceOnUse"
       gradientTransform="translate(-4197.4402,-738.80493)" />
    <linearGradient
       inkscape:collect="always"
       id="linearGradient4331">
      <stop
         style="stop-color:#ffffff;stop-opacity:1;"
         offset="0"
         id="stop4333" />
      <stop
         style="stop-color:#ffffff;stop-opacity:0;"
         offset="1"
         id="stop4335" />
    </linearGradient>
    <linearGradient
       inkscape:collect="always"
       xlink:href="#linearGradient4260"
       id="linearGradient4266"
       x1="4613.5181"
       y1="1609.2108"
       x2="4613.5181"
       y2="1566.3079"
       gradientUnits="userSpaceOnUse"
       gradientTransform="translate(-4197.4402,-738.80493)" />
    <linearGradient
       inkscape:collect="always"
       id="linearGradient4260">
      <stop
         style="stop-color:#ffffff;stop-opacity:1;"
         offset="0"
         id="stop4262" />
      <stop
         style="stop-color:#ffffff;stop-opacity:0;"
         offset="1"
         id="stop4264" />
    </linearGradient>
  </defs>
  <sodipodi:namedview
     id="base"
     pagecolor="#ffffff"
     bordercolor="#666666"
     borderopacity="1.0"
     inkscape:pageopacity="0.0"
     inkscape:pageshadow="2"
     inkscape:zoom="0.49497475"
     inkscape:cx="867.6391"
     inkscape:cy="80.832523"
     inkscape:document-units="px"
     inkscape:current-layer="layer1"
     showgrid="false"
     inkscape:window-width="1280"
     inkscape:window-height="752"
     inkscape:window-x="0"
     inkscape:window-y="25"
     inkscape:window-maximized="1" />
  <metadata
     id="metadata15291">
    <rdf:RDF>
      <cc:Work
         rdf:about="">
        <dc:format>image/svg+xml</dc:format>
        <dc:type
           rdf:resource="http://purl.org/dc/dcmitype/StillImage" />
        <dc:title></dc:title>
      </cc:Work>
    </rdf:RDF>
  </metadata>
  <g
     inkscape:label="Camada 1"
     inkscape:groupmode="layer"
     id="layer1"
     transform="translate(0,-752.36218)">
    <path
       sodipodi:nodetypes="ccccsscccscccc"
       id="path3063"
       d="m 154.74731,774.72625 c -0.6726,0.01 -1.3299,0.031 -2,0.031 l 0.031,33.6875 c 0.8347,-8e-4 1.6333,-0.025 2.4687,0 13.9245,0.4299 27.9699,4.5655 40.5,12.7188 36.4508,23.7191 46.7189,72.5178 23,108.9687 -15.0764,23.1691 -40.2448,35.7574 -65.9687,35.7813 l -0.031,-2e-4 0,61.65635 c 41.3006,-0.038 81.7631,-20.2386 105.9687,-57.43755 38.0817,-58.5235 21.5547,-136.8556 -36.9687,-174.9375 -20.1176,-13.0905 -42.6124,-19.7473 -64.9687,-20.4375 -0.6707,-0.02 -1.3587,-0.036 -2.0313,-0.031 l 0,1e-4 z"
       style="fill:#aa0000;fill-opacity:1;stroke:none" />
    <g
       style="font-size:73.77179718px;font-style:normal;font-variant:normal;font-weight:bold;font-stretch:normal;text-align:start;text-anchor:start;fill:#aa0000;fill-opacity:1;stroke:none;font-family:GentesqueDemi;-inkscape-font-specification:GentesqueDemi Semi-Bold"
       id="text4218">
      <path
         d="m 306.26471,840.19826 0,45.66826 7.02588,0 0,-21.07766 14.05177,0 0,-7.02589 -14.05177,0 0,-10.53882 19.04015,0 0,-7.02589 -26.06603,0"
         style=""
         id="path15737" />
      <path
         d="m 353.46329,839.14438 c -10.11727,0.14052 -10.81987,0.70259 -13.70048,1.05388 l 0,45.66826 7.02588,0 0,-19.39145 c 0,0 2.45907,0.21078 4.42631,0.21078 3.72372,6.39355 7.44745,12.78712 12.99789,19.18067 l 9.13365,0 c -5.48018,-6.32329 -11.1009,-12.64661 -14.47332,-20.23455 5.40992,-2.03751 9.27417,-6.95564 9.27417,-12.78712 0,-7.51769 -6.60434,-13.70047 -14.6841,-13.70047 m 0,7.02588 c 4.21552,0 7.65821,3.02114 7.65821,6.67459 0,3.72372 -3.44269,6.6746 -7.65821,6.6746 -3.86424,0.35129 -6.81511,-0.3513 -6.81511,-0.3513 l 0.14051,-12.64659 c 2.17803,-0.28104 4.42631,-0.49181 6.6746,-0.3513"
         style=""
         id="path15739" />
      <path
         d="m 379.0279,840.19826 0,45.66826 26.69837,0 0,-7.02589 -19.67248,0 0,-14.05177 14.05177,0 0,-7.02589 -14.05177,0 0,-10.53882 18.96989,0 0,-7.02589 -25.99578,0"
         style=""
         id="path15741" />
      <path
         d="m 412.45575,840.19826 0,45.66826 26.69836,0 0,-7.02589 -19.67248,0 0,-14.05177 14.05177,0 0,-7.02589 -14.05177,0 0,-10.53882 18.96989,0 0,-7.02589 -25.99577,0"
         style=""
         id="path15743" />
      <path
         d="m 491.68907,839.49567 c -10.89011,0 -19.67248,10.6091 -19.67248,23.60698 0,12.99787 8.78237,23.60697 19.67248,23.60697 5.90174,0 12.6466,-3.09139 16.22979,-8.00951 l -4.7776,-5.40993 c -2.31854,3.93449 -7.37718,6.39356 -11.45219,6.39356 -6.95562,0 -12.6466,-7.44745 -12.6466,-16.58109 0,-9.06339 5.69098,-16.58109 12.6466,-16.58109 4.07501,0 8.15003,0.98362 11.73323,3.37242 l 3.09139,-6.81511 c -4.63708,-3.44268 -9.97677,-3.86423 -14.82462,-3.5832"
         style=""
         id="path15745" />
      <path
         d="m 513.25963,840.19826 0,29.50872 c 0,9.69571 7.86901,17.56471 17.56472,17.56471 9.69571,0 17.56471,-7.869 17.56471,-17.56471 l 0,-29.50872 -7.02588,0 0,29.50872 c 0,5.83148 -4.70735,10.53883 -10.53883,10.53883 -5.83148,0 -10.53883,-4.70735 -10.53883,-10.53883 l 0,-29.50872 -7.02589,0"
         style=""
         id="path15747" />
      <path
         d="m 555.82086,840.19826 0,45.66826 27.40095,0 0,-7.02589 -20.37507,0 0,-38.64237 -7.02588,0"
         style=""
         id="path15749" />
      <path
         d="m 583.68757,840.19826 0,7.02589 15.45694,0 0,38.64237 7.02589,0 0,-38.64237 15.45695,0 0,-7.02589 -37.93978,0"
         style=""
         id="path15751" />
      <path
         d="m 628.38399,840.19826 0,29.50872 c 0,9.69571 7.869,17.56471 17.56472,17.56471 9.69571,0 17.56471,-7.869 17.56471,-17.56471 l 0,-29.50872 -7.02589,0 0,29.50872 c 0,5.83148 -4.70734,10.53883 -10.53882,10.53883 -5.83148,0 -10.53883,-4.70735 -10.53883,-10.53883 l 0,-29.50872 -7.02589,0"
         style=""
         id="path15753" />
      <path
         d="m 684.71595,839.14438 c -10.11726,0.14052 -10.81986,0.70259 -13.70047,1.05388 l 0,45.66826 7.02588,0 0,-19.39145 c 0,0 2.45906,0.21078 4.42631,0.21078 3.72371,6.39355 7.44744,12.78712 12.99789,19.18067 l 9.13365,0 c -5.48019,-6.32329 -11.1009,-12.64661 -14.47333,-20.23455 5.40993,-2.03751 9.27417,-6.95564 9.27417,-12.78712 0,-7.51769 -6.60434,-13.70047 -14.6841,-13.70047 m 0,7.02588 c 4.21553,0 7.65822,3.02114 7.65822,6.67459 0,3.72372 -3.44269,6.6746 -7.65822,6.6746 -3.86423,0.35129 -6.81511,-0.3513 -6.81511,-0.3513 l 0.14052,-12.64659 c 2.17802,-0.28104 4.42631,-0.49181 6.67459,-0.3513"
         style=""
         id="path15755" />
      <path
         d="m 710.28057,840.19826 0,45.66826 26.69837,0 0,-7.02589 -19.67248,0 0,-14.05177 14.05177,0 0,-7.02589 -14.05177,0 0,-10.53882 18.96989,0 0,-7.02589 -25.99578,0"
         style=""
         id="path15757" />
    </g>
    <path
       style="font-size:73.77179718px;font-style:normal;font-variant:normal;font-weight:bold;font-stretch:normal;text-align:start;text-anchor:start;opacity:0.8;fill:url(#linearGradient4266);fill-opacity:1;stroke:none;font-family:GentesqueDemi;-inkscape-font-specification:GentesqueDemi Semi-Bold"
       d="m 353.46601,839.14905 c -10.1172,0.1404 -10.8381,0.7111 -13.7187,1.0624 l 0,20.9688 25.375,0 c 1.8954,-2.3066 3.0313,-5.1902 3.0313,-8.3438 0,-7.5176 -6.6077,-13.6874 -14.6876,-13.6874 z m 331.25,0 c -10.1171,0.1404 -10.807,0.7111 -13.6874,1.0624 l 0,20.9688 25.3437,0 c 1.8954,-2.3066 3.0313,-5.1902 3.0313,-8.3438 0,-7.5176 -6.6077,-13.6874 -14.6876,-13.6874 z m -191.1874,0.2812 c -0.6191,0.01 -1.2378,0.027 -1.8438,0.062 -10.344,0 -18.7745,9.5871 -19.5938,21.6875 l 7.0313,0 c 0.7415,-8.1755 6.1085,-14.6562 12.5625,-14.6562 4.075,0 8.1668,0.9861 11.75,3.375 l 3.0938,-6.8126 c -4.0575,-3.0121 -8.667,-3.7167 -13,-3.6562 z m -187.25,0.7812 0,20.9688 21.0624,0 0,-3.4062 -14.0624,0 0,-10.5626 19.0624,0 0,-7 -26.0624,0 z m 72.75,0 0,20.9688 21.0624,0 0,-3.4062 -14.0312,0 0,-10.5626 18.9688,0 0,-7 -26,0 z m 33.4374,0 0,20.9688 21.0626,0 0,-3.4062 -14.0626,0 0,-10.5626 19,0 0,-7 -26,0 z m 100.7813,0 0,20.9688 7.0313,0 0,-20.9688 -7.0313,0 z m 28.125,0 0,20.9688 7.0313,0 0,-20.9688 -7.0313,0 z m 14.4375,0 0,20.9688 7.0312,0 0,-20.9688 -7.0312,0 z m 27.875,0 0,7 15.4688,0 0,13.9688 7.0312,0 0,-13.9688 15.4375,0 0,-7 -37.9375,0 z m 44.6875,0 0,20.9688 7.0313,0 0,-20.9688 -7.0313,0 z m 28.125,0 0,20.9688 7.0313,0 0,-20.9688 -7.0313,0 z m 53.7813,0 0,20.9688 21.0937,0 0,-3.4062 -14.0625,0 0,-10.5626 18.9688,0 0,-7 -26,0 z m -358.5,5.9063 c 0.5609,0 1.1254,0.027 1.6874,0.062 4.2156,0 7.6563,3.0028 7.6563,6.6562 0,3.7239 -3.4406,6.6876 -7.6563,6.6876 -3.8643,0.3512 -6.8125,-0.3438 -6.8124,-0.3438 l 0.125,-12.6562 c 1.6334,-0.2109 3.3169,-0.3931 5,-0.4063 z m 331.25,0 c 0.5609,0 1.1254,0.027 1.6874,0.062 4.2157,0 7.6563,3.0028 7.6563,6.6562 0,3.7239 -3.4406,6.6876 -7.6563,6.6876 -3.8641,0.3512 -6.8125,-0.3438 -6.8124,-0.3438 l 0.125,-12.6562 c 1.6334,-0.2109 3.3171,-0.3931 5,-0.4063 z"
       id="path4223" />
    <g
       style="font-size:73.77179718px;font-style:normal;font-variant:normal;font-weight:normal;font-stretch:normal;text-align:start;text-anchor:start;fill:#aa0000;fill-opacity:1;stroke:none;font-family:GentesqueRegular;-inkscape-font-specification:GentesqueRegular"
       id="text4268">
      <path
         d="m 319.89514,914.30893 c -8.15002,0.0703 -11.31167,0.56207 -13.63021,0.98362 l 0,45.73852 4.91812,0 0.0703,-20.44533 c 1.75647,0.14052 5.40994,0.21078 7.16641,0.21078 4.07501,9.62545 8.57158,15.52721 12.2953,20.23455 l 6.39355,0 c -4.98837,-6.60433 -11.38193,-14.12204 -13.70047,-20.86688 7.51769,-2.45906 8.85261,-7.93926 8.85261,-12.15478 0,-7.44744 -5.62071,-13.70048 -12.36556,-13.70048 m 7.72848,13.70048 c 0,4.4263 -3.51295,7.72847 -7.72848,7.72847 -2.31854,0.14052 -6.46381,0.14052 -8.78235,-0.42155 l 0.0703,-15.59747 c 0,0 5.48019,-0.42155 8.71209,-0.42155 4.21553,0 7.72848,3.79398 7.72848,8.7121"
         style=""
         id="path15760" />
      <path
         d="m 342.71857,915.36281 0,45.66826 24.45008,0 0,-4.91812 -19.53196,0 0,-17.21342 13.91125,0 0,-4.91812 -13.91125,0 0,-13.70048 18.82937,0 0,-4.91812 -23.74749,0"
         style=""
         id="path15762" />
      <path
         d="m 373.77792,927.23656 c 0,5.76122 4.42631,9.48495 11.52245,12.43582 5.48019,2.24828 8.85262,4.91812 8.85262,8.78235 0,5.6207 -5.90175,9.76598 -10.18754,9.76598 -2.66983,0 -6.60433,-1.40518 -8.57158,-3.30216 l -2.81035,4.07501 c 2.81035,2.3888 7.65822,4.14527 11.38193,4.14527 7.02588,0 15.10566,-6.6746 15.10566,-14.75436 0,-6.46381 -5.26942,-10.60909 -12.6466,-13.34918 -4.35604,-1.61595 -7.72847,-5.55045 -7.72847,-7.79873 0,-4.98838 4.98838,-8.78236 8.7121,-8.78236 2.31854,0 6.11252,1.61596 7.79873,3.65346 l 2.24828,-4.63708 c -2.45905,-2.24828 -6.95563,-3.9345 -10.04701,-3.9345 -6.32329,0 -13.63022,6.25305 -13.63022,13.70048"
         style=""
         id="path15764" />
      <path
         d="m 405.68395,915.36281 0,45.66826 24.45008,0 0,-4.91812 -19.53196,0 0,-17.21342 13.91125,0 0,-4.91812 -13.91125,0 0,-13.70048 18.82937,0 0,-4.91812 -23.74749,0"
         style=""
         id="path15766" />
      <path
         d="m 457.32916,941.35859 -12.08453,-0.0703 5.69097,-17.98627 6.39356,18.05653 m -23.67724,19.67248 5.19916,0 4.7776,-14.26255 14.82462,0 4.7776,14.26255 5.19916,0 -15.52721,-47.21395 -3.72372,0 -15.52721,47.21395"
         style=""
         id="path15768" />
      <path
         d="m 487.61072,914.30893 c -8.15002,0.0703 -11.31168,0.56207 -13.63022,0.98362 l 0,45.73852 4.91812,0 0.0703,-20.44533 c 1.75647,0.14052 5.40993,0.21078 7.1664,0.21078 4.07501,9.62545 8.57159,15.52721 12.2953,20.23455 l 6.39356,0 c -4.98837,-6.60433 -11.38194,-14.12204 -13.70048,-20.86688 7.51769,-2.45906 8.85262,-7.93926 8.85262,-12.15478 0,-7.44744 -5.62072,-13.70048 -12.36556,-13.70048 m 7.72847,13.70048 c 0,4.4263 -3.51294,7.72847 -7.72847,7.72847 -2.31854,0.14052 -6.46382,0.14052 -8.78236,-0.42155 l 0.0703,-15.59747 c 0,0 5.4802,-0.42155 8.7121,-0.42155 4.21553,0 7.72847,3.79398 7.72847,8.7121"
         style=""
         id="path15770" />
      <path
         d="m 526.66394,914.66022 0,0 c -8.78235,0 -18.33756,10.46859 -18.33756,23.60698 0,13.20865 8.43107,23.60697 18.33756,23.60697 6.88536,0 11.52246,-2.81036 15.0354,-7.30692 l -3.37243,-3.72372 c -2.66983,3.72372 -7.02589,6.11252 -11.66297,6.11252 -7.09614,0 -13.41944,-8.64185 -13.41944,-18.68885 0,-9.97675 6.6746,-18.68886 13.41944,-18.68886 4.70734,0 8.07977,0.77285 11.52245,2.88062 l 2.10777,-4.77761 c -4.21553,-2.45905 -7.869,-3.02113 -13.63022,-3.02113"
         style=""
         id="path15772" />
      <path
         d="m 548.04047,915.36281 0,45.66826 4.91812,0 0,-21.78025 23.18542,0 0,21.78025 4.91812,0 0,-45.66826 -4.91812,0 0,18.96989 -23.18542,0 0,-18.96989 -4.91812,0"
         style=""
         id="path15774" />
      <path
         d="m 630.98187,914.66022 0,0 c -8.78235,0 -18.33756,10.46859 -18.33756,23.60698 0,13.20865 8.43107,23.60697 18.33756,23.60697 6.88536,0 11.52246,-2.81036 15.0354,-7.30692 l -3.37243,-3.72372 c -2.66983,3.72372 -7.02589,6.11252 -11.66297,6.11252 -7.09613,0 -13.41944,-8.64185 -13.41944,-18.68885 0,-9.97675 6.6746,-18.68886 13.41944,-18.68886 4.70734,0 8.07977,0.77285 11.52246,2.88062 l 2.10776,-4.77761 c -4.21553,-2.45905 -7.869,-3.02113 -13.63022,-3.02113"
         style=""
         id="path15776" />
      <path
         d="m 668.72871,914.80074 c -9.13364,0 -18.54833,10.46858 -18.54833,23.53672 0,13.13839 9.41469,23.53671 18.54833,23.53671 9.06339,0 18.54834,-10.39832 18.54834,-23.53671 0,-13.06814 -9.48495,-23.53672 -18.54834,-23.53672 m 13.63022,23.53672 c 0,10.047 -6.6746,18.61859 -13.63022,18.61859 -6.95562,0 -13.63021,-8.57159 -13.63021,-18.61859 0,-9.97675 6.67459,-18.6186 13.63021,-18.6186 6.95562,0 13.63022,8.64185 13.63022,18.6186"
         style=""
         id="path15778" />
      <path
         d="m 693.27869,961.03107 4.70734,0 0,-34.07555 24.5906,34.07555 3.72372,0 0,-45.66826 -4.91812,0 0,35.41046 -25.08241,-35.41046 -3.02113,0 0,45.66826"
         style=""
         id="path15780" />
      <path
         d="m 734.0549,915.36281 0,45.66826 4.91812,0 0,-22.13154 13.91126,0 0,-4.91812 -13.91126,0 0,-13.70048 18.82938,0 0,-4.91812 -23.7475,0"
         style=""
         id="path15782" />
      <path
         d="m 765.46555,915.36281 0,45.66826 24.45008,0 0,-4.91812 -19.53196,0 0,-17.21342 13.91125,0 0,-4.91812 -13.91125,0 0,-13.70048 18.82937,0 0,-4.91812 -23.74749,0"
         style=""
         id="path15784" />
      <path
         d="m 810.50641,914.30893 c -8.15002,0.0703 -11.31168,0.56207 -13.63022,0.98362 l 0,45.73852 4.91812,0 0.0703,-20.44533 c 1.75647,0.14052 5.40993,0.21078 7.1664,0.21078 4.07501,9.62545 8.57159,15.52721 12.2953,20.23455 l 6.39356,0 c -4.98837,-6.60433 -11.38194,-14.12204 -13.70048,-20.86688 7.51769,-2.45906 8.85262,-7.93926 8.85262,-12.15478 0,-7.44744 -5.62072,-13.70048 -12.36556,-13.70048 m 7.72847,13.70048 c 0,4.4263 -3.51294,7.72847 -7.72847,7.72847 -2.31854,0.14052 -6.46382,0.14052 -8.78236,-0.42155 l 0.0703,-15.59747 c 0,0 5.4802,-0.42155 8.7121,-0.42155 4.21553,0 7.72847,3.79398 7.72847,8.7121"
         style=""
         id="path15786" />
      <path
         d="m 833.32987,915.36281 0,45.66826 24.45008,0 0,-4.91812 -19.53196,0 0,-17.21342 13.91125,0 0,-4.91812 -13.91125,0 0,-13.70048 18.82937,0 0,-4.91812 -23.74749,0"
         style=""
         id="path15788" />
      <path
         d="m 864.74051,961.03107 4.70734,0 0,-34.07555 24.5906,34.07555 3.72372,0 0,-45.66826 -4.91812,0 0,35.41046 -25.08241,-35.41046 -3.02113,0 0,45.66826"
         style=""
         id="path15790" />
      <path
         d="m 921.74649,914.66022 0,0 c -8.78235,0 -18.33756,10.46859 -18.33756,23.60698 0,13.20865 8.43107,23.60697 18.33756,23.60697 6.88536,0 11.52246,-2.81036 15.0354,-7.30692 l -3.37243,-3.72372 c -2.66983,3.72372 -7.02589,6.11252 -11.66297,6.11252 -7.09614,0 -13.41944,-8.64185 -13.41944,-18.68885 0,-9.97675 6.6746,-18.68886 13.41944,-18.68886 4.70734,0 8.07977,0.77285 11.52245,2.88062 l 2.10777,-4.77761 c -4.21553,-2.45905 -7.869,-3.02113 -13.63022,-3.02113"
         style=""
         id="path15792" />
      <path
         d="m 943.12302,915.36281 0,45.66826 24.45008,0 0,-4.91812 -19.53196,0 0,-17.21342 13.91125,0 0,-4.91812 -13.91125,0 0,-13.70048 18.82937,0 0,-4.91812 -23.74749,0"
         style=""
         id="path15794" />
    </g>
    <path
       style="font-size:73.77179718px;font-style:normal;font-variant:normal;font-weight:normal;font-stretch:normal;text-align:start;text-anchor:start;opacity:0.8;fill:url(#linearGradient4337);fill-opacity:1;stroke:none;font-family:GentesqueRegular;-inkscape-font-specification:GentesqueRegular"
       d="m 387.39541,913.51535 c -6.3234,0 -13.6563,6.2712 -13.6563,13.7187 0,4.2009 2.3779,7.3187 6.4063,9.8437 l 10.8437,0 c -1.404,-0.7628 -2.9444,-1.4498 -4.5937,-2.0624 -4.3561,-1.6161 -7.7188,-5.5331 -7.7188,-7.7813 0,-4.9884 4.9951,-8.7812 8.7188,-8.7813 2.3185,0 6.095,1.5877 7.7812,3.625 l 2.25,-4.625 c -2.4591,-2.2481 -6.9398,-3.9374 -10.0312,-3.9374 z m 61.75,0.2812 -7.6563,23.2812 5.0625,0 4.375,-13.7812 4.875,13.7812 4.7188,0 -7.6563,-23.2812 -3.7187,0 z m -129.2813,0.5 c -8.15,0.07 -11.3065,0.5472 -13.625,0.9688 l 0,21.8124 22.5313,0 c 2.8345,-2.7014 3.4687,-6.1955 3.4687,-9.0937 0,-7.4474 -5.6302,-13.6875 -12.375,-13.6875 z m 167.7187,0 c -8.15,0.07 -11.3065,0.5472 -13.625,0.9688 l 0,21.8124 22.5313,0 c 2.8346,-2.7014 3.4687,-6.1955 3.4687,-9.0937 0,-7.4474 -5.6301,-13.6875 -12.375,-13.6875 z m 322.9063,0 c -8.1501,0.07 -11.3064,0.5472 -13.625,0.9688 l 0,21.8124 22.5,0 c 2.8346,-2.7014 3.4687,-6.1955 3.4687,-9.0937 0,-7.4474 -5.5989,-13.6875 -12.3437,-13.6875 z m -283.8437,0.3438 c -8.5151,0 -17.7573,9.8626 -18.3126,22.4374 l 4.9063,0 c 0.5067,-9.4658 6.9328,-17.4999 13.4063,-17.5 4.7073,0 8.0886,0.7673 11.5312,2.875 l 2.0938,-4.7812 c -4.2156,-2.4591 -7.864,-3.0312 -13.625,-3.0312 z m 104.3124,0 c -8.5147,0 -17.7572,9.8626 -18.3124,22.4374 l 4.9374,0 c 0.5044,-9.4658 6.9018,-17.4999 13.375,-17.5 4.7075,0 8.0886,0.7673 11.5313,2.875 l 2.0937,-4.7812 c -4.2155,-2.4591 -7.8637,-3.0312 -13.625,-3.0312 z m 290.75,0 c -8.5147,0 -17.7277,9.8626 -18.2812,22.4374 l 4.9062,0 c 0.5044,-9.4658 6.9018,-17.4999 13.375,-17.5 4.7075,0 8.0886,0.7673 11.5313,2.875 l 2.125,-4.7812 c -4.2156,-2.4591 -7.895,-3.0312 -13.6563,-3.0312 z m -253,0.1562 c -8.8407,0 -17.9555,9.8018 -18.5312,22.2812 l 4.9375,0 c 0.5301,-9.4337 6.9328,-17.3749 13.5937,-17.375 6.6611,0 13.0637,7.9413 13.5938,17.375 l 4.9062,0 c -0.5779,-12.4794 -9.7272,-22.2812 -18.5,-22.2812 z m -326,0.5625 0,21.7187 18.8126,0 0,-3.125 -13.9063,0 0,-13.6874 18.8437,0 0,-4.9063 -23.75,0 z m 62.9376,0 0,21.7187 18.8437,0 0,-3.125 -13.9063,0 0,-13.6874 18.8126,0 0,-4.9063 -23.75,0 z m 142.375,0 0,21.7187 33.0312,0 0,-21.7187 -4.9375,0 0,18.9687 -23.1875,0 0,-18.9687 -4.9062,0 z m 145.25,0 0,21.7187 4.6874,0 0,-10.125 7.3126,10.125 6.4062,0 -15.4062,-21.7187 -3,0 z m 28.0937,0 0,21.7187 4.9063,0 0,-21.7187 -4.9063,0 z m 12.6563,0 0,21.7187 18.8437,0 0,-3.125 -13.9063,0 0,-13.6874 18.8126,0 0,-4.9063 -23.75,0 z m 31.4062,0 0,21.7187 18.8438,0 0,-3.125 -13.9063,0 0,-13.6874 18.8125,0 0,-4.9063 -23.75,0 z m 67.875,0 0,21.7187 18.8438,0 0,-3.125 -13.9063,0 0,-13.6874 18.8125,0 0,-4.9063 -23.75,0 z m 31.4062,0 0,21.7187 4.7188,0 0,-10.125 7.3125,10.125 6.4063,0 -15.4063,-21.7187 -3.0313,0 z m 28.125,0 0,21.7187 4.9063,0 0,-21.7187 -4.9063,0 z m 50.2813,0 0,21.7187 18.8125,0 0,-3.125 -13.9062,0 0,-13.6874 18.8124,0 0,-4.9063 -23.7187,0 z m -623.25,3.9375 c 4.2155,0 7.75,3.7694 7.75,8.6875 0,4.4263 -3.5345,7.75 -7.75,7.75 -2.3185,0.1405 -6.4625,0.1246 -8.7813,-0.4375 l 0.063,-15.5938 c 0,0 5.4868,-0.4062 8.7187,-0.4062 z m 167.7187,0 c 4.2156,0 7.7188,3.7694 7.7188,8.6875 0,4.4263 -3.5031,7.75 -7.7188,7.75 -2.3185,0.1405 -6.4626,0.1246 -8.7812,-0.4375 l 0.062,-15.5938 c 0,0 5.4869,-0.4062 8.7187,-0.4062 z m 322.9063,0 c 4.2155,0 7.7188,3.7694 7.7187,8.6875 0,4.4263 -3.5032,7.75 -7.7187,7.75 -2.3186,0.1405 -6.4627,0.1246 -8.7813,-0.4375 l 0.063,-15.5938 c 0,0 5.4868,-0.4062 8.7187,-0.4062 z"
       id="path4275" />
    <path
       transform="matrix(0.10201055,0.15676842,-0.15676842,0.10201055,99.212214,266.86345)"
       d="m 3468.5715,2025.2194 a 170,170 0 1 1 -340,0 170,170 0 1 1 340,0 z"
       sodipodi:ry="170"
       sodipodi:rx="170"
       sodipodi:cy="2025.2194"
       sodipodi:cx="3298.5715"
       id="path3065"
       style="fill:#ff0000;fill-opacity:1;stroke:none"
       sodipodi:type="arc" />
    <path
       transform="matrix(0.08699728,0.13369623,-0.13369623,0.08699728,49.740113,335.98215)"
       d="m 3468.5715,2025.2194 a 170,170 0 1 1 -340,0 170,170 0 1 1 340,0 z"
       sodipodi:ry="170"
       sodipodi:rx="170"
       sodipodi:cy="2025.2194"
       sodipodi:cx="3298.5715"
       id="path3067"
       style="fill:#ff0000;fill-opacity:1;stroke:none"
       sodipodi:type="arc" />
    <path
       sodipodi:type="arc"
       style="fill:#ff0000;fill-opacity:1;stroke:none"
       id="path3069"
       sodipodi:cx="3298.5715"
       sodipodi:cy="2025.2194"
       sodipodi:rx="170"
       sodipodi:ry="170"
       d="m 3468.5715,2025.2194 a 170,170 0 1 1 -340,0 170,170 0 1 1 340,0 z"
       transform="matrix(0.07698843,0.11831478,-0.11831478,0.07698843,33.576513,349.24735)" />
    <path
       sodipodi:type="arc"
       style="fill:#ff0000;fill-opacity:1;stroke:none"
       id="path3071"
       sodipodi:cx="3298.5715"
       sodipodi:cy="2025.2194"
       sodipodi:rx="170"
       sodipodi:ry="170"
       d="m 3468.5715,2025.2194 a 170,170 0 1 1 -340,0 170,170 0 1 1 340,0 z"
       transform="matrix(0.06519289,0.10018756,-0.10018756,0.06519289,49.332913,381.69885)" />
    <path
       sodipodi:type="arc"
       style="fill:#ff0000;fill-opacity:1;stroke:none"
       id="path3073"
       sodipodi:cx="3298.5715"
       sodipodi:cy="2025.2194"
       sodipodi:rx="170"
       sodipodi:ry="170"
       d="m 3468.5715,2025.2194 a 170,170 0 1 1 -340,0 170,170 0 1 1 340,0 z"
       transform="matrix(0.05764817,0.08859292,-0.08859292,0.05764817,83.927314,400.47475)" />
    <path
       transform="matrix(0.04363654,0.06706002,-0.06706002,0.04363654,125.29261,484.76215)"
       d="m 3468.5715,2025.2194 a 170,170 0 1 1 -340,0 170,170 0 1 1 340,0 z"
       sodipodi:ry="170"
       sodipodi:rx="170"
       sodipodi:cy="2025.2194"
       sodipodi:cx="3298.5715"
       id="path3075"
       style="fill:#ff0000;fill-opacity:1;stroke:none"
       sodipodi:type="arc" />
    <path
       style="fill:#550000;fill-opacity:1;stroke:none"
       d="m 150.95681,808.42165 c -9.9771,0.308 -20.0224,3.2731 -29.0003,9.1151 -26.117596,16.995 -33.488996,51.958 -16.4941,78.0756 10.8024,16.601 28.8534,25.6193 47.2849,25.6364 l 0,-112.8271 c -0.5981,-6e-4 -1.1919,-0.018 -1.7905,0 z"
       id="path3077" />
    <path
       style="opacity:0.6;fill:url(#radialGradient3081);fill-opacity:1;stroke:none"
       d="m 152.98981,774.41385 0,33.6874 c -0.5772,0 -1.172,-0.017 -1.75,0 -9.9771,0.308 -20.0221,3.2831 -29,9.125 -26.117596,16.995 -33.463596,51.945 -16.4687,78.0626 10.7903,16.5824 28.8086,25.5878 47.2187,25.625 l 0,106.31245 c 41.3006,-0.038 81.7631,-20.2385 105.9687,-57.43745 38.0817,-58.5236 21.5547,-136.8557 -36.9687,-174.9376 -20.1176,-13.0905 -42.6124,-19.7472 -64.9687,-20.4374 -1.3414,-0.04 -2.6911,0 -4.0313,0 z m -19.0937,6 c -2.6194,-0.045 -5.2952,0.6511 -7.6563,2.1874 -6.2962,4.097 -8.0657,12.5476 -3.9687,18.8438 4.0969,6.2962 12.5163,8.0657 18.8124,3.9688 6.2962,-4.097 8.0658,-12.5164 3.9688,-18.8126 -2.5606,-3.935 -6.7907,-6.112 -11.1562,-6.1874 z m -38.687596,10.75 c -3.4604,-0.06 -6.9745,0.8765 -10.0937,2.9062 -8.3178,5.4125 -10.6937,16.5572 -5.2813,24.875 5.4125,8.3178 16.5572,10.6625 24.874996,5.25 8.3179,-5.4125 10.6625,-16.5572 5.25,-24.875 -3.3828,-5.1987 -8.9826,-8.0566 -14.749996,-8.1562 z m 57.843796,16.9374 c 0.8232,0 1.6127,-0.025 2.4375,0 13.9245,0.43 27.9699,4.5655 40.5,12.7188 36.4508,23.7191 46.7189,72.5178 23,108.9688 -15.0764,23.1691 -40.2448,35.7573 -65.9687,35.7812 l 0,-44.6562 c 0.01,0 0.021,-10e-5 0.031,0 l 0,-112.8126 z m -90.999996,15.4688 c -3.9133,-0.068 -7.878801,0.9859 -11.406201,3.2812 -9.4065,6.1209 -12.0897,18.7186 -5.9688,28.125 6.1209,9.4065 18.718501,12.0584 28.125001,5.9376 9.4065,-6.1209 12.0584,-18.7186 5.9375,-28.125 -3.8255,-5.8791 -10.1653,-9.1061 -16.6875,-9.2188 z m -13.500001,47.5312 c -4.6213,-0.08 -9.3031,1.1957 -13.4688,3.9063 -11.1083,7.2283 -14.2595,22.0791 -7.0312,33.1875 7.2283,11.1084 22.0791,14.2596 33.187501,7.0312 11.1084,-7.2283 14.2596,-22.1103 7.0313,-33.2187 -4.5178,-6.9427 -12.0166,-10.7731 -19.718801,-10.9063 z m 18.062501,54.625 c -5.2221,-0.09 -10.5116,1.3433 -15.218701,4.4063 -12.5526,8.168 -16.1056,24.9475 -7.9376,37.5 8.1681,12.55254 24.978801,16.10554 37.531301,7.93754 12.5525,-8.16804 16.1055,-24.94754 7.9375,-37.50004 -5.105,-7.8453 -13.6089,-12.1933 -22.3125,-12.3438 z m 50.812496,32.7188 c -5.6227,0.1736 -11.2529,1.8639 -16.3125,5.1562 -14.718696,9.57774 -18.890096,29.28138 -9.312496,44.00005 9.577596,14.7188 29.281296,18.8589 43.999996,9.2813 14.7187,-9.5776 18.8901,-29.25001 9.3125,-43.96871 -6.2853,-9.65924 -16.9533,-14.80034 -27.6875,-14.46884 z"
       id="path3079" />
    <path
       id="path3083"
       d="m 152.72091,774.75325 0,33.6874 c -0.5771,0 -1.1719,-0.017 -1.75,0 -9.9771,0.308 -20.0221,3.2832 -29,9.125 -26.117496,16.995 -33.463596,51.945 -16.4687,78.0626 10.7903,16.5824 28.8087,25.5877 47.2187,25.625 l 0,53.93744 c 54.6551,-0.4385 102.1132,-31.10864 126.4376,-76.12504 -0.6982,-40.5728 -20.8698,-80.0799 -57.4376,-103.875 -20.1175,-13.0905 -42.6124,-19.7473 -64.9687,-20.4374 -1.3414,-0.04 -2.691,0 -4.0313,0 z m -19.0937,6 c -2.6194,-0.045 -5.2951,0.6512 -7.6563,2.1874 -6.2961,4.097 -8.0657,12.5476 -3.9687,18.8438 4.0969,6.2962 12.5164,8.0657 18.8125,3.9688 6.2962,-4.097 8.0658,-12.5163 3.9688,-18.8126 -2.5606,-3.9349 -6.7908,-6.1121 -11.1563,-6.1874 z m -38.687496,10.75 c -3.4604,-0.06 -6.9745,0.8765 -10.0938,2.9062 -8.3177,5.4125 -10.6936,16.5572 -5.2812,24.875 5.4125,8.3178 16.5572,10.6625 24.874996,5.25 8.3179,-5.4125 10.6625,-16.5572 5.25,-24.875 -3.3828,-5.1987 -8.9826,-8.0566 -14.749996,-8.1562 z m 57.843796,16.9374 c 0.8231,0 1.6126,-0.025 2.4374,0 13.9246,0.4301 27.97,4.5655 40.5,12.7188 36.4508,23.7191 46.7189,72.5177 23,108.9688 -15.0763,23.1691 -40.2448,35.7573 -65.9687,35.7812 l 0,-44.6562 c 0.01,0 0.021,-10e-5 0.031,0 l 0,-112.8126 z m -90.999996,15.4688 c -3.9134,-0.068 -7.878901,0.986 -11.406301,3.2812 -9.4065,6.1209 -12.0897,18.7187 -5.9687,28.125 6.1208,9.4066 18.718401,12.0584 28.125001,5.9376 9.4065,-6.1209 12.0583,-18.7186 5.9374,-28.125 -3.8254,-5.8792 -10.1653,-9.1061 -16.6874,-9.2188 z m -13.500001,47.5312 c -4.6213,-0.08 -9.3031,1.1957 -13.4688,3.9063 -8.3312,5.4212 -12.205,15.1418 -10.5625,24.3437 2.884,5.275 6.0988,10.3676 9.5937,15.2188 7.8024,5.6328 18.5735,6.2209 27.125001,0.6562 11.1085,-7.2282 14.2596,-22.1103 7.0313,-33.2187 -4.5178,-6.9427 -12.0165,-10.773 -19.718701,-10.9063 z m 18.062401,54.625 c -5.222,-0.09 -10.5116,1.3433 -15.218701,4.4063 -0.8878,0.5777 -1.7345,1.1845 -2.5313,1.8437 12.285401,12.3904 26.793701,22.5751 42.875001,29.9063 2.7041,-7.6688 1.9682,-16.4657 -2.8124,-23.8125 -5.105,-7.8453 -13.609,-12.1933 -22.3126,-12.3438 z m 50.812596,32.7188 c -5.6227,0.1736 -11.2529,1.8639 -16.3126,5.1562 -0.6836,0.4449 -1.330896,0.9192 -1.968696,1.4063 14.677896,5.7252 30.511696,9.12274 47.062496,9.75004 -0.347,-0.6197 -0.7007,-1.2397 -1.0938,-1.8437 -6.2852,-9.65934 -16.9533,-14.80034 -27.6874,-14.46884 z"
       style="fill:url(#linearGradient3085);fill-opacity:1;stroke:none" />
    <path
       id="path3087"
       d="m 150.81111,808.40195 c -9.9772,0.3079 -20.0222,3.2517 -29,9.0937 -13.0774,8.5096 -21.4342,21.5344 -24.406296,35.6875 11.414496,15.6661 31.745396,26.4073 55.218696,27.4062 l 0,-72.1874 c -0.5981,-7e-4 -1.2139,-0.018 -1.8124,0 z"
       style="fill:url(#linearGradient3089);fill-opacity:1;stroke:none" />
  </g>
</svg>
