<svg xmlns="http://www.w3.org/2000/svg" width="2000" height="1300" viewBox="0 0 2000 1300"><g transform="translate(-2232 16362.5)"><rect width="2000" height="1300" rx="80" transform="translate(2232 -16362.5)" fill="#fff"/><g transform="translate(2640.9 -16242.217)"><g transform="translate(-301.9 -0.283)"><g transform="translate(1091 460)"><path d="M60.434.658a3,3,0,1,1,3.749,4.685l-.354.294-.231.2q-.662.569-1.511,1.346l-.287.265c-1.966,1.823-4.166,4.034-6.541,6.638A166.319,166.319,0,0,0,35.241,41.425c-12.454,21.03-21.633,45.751-26.156,74.3-5.595,35.309-3.75,74.715,6.938,118.363a3,3,0,1,1-5.828,1.427C-.681,191.1-2.563,150.892,3.158,114.784,7.8,85.469,17.247,60.034,30.078,38.368A172.291,172.291,0,0,1,50.827,10.039C53.138,7.5,55.3,5.315,57.27,3.466l.451-.421C58.991,1.867,59.915,1.073,60.434.658Z" transform="translate(133.891 53.8)" fill="#2e186a"/><path d="M3.148,152.2a9.14,9.14,0,0,1-3.1-7.9c6.3-58,32.5-117.7,73.3-139.6,41.9-22.5,70.5,40,12.4,98-43.7,43.7-67.1,50.8-76,51.7a8.859,8.859,0,0,1-6.6-2.2Z" transform="translate(160.352 96.3)" fill="#feba91"/><path d="M3.258.011C20.46,1.493,34.042,10.922,44.35,25.58a92.378,92.378,0,0,1,9.545,17.406c.774,1.846,1.432,3.578,1.982,5.162l.2.587c.358,1.059.593,1.83.713,2.264a3,3,0,0,1-5.73,1.77l-.193-.643-.168-.539q-.137-.429-.307-.932c-.544-1.609-1.219-3.409-2.033-5.35a86.453,86.453,0,0,0-8.919-16.274C30.07,15.7,17.965,7.3,2.743,5.989A3,3,0,0,1,3.082,0Z" transform="translate(68.3 235.1)" fill="#2e186a"/><path d="M107.821.877a3,3,0,0,1,.138,4.1l-.224.233L106.559,6.4l-1.1,1.126q-.767.791-1.63,1.69l-.885.925c-3.9,4.08-8.242,8.75-12.921,13.933C76.654,38.889,63.282,54.837,50.807,71.306c-14.851,19.606-27.416,38.634-36.96,56.568q-4.543,8.536-8.1,16.631a3,3,0,0,1-5.495-2.41q3.642-8.3,8.3-17.04c9.71-18.246,22.444-37.53,37.474-57.372C58.612,51.066,72.092,34.988,85.572,20.057l1.651-1.823c3.82-4.2,7.4-8.051,10.686-11.5l2.026-2.117q1.062-1.1,1.975-2.04l1.667-1.7A3,3,0,0,1,107.821.877Z" transform="translate(161.999 103.1)" fill="#2e186a"/><path d="M58.214.179,59.241.127c2-.093,3.714-.129,5.1-.127L65.7.018a3,3,0,0,1-.022,6l-.467-.007c-1.588-.027-3.843.01-6.675.162-4.251.228-8.9.676-13.849,1.393A157.013,157.013,0,0,0,4.2,18.964a3,3,0,1,1-2.408-5.5A162.95,162.95,0,0,1,43.827,1.625C48.963.881,53.789.416,58.214.179Z" transform="translate(189.099 182.884)" fill="#2e186a"/><path d="M38.6.381a3,3,0,0,1,1.159,4.081l-.7,1.272q-.342.627-.747,1.379L37.34,8.936c-.894,1.678-1.853,3.507-2.865,5.469-3.978,7.709-7.955,15.88-11.665,24.147-2.935,6.54-5.58,12.875-7.865,18.906l-.576,1.534C8.321,75.259,5.32,88.328,6.13,96.816a3,3,0,0,1-5.973.57C-.791,87.456,2.6,73.121,9.333,55.334c2.33-6.151,5.021-12.594,8-19.237,3.758-8.375,7.783-16.642,11.807-24.442l1.13-2.177q1.29-2.472,2.439-4.61L33.8,2.86l.726-1.321A3,3,0,0,1,38.6.381Z" transform="translate(182.357 110.399)" fill="#2e186a"/><path d="M36.9.429C41.1.075,44.748-.03,47.557.007l.952.02a3,3,0,0,1-.042,6l-.589-.012a104.4,104.4,0,0,0-10.478.4A99.657,99.657,0,0,0,18.991,9.6a56.078,56.078,0,0,0-14.41,6.074,3,3,0,1,1-3.162-5.1A61.938,61.938,0,0,1,17.372,3.824,105.53,105.53,0,0,1,36.9.429Z" transform="translate(169.5 218.775)" fill="#2e186a"/><path d="M111.106,194.926a9,9,0,0,1-9.5,1c-54.7-30.1-100.9-86.3-101.6-146.9-.8-62.3,76.6-75.4,104.5,21.2,21,72.7,16,105.4,12.2,117.1a16.5,16.5,0,0,1-5.6,7.6Z" transform="translate(0.594 0.574)" fill="#feba91"/><path d="M.362,1.574A3,3,0,0,1,4.427.362c25.666,13.875,46.38,46.191,62.9,91.38A523.829,523.829,0,0,1,86.47,158.629l.573,2.637c1.313,6.1,2.451,11.85,3.42,17.151l.405,2.245c.415,2.331.766,4.4,1.054,6.188l.346,2.215a3,3,0,1,1-5.936.872l-.276-1.772-.235-1.445q-.324-1.961-.74-4.323l-.121-.682c-1.171-6.574-2.617-13.9-4.352-21.8A517.977,517.977,0,0,0,61.7,93.8C45.634,49.876,25.607,18.632,1.574,5.64A3,3,0,0,1,.362,1.574Z" transform="translate(18.899 7.799)" fill="#2e186a"/><path d="M.265,1.77A3,3,0,0,1,4.232.265C16.483,5.778,30.482,12.636,44.084,20.2l1.753.981c19.146,10.771,33.88,21.044,42.384,30.4a3,3,0,1,1-4.44,4.036c-8.206-9.027-23.145-19.339-42.614-30.171C27.733,17.973,13.878,11.185,1.77,5.737A3,3,0,0,1,.265,1.77Z" transform="translate(0.699 55.899)" fill="#2e186a"/><path d="M7.621.013a3,3,0,0,1,3.266,2.708,335.381,335.381,0,0,1,1.649,39.2l-.044,1.454c-.518,15.128-2.675,26.022-7.1,31.845A3,3,0,1,1,.612,71.584c6.656-8.75,7.374-35.417,4.3-68.3A3,3,0,0,1,7.621.013Z" transform="translate(93.9 67)" fill="#2e186a"/><path d="M.669,1.112A3,3,0,0,1,4.888.669c6.94,5.621,17.2,11.575,29.856,17.624,8.882,4.243,18.412,8.282,27.944,11.978l1.648.636c2.17.832,4.228,1.6,6.15,2.307l2.6.943,2.283.8A3,3,0,0,1,73.6,40.69l-.531-.178-1.259-.443-1.126-.4-2.256-.819c-2.437-.893-5.087-1.891-7.9-2.983-9.663-3.747-19.328-7.843-28.361-12.159l-1.725-.831C18.171,16.925,8.162,11.042,1.112,5.331A3,3,0,0,1,.669,1.112Z" transform="translate(25.5 125.8)" fill="#2e186a"/><ellipse cx="15.4" cy="5" rx="15.4" ry="5" transform="translate(65.424 236.432) rotate(-82.276)" fill="#fe7624"/><ellipse cx="4.6" cy="14" rx="4.6" ry="14" transform="translate(45.911 222.804) rotate(-50.478)" fill="#fe7624"/><ellipse cx="15.2" cy="5.1" rx="15.2" ry="5.1" transform="translate(68.125 232.167) rotate(-27.659)" fill="#fe7624"/><ellipse cx="14" cy="4.6" rx="14" ry="4.6" transform="translate(43.691 246.434) rotate(-28.738)" fill="#fe7624"/><ellipse cx="4.6" cy="14.1" rx="4.6" ry="14.1" transform="matrix(0.91, -0.415, 0.415, 0.91, 66.315, 238.938)" fill="#fe7624"/><g transform="translate(159 21)"><ellipse cx="20.401" cy="9.9" rx="20.401" ry="9.9" transform="matrix(0.497, -0.868, 0.868, 0.497, 21.714, 35.846)" fill="#fe7624"/><ellipse cx="20.2" cy="10" rx="20.2" ry="10" transform="translate(28.809 30.615) rotate(-1.163)" fill="#fe7624"/><ellipse cx="8.9" cy="18.2" rx="8.9" ry="18.2" transform="translate(0.053 17.09) rotate(-36.62)" fill="#fe7624"/><ellipse cx="18.201" cy="8.8" rx="18.201" ry="8.8" transform="matrix(0.407, -0.913, 0.913, 0.407, 12.691, 66.339)" fill="#fe7624"/><ellipse cx="16.299" cy="8.1" rx="16.299" ry="8.1" transform="translate(4.079 34.259) rotate(-6.154)" fill="#fe7624"/></g><path d="M191.922,19l-37,167.6H37.422L.422,19c-2.1-9.6,3.9-19,12.1-19h167.4C188.122.1,194.122,9.5,191.922,19Z" transform="translate(36.978 277.8)" fill="#fff"/><path d="M157.92,192.6H40.421a3,3,0,0,1-2.93-2.354L.49,22.641a21.164,21.164,0,0,1,.045-9.228A19.355,19.355,0,0,1,4.241,5.661,14.374,14.374,0,0,1,15.521,0H182.957a14.553,14.553,0,0,1,11.348,5.875,20.031,20.031,0,0,1,3.544,16.772l-37,167.6a3,3,0,0,1-2.93,2.354ZM15.521,6A8.55,8.55,0,0,0,8.886,9.465,13.208,13.208,0,0,0,6.364,14.8a15.135,15.135,0,0,0-.013,6.552L42.831,186.6H155.509L192.064,21.022a14.007,14.007,0,0,0-2.424-11.364,8.8,8.8,0,0,0-6.521-3.651l-.2-.006Z" transform="translate(33.979 274.8)" fill="#2e186a"/></g><g transform="translate(707)"><path d="M22.7,562.5h0V417.6l29,2L75.5,311.3a36.875,36.875,0,0,0,6.467-5.2,58.45,58.45,0,0,0,6.163-7.069,68,68,0,0,0,6.408-10.559,88.942,88.942,0,0,0,8.427-33.116,132.534,132.534,0,0,0-.543-23.321A188.213,188.213,0,0,0,97,203.7c-4.038-15.118-5.922-32.075-5.6-50.4L0,188l12-31.6c6.465-16.952,13.3-32.968,20.3-47.6A395.529,395.529,0,0,1,60.212,59.138C84.8,22.6,110.33,2.875,136.1.5L188,0l1.3,17.4,123.1,9.5.7-3c5.407,1.4,25.428,5.588,44.3,9.5a56.678,56.678,0,0,1,44.5,47L327.1,312.1l4.8,249.8ZM327.1,218.3h0v1.2h.1Z" transform="translate(0.3 366.8)" fill="#fe7624"/><path d="M307.7,0,2.8,2.9,0,123.5H309.1Z" transform="translate(23.1 805.8)" fill="#2e186a"/><path d="M18.609,1.676a3,3,0,0,1,5.46,2.482l-.076.166-18.3,37.2a3,3,0,0,1-5.46-2.482l.076-.166Z" transform="translate(103.599 447.999)" fill="#2e186a"/><g transform="translate(136)"><path d="M30.964.151a3,3,0,0,1,3.787,1.914c2.572,7.826,2.515,17.681-.267,27.365C29.1,48.179,15.085,61,2.254,57.706A3,3,0,1,1,3.747,51.9c8.989,2.309,20.367-8.1,24.97-24.123,2.462-8.573,2.512-17.2.333-23.835A3,3,0,0,1,30.964.151Z" transform="translate(165.799 312.299)" fill="#fe7624"/><path d="M30.964.151a3,3,0,0,1,3.787,1.914c2.572,7.826,2.515,17.681-.267,27.365C29.1,48.179,15.085,61,2.254,57.706A3,3,0,1,1,3.747,51.9c8.989,2.309,20.367-8.1,24.97-24.123,2.462-8.573,2.512-17.2.333-23.835A3,3,0,0,1,30.964.151Z" transform="translate(13.799 287.199)" fill="#fe7624"/><path d="M13.526,185.917c-21.3-20.4-25.1-113.4,46.5-166.2,72.5-53.4,118.1,16.6,127.9,34.8s12.9,65-48.5,101S37.826,209.117,13.526,185.917Z" transform="translate(191.074 0.283)" fill="#2e186a"/><path d="M6.41,54.675l1.3,1.1c8,6.8,20.4,5.9,27.6-1.9l20.3-21.8a18.065,18.065,0,0,0-1.3-26.4l-1.3-1.1c-8-6.8-20.4-5.9-27.6,1.9l-20.3,21.8C-2.19,36.175-1.59,47.975,6.41,54.675Z" transform="translate(158.89 167.325)" fill="#fe7624"/><ellipse cx="66.697" cy="40.498" rx="66.697" ry="40.498" transform="translate(21.338 238.778) rotate(-43.918)" fill="#2e186a"/><path d="M16.573,82.322c21.2,29.6,49.7,43.8,73.8,43.2,25.6-.6,44.2-56,23-85.6s-79-49-99-35.6C-5.627,17.822-4.627,52.722,16.573,82.322Z" transform="translate(96.327 167.678)" fill="#2e186a"/><ellipse cx="21.9" cy="20.8" rx="21.9" ry="20.8" transform="translate(160.601 279.806) rotate(-18.138)" fill="#fff"/><path d="M24.9,47.6a25.737,25.737,0,0,1-9.678-1.865,24.927,24.927,0,0,1-7.916-5.092,23.674,23.674,0,0,1-5.344-7.563,22.928,22.928,0,0,1,0-18.558A23.674,23.674,0,0,1,7.306,6.957a24.927,24.927,0,0,1,7.916-5.092,26.039,26.039,0,0,1,19.356,0,24.927,24.927,0,0,1,7.916,5.092,23.674,23.674,0,0,1,5.344,7.563,22.928,22.928,0,0,1,0,18.558,23.674,23.674,0,0,1-5.344,7.563,24.927,24.927,0,0,1-7.916,5.092A25.739,25.739,0,0,1,24.9,47.6ZM24.9,6a19.368,19.368,0,0,0-13.376,5.227,17.739,17.739,0,0,0-4.042,5.659,16.882,16.882,0,0,0,0,13.827,17.74,17.74,0,0,0,4.042,5.66A19.367,19.367,0,0,0,24.9,41.6a19.368,19.368,0,0,0,13.377-5.227,17.74,17.74,0,0,0,4.042-5.66,16.882,16.882,0,0,0,0-13.827,17.739,17.739,0,0,0-4.042-5.659A19.369,19.369,0,0,0,24.9,6Z" transform="translate(156.816 277.888) rotate(-18.138)" fill="#2e186a"/><ellipse cx="21.9" cy="20.8" rx="21.9" ry="20.8" transform="translate(12.285 253.503) rotate(-18.138)" fill="#fff"/><path d="M24.9,47.6a25.737,25.737,0,0,1-9.678-1.865,24.927,24.927,0,0,1-7.916-5.092,23.674,23.674,0,0,1-5.344-7.563,22.928,22.928,0,0,1,0-18.558A23.674,23.674,0,0,1,7.306,6.957a24.927,24.927,0,0,1,7.916-5.092,26.039,26.039,0,0,1,19.356,0,24.927,24.927,0,0,1,7.916,5.092,23.674,23.674,0,0,1,5.344,7.563,22.928,22.928,0,0,1,0,18.558,23.674,23.674,0,0,1-5.344,7.563,24.927,24.927,0,0,1-7.916,5.092A25.739,25.739,0,0,1,24.9,47.6ZM24.9,6a19.368,19.368,0,0,0-13.376,5.227,17.739,17.739,0,0,0-4.042,5.659,16.882,16.882,0,0,0,0,13.827,17.74,17.74,0,0,0,4.042,5.66A19.367,19.367,0,0,0,24.9,41.6a19.368,19.368,0,0,0,13.377-5.227,17.74,17.74,0,0,0,4.042-5.66,16.882,16.882,0,0,0,0-13.827,17.739,17.739,0,0,0-4.042-5.659A19.369,19.369,0,0,0,24.9,6Z" transform="translate(8.5 251.586) rotate(-18.138)" fill="#2e186a"/><path d="M41.875,37.6l-9.8,29.6-26.6-1.7c-2.6,3.7-24.5,73.8,42.5,83.6,44,6.5,74.7-25.7,96-57l-36.6-7.9L131.575,0Z" transform="translate(43.925 304)" fill="#fff"/><path d="M62.325,155.955h0a80.92,80.92,0,0,1-11.779-.88,76.792,76.792,0,0,1-20.331-5.68,51.563,51.563,0,0,1-14.92-9.973C7.3,131.64,2.37,121.208.656,108.418A78.588,78.588,0,0,1,.07,94.843,94.167,94.167,0,0,1,1.654,81.194c1.191-6.288,3.111-12.618,4.371-14.412A3,3,0,0,1,8.48,65.507c.064,0,.128,0,.192.006L32.96,67.064l9.072-27.4a2.981,2.981,0,0,1,1.507-1.741l.182-.084,89.7-37.6a2.974,2.974,0,0,1,3.566.973,2.961,2.961,0,0,1,.477,2.622L114.149,84.951l33.464,7.223a3,3,0,0,1,1.945,4.468l-.1.152a216.7,216.7,0,0,1-19.47,24.93,129.007,129.007,0,0,1-20.771,18.511A89.366,89.366,0,0,1,86.593,151.94,75.409,75.409,0,0,1,62.325,155.955Zm-52-84.326-.181.52a81.752,81.752,0,0,0-2.525,9.8l-.069.36A88.218,88.218,0,0,0,6.068,95.042,72.591,72.591,0,0,0,6.6,107.62a53.211,53.211,0,0,0,4.32,15.365A40.907,40.907,0,0,0,19.6,135.244a45.75,45.75,0,0,0,13.384,8.826,71.254,71.254,0,0,0,18.429,5.069,74.851,74.851,0,0,0,10.9.815,69.124,69.124,0,0,0,22.436-3.725,83.39,83.39,0,0,0,21.015-10.9,121.27,121.27,0,0,0,18.549-16.316,197.93,197.93,0,0,0,17.571-21.82l.071-.1-32.21-6.951a3,3,0,0,1-2.295-3.589l.045-.173,22.47-78.186L47.3,42.845l-9.37,28.3a3,3,0,0,1-2.848,2.057h-.006l-.185-.006L10.325,71.629Z" transform="translate(40.92 300.993)" fill="#2e186a"/><ellipse cx="88.998" cy="69.199" rx="88.998" ry="69.199" transform="translate(20.363 338.806) rotate(-72.235)" fill="#fff"/><path d="M92,144.4a113.613,113.613,0,0,1-35.75-5.647,102.271,102.271,0,0,1-15.625-6.633A91.579,91.579,0,0,1,27,123.321a79.9,79.9,0,0,1-11.25-10.673,69.062,69.062,0,0,1-8.5-12.267A61.126,61.126,0,0,1,1.875,86.8a57.821,57.821,0,0,1,0-29.21A61.127,61.127,0,0,1,7.25,44.016a69.064,69.064,0,0,1,8.5-12.267A79.9,79.9,0,0,1,27,21.076a91.581,91.581,0,0,1,13.625-8.8A102.272,102.272,0,0,1,56.248,5.647a115.984,115.984,0,0,1,71.5,0,102.272,102.272,0,0,1,15.625,6.633A91.581,91.581,0,0,1,157,21.076a79.9,79.9,0,0,1,11.25,10.673,69.064,69.064,0,0,1,8.5,12.267,61.126,61.126,0,0,1,5.375,13.578,57.82,57.82,0,0,1,0,29.21,61.126,61.126,0,0,1-5.375,13.578,69.061,69.061,0,0,1-8.5,12.267A79.9,79.9,0,0,1,157,123.321a91.579,91.579,0,0,1-13.625,8.795,102.271,102.271,0,0,1-15.625,6.633A113.613,113.613,0,0,1,92,144.4ZM92,6a107.762,107.762,0,0,0-33.534,5.229,96.348,96.348,0,0,0-14.61,6.127,85.809,85.809,0,0,0-12.718,8.1A74.286,74.286,0,0,0,20.65,35.269a63.52,63.52,0,0,0-7.911,11.241,55.441,55.441,0,0,0-5,12.4,51.564,51.564,0,0,0,0,26.575,55.44,55.44,0,0,0,5,12.4,63.522,63.522,0,0,0,7.911,11.241,74.289,74.289,0,0,0,10.485,9.809,85.806,85.806,0,0,0,12.718,8.1,96.345,96.345,0,0,0,14.61,6.127,110.149,110.149,0,0,0,67.069,0,96.348,96.348,0,0,0,14.611-6.127,85.807,85.807,0,0,0,12.718-8.1,74.29,74.29,0,0,0,10.485-9.809,63.524,63.524,0,0,0,7.911-11.241,55.44,55.44,0,0,0,5-12.4,51.564,51.564,0,0,0,0-26.575,55.44,55.44,0,0,0-5-12.4,63.521,63.521,0,0,0-7.911-11.241,74.289,74.289,0,0,0-10.485-9.809,85.806,85.806,0,0,0-12.718-8.1,96.35,96.35,0,0,0-14.611-6.127A107.765,107.765,0,0,0,92,6Z" transform="translate(16.591 340.748) rotate(-72.235)" fill="#2e186a"/><g transform="translate(72 231)"><path d="M14.361,1.87a3,3,0,0,1,5.619,2.1l-.062.165L6.33,37.519l11.888,1.92A3,3,0,0,1,20.725,42.7l-.023.175a3,3,0,0,1-3.265,2.506l-.175-.023-12.978-2.1a5.132,5.132,0,0,1-3.995-6.8l.072-.2Z" transform="translate(14.76 21.899)" fill="#2e186a"/><path d="M1.3,3.005C8.171-1.7,15.351-.526,21.82,4.073a28.378,28.378,0,0,1,3.213,2.663c.58.557,1,1.006,1.245,1.292a3,3,0,0,1-4.428,4.045l-.307-.339c-.155-.166-.38-.4-.668-.673a22.421,22.421,0,0,0-2.532-2.1C13.711,5.67,9.125,4.92,4.7,7.955A3,3,0,1,1,1.3,3.005Z" transform="translate(52 2.92)" fill="#2e186a"/><path d="M11.048.257a23.314,23.314,0,0,1,11.309,1.2,25.046,25.046,0,0,1,3.553,1.48A3,3,0,0,1,23.255,8.31L22.9,8.133c-.087-.042-.2-.094-.329-.154l-.139-.063c-.593-.265-1.267-.532-2-.783a17.6,17.6,0,0,0-8.393-.959A9.623,9.623,0,0,0,5.46,10.4,3,3,0,0,1,.54,6.963,15.6,15.6,0,0,1,11.048.257Z" transform="translate(-0.9 -2.78)" fill="#2e186a"/><ellipse cx="7.9" cy="5.3" rx="7.9" ry="5.3" transform="translate(50.033 47.294) rotate(-84.511)" fill="#2e186a"/><ellipse cx="7.9" cy="5.3" rx="7.9" ry="5.3" transform="translate(0.304 42.163) rotate(-78.504)" fill="#2e186a"/></g><path d="M143.866,36.964s-27.6,11.4-25.9,28.9l-117.7-7.7s-12.2-89.3,128.5-46.6Z" transform="translate(23.334 159.436)" fill="#2e186a"/><path d="M1.011,0s-9.3,58.5,28.5,74.5l.7-51.8Z" transform="translate(157.989 200.3)" fill="#2e186a"/><path d="M2.159,28.8C7.662,9.808,22.025-3.119,34.885.656A3,3,0,0,1,33.2,6.413C24.255,3.789,12.618,14.262,7.922,30.47c-4.64,16.014-.5,30.931,8.272,33.7l.133.04.244.061.121.036.037.008a3,3,0,0,1,2.307,2.744l.005.176a3,3,0,0,1-3,3,3.147,3.147,0,0,1-.88-.121l-.187-.056-.154-.038C2.066,66.393-3.23,48.133,2,29.369Z" transform="translate(0.76 274.765)" fill="#fe7624"/><path d="M2.159,28.8C7.662,9.808,22.025-3.119,34.885.656A3,3,0,0,1,33.2,6.413C24.255,3.789,12.618,14.262,7.922,30.47c-4.64,16.014-.5,30.931,8.272,33.7l.133.04.244.061.121.036.037.008a3,3,0,0,1,2.307,2.744l.005.176a3,3,0,0,1-3,3,3.147,3.147,0,0,1-.88-.121l-.187-.056-.154-.038C2.066,66.393-3.23,48.133,2,29.369Z" transform="translate(152.76 299.865)" fill="#fe7624"/><path d="M34.333,2.119a3,3,0,1,1,5.735,1.765c-2.915,9.473-9.441,15.36-18.3,18.19A44.274,44.274,0,0,1,4.3,23.776L3.546,23.7c-.449-.051-.8-.1-1.032-.138a3,3,0,0,1,.8-5.944l.613.085c.241.03.554.065.932.1a38.523,38.523,0,0,0,15.087-1.445C27.036,14.092,32.037,9.58,34.333,2.119Z" transform="translate(95.6 300.099)" fill="#2e186a"/></g></g><g transform="translate(301 478)"><path d="M31.8,1,0,117.6H191.1L160.1,0Z" transform="translate(297.7 331.6)" fill="#5d21d1"/><path d="M492.2,336H9.6A9.6,9.6,0,0,1,0,326.4L2.7,15.1C2.7,9.8,4.3,0,9.5,0H492.2a9.6,9.6,0,0,1,9.6,9.6V326.4A9.733,9.733,0,0,1,492.2,336Z" transform="translate(150.8 0.9)" fill="#5d21d1"/><path d="M359.6,256.8H11a10.968,10.968,0,0,1-11-11V11A10.968,10.968,0,0,1,11,0H359.6a10.968,10.968,0,0,1,11,11V245.9A11.012,11.012,0,0,1,359.6,256.8Z" transform="translate(206 32.3)" fill="#fff"/><path d="M233.6,166.1H9.2A9.176,9.176,0,0,1,0,156.9V9.2A9.176,9.176,0,0,1,9.2,0H233.7a9.176,9.176,0,0,1,9.2,9.2V156.8A9.347,9.347,0,0,1,233.6,166.1Z" transform="translate(269.1 109.6)" fill="#2e186a"/><path d="M26.1,52.2A26.107,26.107,0,0,1,15.941,2.051a26.107,26.107,0,0,1,20.318,48.1A25.936,25.936,0,0,1,26.1,52.2ZM26.1,6a20.037,20.037,0,1,0,7.824,1.58A19.973,19.973,0,0,0,26.1,6Z" transform="translate(364.5 362.2)" fill="#fff"/><path d="M2.316.08A3,3,0,0,1,5.876,2.145l.045.17,25.5,108.7a3,3,0,0,1-5.8,1.541l-.045-.17L.08,3.686A3,3,0,0,1,2.316.08Z" transform="translate(438.699 334.299)" fill="#fff"/><path d="M420.2,292.4H14a13.969,13.969,0,0,1-14-14V14A13.969,13.969,0,0,1,14,0H420.2a13.968,13.968,0,0,1,14,14V278.4a13.968,13.968,0,0,1-14,14ZM14,6a7.968,7.968,0,0,0-8,8V278.4a7.968,7.968,0,0,0,8,8H420.2a7.968,7.968,0,0,0,8-8V14a7.968,7.968,0,0,0-8-8Z" transform="translate(174.2 19)" fill="#fff"/><path d="M3,0A3,3,0,0,1,5.995,2.824L6,3V333.3a3,3,0,0,1-5.995.176L0,333.3V3A3,3,0,0,1,3,0Z" transform="translate(626.5 0.6)" fill="#fff"/><g transform="translate(125 18)"><path d="M413.4,21.1H0L55.2,1.8A31.9,31.9,0,0,1,65.8,0H472.1Z" transform="translate(0.2 3.6)" fill="#fe7624"/><path d="M416.4,27.1H3a3,3,0,0,1-.99-5.832L57.2,1.971A34.752,34.752,0,0,1,68.8,0H475.1a2.927,2.927,0,0,1,2.955,2.485,2.927,2.927,0,0,1-1.94,3.338l-58.7,21.1A3,3,0,0,1,416.4,27.1ZM68.8,6a28.8,28.8,0,0,0-9.61,1.632L20.67,21.1H415.878L457.886,6Z" transform="translate(-2.803 0.6)" fill="#2e186a"/><g transform="translate(0 21)"><path d="M42.3,0H.1S0,29.6,0,30C0,41,9.5,49.9,21.2,49.9S42.4,41,42.4,30C42.4,29.2,42.3,0,42.3,0Z" transform="translate(0.1 3.6)" fill="#fe7624"/><path d="M24.2,55.9a25.24,25.24,0,0,1-9.4-1.793,24.259,24.259,0,0,1-7.694-4.9,22.773,22.773,0,0,1-5.2-7.277A21.716,21.716,0,0,1,0,33L.105,2.814A3,3,0,0,1,3.1,0H45.3a3.007,3.007,0,0,1,3,2.99l.1,30.39a21.716,21.716,0,0,1-2.016,8.8,22.818,22.818,0,0,1-5.216,7.154,24.28,24.28,0,0,1-7.649,4.807A25.249,25.249,0,0,1,24.2,55.9ZM6.089,6,6,33a15.755,15.755,0,0,0,1.425,6.561,16.852,16.852,0,0,0,3.891,5.374A18.8,18.8,0,0,0,24.2,49.9a18.8,18.8,0,0,0,12.884-4.965,16.852,16.852,0,0,0,3.891-5.374A15.755,15.755,0,0,0,42.4,33L42.31,6Z" transform="translate(-2.9 0.6)" fill="#2e186a"/><path d="M42.3,0H.1S0,29.6,0,30C0,41,9.5,49.9,21.2,49.9S42.4,41,42.4,30C42.5,29.2,42.3,0,42.3,0Z" transform="translate(41.3 3.6)" fill="#fff"/><path d="M24.2,55.9a25.24,25.24,0,0,1-9.4-1.793,24.259,24.259,0,0,1-7.694-4.9,22.773,22.773,0,0,1-5.2-7.277A21.716,21.716,0,0,1,0,33L.105,2.814A3,3,0,0,1,3.1,0H45.3a3.009,3.009,0,0,1,3,2.98l.089,15.014c.034,6.786.052,11.759.029,13.972l-.032,1.785a22.22,22.22,0,0,1-7.219,15.581A24.8,24.8,0,0,1,24.6,55.9ZM6.089,6h0L6,33a15.755,15.755,0,0,0,1.425,6.561,16.852,16.852,0,0,0,3.891,5.374A18.8,18.8,0,0,0,24.2,49.9a18.8,18.8,0,0,0,12.884-4.965,16.852,16.852,0,0,0,3.891-5.374A15.755,15.755,0,0,0,42.4,33a3.04,3.04,0,0,1,.023-.373c.01-.082.009-2.9,0-6.689L42.319,6H6.089Z" transform="translate(38.3 0.6)" fill="#2e186a"/><path d="M42.3,0H.1S0,29.6,0,30C0,41,9.5,49.9,21.2,49.9S42.4,41,42.4,30C42.4,29.2,42.3,0,42.3,0Z" transform="translate(82.6 3.6)" fill="#fe7624"/><path d="M24.2,55.9a25.24,25.24,0,0,1-9.4-1.793,24.259,24.259,0,0,1-7.694-4.9,22.773,22.773,0,0,1-5.2-7.277A21.716,21.716,0,0,1,0,33L.105,2.814A3,3,0,0,1,3.1,0H45.3a3.007,3.007,0,0,1,3,2.99l.1,30.39a21.716,21.716,0,0,1-2.016,8.8,22.818,22.818,0,0,1-5.216,7.154,24.28,24.28,0,0,1-7.649,4.807A25.249,25.249,0,0,1,24.2,55.9ZM6.089,6,6,33a15.755,15.755,0,0,0,1.425,6.561,16.852,16.852,0,0,0,3.891,5.374A18.8,18.8,0,0,0,24.2,49.9a18.8,18.8,0,0,0,12.884-4.965,16.852,16.852,0,0,0,3.891-5.374A15.755,15.755,0,0,0,42.4,33L42.31,6Z" transform="translate(79.6 0.6)" fill="#2e186a"/><path d="M42.3,0H.1S0,29.6,0,30C0,41,9.5,49.9,21.2,49.9S42.4,41,42.4,30C42.4,29.2,42.3,0,42.3,0Z" transform="translate(123.8 3.6)" fill="#fff"/><path d="M24.2,55.9a25.24,25.24,0,0,1-9.4-1.793,24.259,24.259,0,0,1-7.694-4.9,22.773,22.773,0,0,1-5.2-7.277A21.716,21.716,0,0,1,0,33L.105,2.814A3,3,0,0,1,3.1,0H45.3a3.007,3.007,0,0,1,3,2.99l.1,30.39a21.716,21.716,0,0,1-2.016,8.8,22.818,22.818,0,0,1-5.216,7.154,24.28,24.28,0,0,1-7.649,4.807A25.249,25.249,0,0,1,24.2,55.9ZM6.089,6,6,33a15.755,15.755,0,0,0,1.425,6.561,16.852,16.852,0,0,0,3.891,5.374A18.8,18.8,0,0,0,24.2,49.9a18.8,18.8,0,0,0,12.884-4.965,16.852,16.852,0,0,0,3.891-5.374A15.755,15.755,0,0,0,42.4,33L42.31,6Z" transform="translate(120.8 0.6)" fill="#2e186a"/><path d="M42.3,0H.1S0,29.6,0,30C0,41,9.5,49.9,21.2,49.9S42.4,41,42.4,30C42.5,29.2,42.3,0,42.3,0Z" transform="translate(165 3.6)" fill="#fe7624"/><path d="M24.2,55.9a25.24,25.24,0,0,1-9.4-1.793,24.259,24.259,0,0,1-7.694-4.9,22.773,22.773,0,0,1-5.2-7.277A21.716,21.716,0,0,1,0,33L.105,2.814A3,3,0,0,1,3.1,0H45.3a3.009,3.009,0,0,1,3,2.98l.089,15.014c.034,6.786.052,11.759.029,13.972l-.032,1.785a22.22,22.22,0,0,1-7.219,15.581A24.8,24.8,0,0,1,24.6,55.9ZM6.089,6h0L6,33a15.755,15.755,0,0,0,1.425,6.561,16.852,16.852,0,0,0,3.891,5.374A18.8,18.8,0,0,0,24.2,49.9a18.8,18.8,0,0,0,12.884-4.965,16.852,16.852,0,0,0,3.891-5.374A15.755,15.755,0,0,0,42.4,33a3.04,3.04,0,0,1,.023-.373c.01-.082.009-2.9,0-6.689L42.319,6H6.089Z" transform="translate(162 0.6)" fill="#2e186a"/><path d="M42.3,0H.1S0,29.6,0,30C0,41,9.5,49.9,21.2,49.9S42.4,41,42.4,30C42.4,29.2,42.3,0,42.3,0Z" transform="translate(206.3 3.6)" fill="#fff"/><path d="M24.2,55.9a25.24,25.24,0,0,1-9.4-1.793,24.259,24.259,0,0,1-7.694-4.9,22.773,22.773,0,0,1-5.2-7.277A21.716,21.716,0,0,1,0,33L.105,2.814A3,3,0,0,1,3.1,0H45.3a3.007,3.007,0,0,1,3,2.99l.1,30.39a21.716,21.716,0,0,1-2.016,8.8,22.818,22.818,0,0,1-5.216,7.154,24.28,24.28,0,0,1-7.649,4.807A25.249,25.249,0,0,1,24.2,55.9ZM6.089,6,6,33a15.755,15.755,0,0,0,1.425,6.561,16.852,16.852,0,0,0,3.891,5.374A18.8,18.8,0,0,0,24.2,49.9a18.8,18.8,0,0,0,12.884-4.965,16.852,16.852,0,0,0,3.891-5.374A15.755,15.755,0,0,0,42.4,33L42.31,6Z" transform="translate(203.3 0.6)" fill="#2e186a"/><path d="M42.3,0H.1S0,29.6,0,30C0,41,9.5,49.9,21.2,49.9S42.4,41,42.4,30C42.4,29.2,42.3,0,42.3,0Z" transform="translate(247.5 3.6)" fill="#fe7624"/><path d="M24.2,55.9a25.24,25.24,0,0,1-9.4-1.793,24.259,24.259,0,0,1-7.694-4.9,22.773,22.773,0,0,1-5.2-7.277A21.716,21.716,0,0,1,0,33L.105,2.814A3,3,0,0,1,3.1,0H45.3a3.007,3.007,0,0,1,3,2.99l.1,30.39a21.716,21.716,0,0,1-2.016,8.8,22.818,22.818,0,0,1-5.216,7.154,24.28,24.28,0,0,1-7.649,4.807A25.249,25.249,0,0,1,24.2,55.9ZM6.089,6,6,33a15.755,15.755,0,0,0,1.425,6.561,16.852,16.852,0,0,0,3.891,5.374A18.8,18.8,0,0,0,24.2,49.9a18.8,18.8,0,0,0,12.884-4.965,16.852,16.852,0,0,0,3.891-5.374A15.755,15.755,0,0,0,42.4,33L42.31,6Z" transform="translate(244.5 0.6)" fill="#2e186a"/><path d="M42.3,0H.1S0,29.6,0,30C0,41,9.5,49.9,21.2,49.9S42.4,41,42.4,30C42.5,29.2,42.3,0,42.3,0Z" transform="translate(288.7 3.6)" fill="#fff"/><path d="M24.2,55.9a25.24,25.24,0,0,1-9.4-1.793,24.259,24.259,0,0,1-7.694-4.9,22.773,22.773,0,0,1-5.2-7.277A21.716,21.716,0,0,1,0,33L.1,2.99A3.005,3.005,0,0,1,3.1,0H45.3a3.009,3.009,0,0,1,3,2.98l.089,15.014c.034,6.786.052,11.759.029,13.972l-.032,1.785a22.22,22.22,0,0,1-7.219,15.581A24.8,24.8,0,0,1,24.6,55.9ZM6.089,6h0L6,33.316a16.258,16.258,0,0,0,5.426,11.722A18.824,18.824,0,0,0,24.2,49.9a18.8,18.8,0,0,0,12.884-4.965,16.852,16.852,0,0,0,3.891-5.374A15.755,15.755,0,0,0,42.4,33a3.04,3.04,0,0,1,.023-.373c.01-.082.009-2.9,0-6.689L42.319,6H6.089Z" transform="translate(285.7 0.6)" fill="#2e186a"/><path d="M42.3,0H.1S0,29.6,0,30C0,41,9.5,49.9,21.2,49.9S42.4,41,42.4,30C42.4,29.2,42.3,0,42.3,0Z" transform="translate(330 3.6)" fill="#fe7624"/><path d="M24.2,55.9a25.24,25.24,0,0,1-9.4-1.793,24.259,24.259,0,0,1-7.694-4.9,22.773,22.773,0,0,1-5.2-7.277A21.716,21.716,0,0,1,0,33L.105,2.814A3,3,0,0,1,3.1,0H45.3a3.007,3.007,0,0,1,3,2.99l.1,30.39a21.716,21.716,0,0,1-2.016,8.8,22.818,22.818,0,0,1-5.216,7.154,24.28,24.28,0,0,1-7.649,4.807A25.249,25.249,0,0,1,24.2,55.9ZM6.089,6,6,33a15.755,15.755,0,0,0,1.425,6.561,16.852,16.852,0,0,0,3.891,5.374A18.8,18.8,0,0,0,24.2,49.9a18.8,18.8,0,0,0,12.884-4.965,16.852,16.852,0,0,0,3.891-5.374A15.755,15.755,0,0,0,42.4,33L42.31,6Z" transform="translate(327 0.6)" fill="#2e186a"/><path d="M42.3,0H.1S0,29.6,0,30C0,41,9.5,49.9,21.2,49.9S42.4,41,42.4,30C42.4,29.2,42.3,0,42.3,0Z" transform="translate(371.2 3.6)" fill="#fff"/><path d="M24.2,55.9a25.24,25.24,0,0,1-9.4-1.793,24.259,24.259,0,0,1-7.694-4.9,22.773,22.773,0,0,1-5.2-7.277A21.716,21.716,0,0,1,0,33L.1,2.99A3.005,3.005,0,0,1,3.1,0H45.3a3.007,3.007,0,0,1,3,2.99l.1,30.39a21.716,21.716,0,0,1-2.016,8.8,22.818,22.818,0,0,1-5.216,7.154,24.28,24.28,0,0,1-7.649,4.807A25.249,25.249,0,0,1,24.2,55.9ZM6.089,6,6,33.316a16.258,16.258,0,0,0,5.426,11.722A18.824,18.824,0,0,0,24.2,49.9a18.8,18.8,0,0,0,12.884-4.964,16.85,16.85,0,0,0,3.891-5.372A15.74,15.74,0,0,0,42.4,33.007L42.31,6Z" transform="translate(368.2 0.6)" fill="#2e186a"/></g><path d="M60.174.182a3,3,0,0,1,2.217,5.573l-.164.065-58.2,21.2A3,3,0,0,1,1.81,21.447l.164-.065Z" transform="translate(39.999 0.499)" fill="#2e186a"/><path d="M60.276.181A3,3,0,0,1,62.49,5.755l-.164.065-58.3,21.2a3,3,0,0,1-2.214-5.574l.164-.065Z" transform="translate(79.599 0.499)" fill="#2e186a"/><path d="M60.276.181A3,3,0,0,1,62.49,5.755l-.164.065-58.3,21.2a3,3,0,0,1-2.214-5.574l.164-.065Z" transform="translate(121.399 0.499)" fill="#2e186a"/><path d="M60.276.181A3,3,0,0,1,62.49,5.755l-.164.065-58.3,21.2a3,3,0,0,1-2.214-5.574l.164-.065Z" transform="translate(162.699 0.499)" fill="#2e186a"/><path d="M60.174.182a3,3,0,0,1,2.217,5.573l-.164.065-58.2,21.2A3,3,0,0,1,1.81,21.447l.164-.065Z" transform="translate(204.099 0.499)" fill="#2e186a"/><path d="M60.174.182a3,3,0,0,1,2.217,5.573l-.164.065-58.2,21.2A3,3,0,0,1,1.81,21.447l.164-.065Z" transform="translate(246.299 0.499)" fill="#2e186a"/><path d="M60.174.182a3,3,0,0,1,2.217,5.573l-.164.065-58.2,21.2A3,3,0,0,1,1.81,21.447l.164-.065Z" transform="translate(286.799 0.499)" fill="#2e186a"/><path d="M60.174.182a3,3,0,0,1,2.217,5.573l-.164.065-58.2,21.2A3,3,0,0,1,1.81,21.447l.164-.065Z" transform="translate(329.199 0.499)" fill="#2e186a"/><path d="M60.174.182a3,3,0,0,1,2.217,5.573l-.164.065-58.2,21.2A3,3,0,0,1,1.81,21.447l.164-.065Z" transform="translate(367.599 0.499)" fill="#2e186a"/></g><path d="M418.5,19H4.7A4.7,4.7,0,0,1,0,14.3V4.7A4.7,4.7,0,0,1,4.7,0H418.5a4.7,4.7,0,0,1,4.7,4.7v9.6A4.7,4.7,0,0,1,418.5,19Z" transform="translate(89.1 256.7)" fill="#fe7624"/><g transform="translate(111 130)"><path d="M17.6,126.2H300a17.626,17.626,0,0,0,17.6-17.6v-91A17.626,17.626,0,0,0,300,0H17.6A17.626,17.626,0,0,0,0,17.6v91A17.626,17.626,0,0,0,17.6,126.2Z" transform="translate(0.8 0.8)" fill="#feba91"/><path d="M6,0V124.8H0V0Z" transform="translate(189.7 1)" fill="#fff"/><path d="M6.6,35.2H67.7a6.594,6.594,0,0,0,6.6-6.6V6.6A6.594,6.594,0,0,0,67.7,0H6.6A6.594,6.594,0,0,0,0,6.6v22A6.594,6.594,0,0,0,6.6,35.2Z" transform="translate(20.9 65.1)" fill="#fff"/></g><path d="M335.1,21.8H5.6A5.591,5.591,0,0,1,0,16.2V5.6A5.591,5.591,0,0,1,5.6,0H335.1a5.591,5.591,0,0,1,5.6,5.6V16.2A5.528,5.528,0,0,1,335.1,21.8Z" transform="translate(0.9 429.5)" fill="#fe7624"/><path d="M106.4,21.8H5.6A5.591,5.591,0,0,1,0,16.2V5.6A5.591,5.591,0,0,1,5.6,0H106.4A5.591,5.591,0,0,1,112,5.6V16.2A5.591,5.591,0,0,1,106.4,21.8Z" transform="translate(573.7 429.5)" fill="#fe7624"/></g><g transform="translate(761 436)"><g transform="translate(0 161)"><path d="M17.246,49.755l-15.7-38.5c-4.8-8,2.4-15,10.3-9a39.464,39.464,0,0,1,10.4,11.6c10.4,17.2,33.4,53.2,32.1,51.8S17.246,49.755,17.246,49.755Z" transform="translate(63.954 0.345)" fill="#fff"/><path d="M57.021,71.65a1.4,1.4,0,0,1-.617-.13l-.248-.112a5.086,5.086,0,0,1-.461-.262l-.15-.114-.084-.072-.363-.2q-.134-.07-.294-.151l-.542-.268c-.733-.355-1.683-.794-2.821-1.3l-1.49-.661c-2.1-.925-4.725-2.052-7.8-3.35l-5.827-2.443c-2.283-.95-4.655-1.931-7.049-2.916L24.94,57.889l-5.729-2.335-.248-.108A2.993,2.993,0,0,1,17.5,53.88L1.877,15.58l-.068-.117A12.892,12.892,0,0,1,0,9.428,9.525,9.525,0,0,1,1.248,4.371,8.847,8.847,0,0,1,9.013,0a12.82,12.82,0,0,1,7.674,2.859l.472.365A41.745,41.745,0,0,1,27.841,15.3l.437.723c2.189,3.608,5,8.172,8.607,13.954l20.1,32.117,1.785,2.9c.3.5.547.906.742,1.237l.328.569a6.162,6.162,0,0,1,.357.715l0,.008a1.8,1.8,0,0,1,.1.283l.076.3a1.86,1.86,0,0,1,.047.52l-.026.51A2.319,2.319,0,0,1,59.158,71l-.7.508h-.011A13.7,13.7,0,0,1,57.021,71.65Zm-48-65.643a2.833,2.833,0,0,0-2.6,1.4c-.358.632-1,2.412.726,5.294a2.967,2.967,0,0,1,.205.41L22.573,50.443l7.541,3.083C33.7,55,37.028,56.376,40,57.615l3.439,1.44c1.369.575,2.7,1.137,3.958,1.671l2.281.975L32.067,33.586c-3.029-4.86-5.468-8.8-7.457-12.057l-2.223-3.655A35.745,35.745,0,0,0,13.048,7.628l.011.009A6.937,6.937,0,0,0,9.018,6.007Z" transform="translate(60.926 -2.648)" fill="#2e186a"/><path d="M199.246,19.178l-82.9,18.3-40.6-20.7L21.546.278c-6.6-1.9-11.5,6.4-6.4,11.1,2.7,2.4,43.5,16.1,43.5,16.1l-51.9-5.8a6.063,6.063,0,0,0-5.4,9.8c3.4,4.2,9.5,4.5,17.7,6.4,5,1.1,37.1,4.9,37.1,4.9l-45.8,3.2c-11.3,1.3-11,17.5,10.6,14.8,11.2-1.4,24.8-1.3,34.3-3.9l-31,8.9c-10.2,6.2.3,17.7,44,4.5,26.6,21.4,40.5,25.4,64.5,11.3.1-.1,80.3-13.2,80.3-13.2Z" transform="translate(3.854 17.222)" fill="#fff"/><path d="M110.915,95.905h0a35.686,35.686,0,0,1-8.956-1.159,49.346,49.346,0,0,1-9.348-3.508C86.416,88.232,79.571,83.7,71.069,76.971l-.464-.368-.651.191a164.583,164.583,0,0,1-17.762,4.2,84.8,84.8,0,0,1-14.183,1.372,36.085,36.085,0,0,1-9.5-1.093l-.315-.09a12.967,12.967,0,0,1-5.26-2.8,6.9,6.9,0,0,1-2.215-3.931c-.442-2.782,1.111-5.616,4.26-7.773l-1.122.136a39.155,39.155,0,0,1-4.423.262A22.666,22.666,0,0,1,9.019,64.915a12.313,12.313,0,0,1-3.445-2.576,9.992,9.992,0,0,1-2.089-3.465,8.848,8.848,0,0,1,.848-7.769A11.587,11.587,0,0,1,13.01,46l.134-.013L28.4,44.92l-1.876-.266c-2.047-.3-3.521-.535-4.5-.722l-.639-.13c-.982-.228-2.021-.453-3.367-.728l-3.623-.739a35.025,35.025,0,0,1-7.653-2.289,12.74,12.74,0,0,1-4.711-3.679A8.917,8.917,0,0,1,.038,31.585,9.077,9.077,0,0,1,.9,26.838a8.957,8.957,0,0,1,8.11-5.2,9.576,9.576,0,0,1,1.074.061L35.3,24.515l-1.668-.6c-10.928-3.946-15.97-6.042-17.4-7.232l-.073-.063-.258-.243a9.32,9.32,0,0,1-2.738-5.018,9.409,9.409,0,0,1,.576-5.216,10.05,10.05,0,0,1,3.41-4.368A9.245,9.245,0,0,1,22.6,0a10.209,10.209,0,0,1,2.822.409l54.2,16.5a2.99,2.99,0,0,1,.489.2l39.64,20.211L201.606,19.25a3,3,0,0,1,3.482,1.951l.053.167,13.8,49.2a3,3,0,0,1-2.4,3.771L182.561,79.9l-36.34,5.968-9.41,1.569-.267.157a72.258,72.258,0,0,1-13.355,6.215A38.672,38.672,0,0,1,110.915,95.905ZM71.252,70.279a3.009,3.009,0,0,1,1.881.663C81.6,77.756,88.219,82.3,93.951,85.247c6.152,3.16,11.533,4.632,16.935,4.633,6.58,0,13.377-2.2,22.041-7.131l.79-.455,0-.013c-.042-.15-.466-.167-.782-.167h-.27c-.071,0-.081,0-.081-.007s0-.009.133-.036l2.745-.493,2.924-.5,73.873-12.124-12.128-43.24L120,43.409a3.009,3.009,0,0,1-.647.07,2.978,2.978,0,0,1-1.153-.231l-.21-.1L77.623,22.57,23.723,6.162a3.814,3.814,0,0,0-1.054-.153,3.621,3.621,0,0,0-3.357,2.367,3.349,3.349,0,0,0,.874,3.8l-.02-.02.053.039c.992.666,8.1,3.437,17.288,6.738l4.928,1.754c3.162,1.116,6.517,2.284,9.971,3.474l4.063,1.393,6.079,2.064.232.082A2.89,2.89,0,0,1,64.357,29.1a3.076,3.076,0,0,1,.245,1.925,2.91,2.91,0,0,1-2.889,2.454,3.553,3.553,0,0,1-.393-.022l-51.9-5.8a3.176,3.176,0,0,0-.356-.02,3.026,3.026,0,0,0-2.734,1.765,2.943,2.943,0,0,0,.359,3.186,7.649,7.649,0,0,0,3.174,2.256,34.411,34.411,0,0,0,6.194,1.707l4.118.84c.468.1.9.19,1.31.281l1.216.275c1.6.352,6.717,1.09,14.785,2.132l7.383.936c1.556.194,3.138.389,4.342.537l4.407.538,5.468.657.616.078a2.868,2.868,0,0,1,1.893,1.147,3.1,3.1,0,0,1,.556,1.963,2.9,2.9,0,0,1-2.787,2.833L13.648,51.965l-.211.028a5.468,5.468,0,0,0-3.96,2.193,3.05,3.05,0,0,0-.383,2.539l.051.159c.926,2.632,4.709,4.2,10.118,4.2a35.04,35.04,0,0,0,4.318-.286c2.773-.346,5.25-.578,9.814-.917l3.987-.289c10.71-.774,15.282-1.352,19.568-2.474l.51-.137a3.452,3.452,0,0,1,.909-.128,2.72,2.72,0,0,1,1.961.808,3.25,3.25,0,0,1,.9,1.842,2.854,2.854,0,0,1-2.153,3.255l-30.6,8.785c-1.334.851-1.9,1.476-1.828,2.026.075.586.869,1.095,2.574,1.65l.434.136.491.143a30.161,30.161,0,0,0,7.855.876c7.942,0,18.663-1.923,31-5.561l1.375-.41A3,3,0,0,1,71.252,70.279ZM137.874,86.7a2.988,2.988,0,0,1-.6.465l-.459.266,2.146-.382a.546.546,0,0,0,.147-.036s-.012,0-.036,0-.087,0-.154,0l-.072,0c-.1,0-.221.008-.351.008-.417,0-.651-.048-.7-.143-.019-.04,0-.089.042-.146Z" transform="translate(0.847 14.221)" fill="#2e186a"/></g><path d="M137.959,31.8,223.759,0l43.8,207.1a42,42,0,0,1-32.6,46.6l-221,31.2a12.849,12.849,0,0,1-13.6-10.3l-.1-67.9a12.92,12.92,0,0,1,11.1-15.3l144.6-14.3Z" transform="translate(122.041)" fill="#fe7624"/><path d="M3.519,17.555a3,3,0,0,1-1.21-5.874l.173-.035,66.1-11.6A3,3,0,0,1,68.9.007L69.115,0h.341l.636.011c.236.006.5.014.777.026,1.146.047,2.4.135,3.724.273a53.755,53.755,0,0,1,10.89,2.224c9.83,3.174,16.354,9.078,17.4,18.33a3,3,0,0,1-5.962.673c-.733-6.49-5.461-10.768-13.28-13.293A47.885,47.885,0,0,0,73.97,6.278c-1-.1-1.946-.176-2.826-.222l-.52-.024c-.326-.013-.614-.022-.859-.027L69.362,6Z" transform="translate(203.1 165.1)" fill="#2e186a"/><path d="M2.573.031A3,3,0,0,1,5.94,2.4l.03.174L21.1,107.843l.1-.057q.555-.308,1.139-.608l.59-.3c8.039-3.973,16.509-5.1,24.558-1.511a29.86,29.86,0,0,1,11.272,9.184,3,3,0,1,1-4.727,3.695,23.916,23.916,0,0,0-8.99-7.4C38.9,108.105,32.183,109,25.593,112.26a33.99,33.99,0,0,0-3.67,2.1l-.424.286q-.2.138-.377.264l-.327.239-.127.1a3,3,0,0,1-4.807-1.747l-.03-.174L.031,3.427A3,3,0,0,1,2.573.031Z" transform="translate(253.9 54.9)" fill="#2e186a"/></g><g transform="translate(1049 805)"><path d="M120.436,123h-53.6a31.791,31.791,0,0,1-31.8-31.8V71.1a35.11,35.11,0,0,1-14.45-3.225A35.881,35.881,0,0,1,8.537,58.8a35.244,35.244,0,0,1-7.5-14.6A35.947,35.947,0,0,1,.742,28.347,35.651,35.651,0,0,1,32.936.1C33.8.035,34.681,0,35.559,0a37.429,37.429,0,0,1,4.677.3V.4h99.7a12.291,12.291,0,0,1,12.3,12.3V91.2a31.791,31.791,0,0,1-31.8,31.8ZM34.136,15.9a19.453,19.453,0,0,0-7.512,2.116,19.916,19.916,0,0,0-9.7,11.244A19.517,19.517,0,0,0,22.736,50.4a20.166,20.166,0,0,0,5.775,3.487A19,19,0,0,0,35.036,55.2V15.9Z" transform="translate(0.464 0.496)" fill="#5d21d1"/><path d="M17.594,42.6v4.3a3.329,3.329,0,0,1-3.3,3.3h0a3.329,3.329,0,0,1-3.3-3.3V42.4a25.305,25.305,0,0,1-9.1-3.2,3.728,3.728,0,0,1-1.5-4.9v-.1a3.77,3.77,0,0,1,5.3-1.6,20.33,20.33,0,0,0,9.3,2.9c2.8,0,4.6-1,4.6-3,0-6.2-18.5-2.5-18.5-14.9,0-5.4,3.8-9.1,9.9-10.2V3.3a3.329,3.329,0,0,1,3.3-3.3h0a3.329,3.329,0,0,1,3.3,3.3V7.2a28.857,28.857,0,0,1,7.8,2,3.765,3.765,0,0,1,1.9,5.1l-.1.2a3.809,3.809,0,0,1-5,1.8,23.4,23.4,0,0,0-7.9-2c-2.3,0-3.9.8-3.9,2.5,0,6.1,18.5,2.6,18.5,15.3C28.994,38.3,24.194,41.9,17.594,42.6Z" transform="translate(79.806 38)" fill="#fff"/></g></g></g></g></svg>