<svg xmlns="http://www.w3.org/2000/svg" width="2000" height="1300" viewBox="0 0 2000 1300"><g transform="translate(-8616 2004.5)"><rect width="2000" height="1300" rx="80" transform="translate(8616 -2004.5)" fill="#fff"/><g transform="translate(8857 -1594.5)"><g transform="translate(-3)"><g transform="translate(681)"><path d="M278.1,0H49.4A49.378,49.378,0,0,0,0,49.4V217.1H18V49.7c0-14.4,12-26.1,26.9-26.1H96.1V34.5a6.554,6.554,0,0,0,6.6,6.4h94.6a6.49,6.49,0,0,0,6.6-6.4V23.6h51.2C270,23.6,282,35.3,282,49.7V230.9h17.7V45.9c0-21.1-17.7-38.2-39.5-38.2a2.946,2.946,0,0,1-3-3,2.946,2.946,0,0,1,3-3c25.1,0,45.5,19.8,45.5,44.2v185h21.9V49.4A49.463,49.463,0,0,0,278.1,0Z" transform="translate(0.9)" fill="#2e186a"/><rect width="18" height="200.1" transform="translate(0.9 358.5)" fill="#2e186a"/><path d="M0,0V135.8L17.7,139V0Z" transform="translate(282.9 289.1)" fill="#2e186a"/><path d="M299.6,155.4V2.8L281.9,0V163.4c0,14.4-12,26.1-26.9,26.1H44.8c-14.2,0-25.9-10.7-26.8-24.3H0c1.4,26,23.7,48.4,50,48.4l213.7-1.7A2.9,2.9,0,0,1,266,209c14.5-3.5,24.6-13.4,29.9-29.5A77.518,77.518,0,0,0,299.6,155.4Z" transform="translate(1 451.6)" fill="#2e186a"/><path d="M29.7,0V141.7l10.9,11-10.9,7.2V317.7a84.512,84.512,0,0,1-3.9,25.9C21,358.4,12.1,368.9,0,374.4H2.1A49.378,49.378,0,0,0,51.5,325V0Z" transform="translate(276.9 289.1)" fill="#2e186a"/><path d="M.1.7A2.979,2.979,0,0,0,3,3a1.7,1.7,0,0,0,.7-.1A47.264,47.264,0,0,0,12.2,0H0A1.483,1.483,0,0,0,.1.7Z" transform="translate(264.7 663.4)" fill="#2e186a"/><path d="M.456,1.412A3,3,0,0,1,4.589.456c17.3,10.8,37.016,16.377,62.355,16.745a3,3,0,0,1-.087,6C40.446,22.816,19.662,16.938,1.412,5.545A3,3,0,0,1,.456,1.412Z" transform="translate(218.3 192.2)" fill="#2e186a"/><path d="M17.57,2.54C30.788.562,41.761-.327,53.485.108A121.127,121.127,0,0,1,97.475,9.649,114.352,114.352,0,0,1,132.2,33.123c5.531,5.437,10.976,11.129,16.713,17.417a3,3,0,0,1-4.433,4.044c-5.668-6.213-11.039-11.827-16.478-17.174A108.338,108.338,0,0,0,95.1,15.159,115.183,115.183,0,0,0,53.263,6.1,179.009,179.009,0,0,0,19.7,8.291l-1.251.187c-.908.148-11.544,1.816-14.692,2.216l-.421.051a3,3,0,1,1-.669-5.963l.729-.091C7.064,4.2,18.333,2.426,17.57,2.54Z" transform="translate(13.5 82.037)" fill="#2e186a"/><path d="M2.656,1.092a175.265,175.265,0,0,1,38.157-.1,3,3,0,1,1-.626,5.967,169.328,169.328,0,0,0-36.843.1,3,3,0,1,1-.688-5.96Z" transform="translate(13.5 469.627)" fill="#2e186a"/><path d="M.658,1.126A3,3,0,0,1,4.874.658c4.252,3.4,8.195,6.867,12.02,10.594l2.382,2.314c25.322,24.514,39.6,35.47,56.8,42.694C94.7,64.084,116.728,67.079,156.44,67.6a3,3,0,1,1-.079,6c-40.016-.526-62.649-3.554-82.024-11.565l-.586-.244C55.142,53.974,40.032,42.185,12.707,15.549,9.025,11.962,5.229,8.625,1.126,5.343A3,3,0,0,1,.658,1.126Z" transform="translate(128.8 501.7)" fill="#2e186a"/><g transform="translate(51 132)"><path d="M134.8,138.3H3.5A3.5,3.5,0,0,1,0,134.8V3.5A3.5,3.5,0,0,1,3.5,0H134.8a3.5,3.5,0,0,1,3.5,3.5V134.8A3.5,3.5,0,0,1,134.8,138.3ZM7,7V131.3H131.3V7Z" transform="translate(33.5 -0.9)" fill="#fe7624"/><g transform="translate(35 141)"><path d="M37.3,40.8H3.5A3.5,3.5,0,0,1,0,37.3V3.5A3.5,3.5,0,0,1,3.5,0H37.3a3.5,3.5,0,0,1,3.5,3.5V37.3A3.5,3.5,0,0,1,37.3,40.8ZM7,7V33.8H33.8V7Z" transform="translate(0.8 0.6)" fill="#fe7624"/><path d="M34.825,1.025a3.5,3.5,0,0,1,5.091,4.8l-.141.15-33.8,33.8a3.5,3.5,0,0,1-5.091-4.8l.141-.15Z" transform="translate(0.8 0.6)" fill="#fe7624"/></g><g transform="translate(85 145)"><path d="M37.3,40.8H3.5A3.5,3.5,0,0,1,0,37.3V3.5A3.5,3.5,0,0,1,3.5,0H37.3a3.5,3.5,0,0,1,3.5,3.5V37.3A3.5,3.5,0,0,1,37.3,40.8ZM7,7V33.8H33.8V7Z" transform="translate(-3.1 -3.4)" fill="#fe7624"/><path d="M34.825,1.025a3.5,3.5,0,0,1,5.091,4.8l-.141.15-33.8,33.8a3.5,3.5,0,0,1-5.091-4.8l.141-.15Z" transform="translate(-3.1 -3.4)" fill="#fe7624"/></g><g transform="translate(131 145)"><path d="M37.3,40.8H3.5A3.5,3.5,0,0,1,0,37.3V3.5A3.5,3.5,0,0,1,3.5,0H37.3a3.5,3.5,0,0,1,3.5,3.5V37.3A3.5,3.5,0,0,1,37.3,40.8ZM7,7V33.8H33.8V7Z" transform="translate(-2.9 -3.4)" fill="#fe7624"/><path d="M34.825,1.025a3.5,3.5,0,0,1,5.091,4.8l-.141.15-33.8,33.8a3.5,3.5,0,0,1-5.091-4.8l.141-.15Z" transform="translate(-2.9 -3.4)" fill="#fe7624"/></g><path d="M177.1,76.3H29.7A29.647,29.647,0,0,1,0,46.6V29.7A29.647,29.647,0,0,1,29.7,0H177.1a29.647,29.647,0,0,1,29.7,29.7V46.6A29.734,29.734,0,0,1,177.1,76.3ZM29.7,7A22.653,22.653,0,0,0,7,29.7V46.6A22.653,22.653,0,0,0,29.7,69.3H177.1a22.726,22.726,0,0,0,22.7-22.7V29.7A22.653,22.653,0,0,0,177.1,7Z" transform="translate(1.8 215)" fill="#fe7624"/><path d="M177.1,76.3H29.7A29.647,29.647,0,0,1,0,46.6V29.7A29.647,29.647,0,0,1,29.7,0H177.1a29.647,29.647,0,0,1,29.7,29.7V46.6A29.734,29.734,0,0,1,177.1,76.3ZM29.7,7A22.653,22.653,0,0,0,7,29.7V46.6A22.653,22.653,0,0,0,29.7,69.3H177.1a22.726,22.726,0,0,0,22.7-22.7V29.7A22.653,22.653,0,0,0,177.1,7Z" transform="translate(0.8 298.2)" fill="#fe7624"/><path d="M130.013,1.038a3.5,3.5,0,0,1,5.115,4.775l-.14.15-129,130.3a3.5,3.5,0,0,1-5.115-4.775l.14-.15Z" transform="translate(33.5 0.1)" fill="#fe7624"/></g></g><g transform="translate(498 217)"><path d="M227.6,147.4H24.9A24.875,24.875,0,0,1,0,122.5V24.9A24.875,24.875,0,0,1,24.9,0H227.6a24.875,24.875,0,0,1,24.9,24.9v97.7A24.879,24.879,0,0,1,227.6,147.4ZM24.9,6A18.879,18.879,0,0,0,6,24.9v97.6a18.879,18.879,0,0,0,18.9,18.9H227.6a18.872,18.872,0,0,0,18.9-18.8V24.9A18.88,18.88,0,0,0,227.6,6Z" transform="translate(-2.9 -2.9)" fill="#2e186a"/><g transform="translate(32 14)"><path d="M4.4,11.1H3.7A3.691,3.691,0,0,1,0,7.4V3.7A3.691,3.691,0,0,1,3.7,0h.7A3.691,3.691,0,0,1,8.1,3.7V7.4A3.757,3.757,0,0,1,4.4,11.1Z" transform="translate(59.5 39.4)" fill="#fe7624"/><path d="M50.9,11.1H5a4.951,4.951,0,0,1-5-5V5A4.951,4.951,0,0,1,5,0H50.9a4.951,4.951,0,0,1,5,5V6.1A4.951,4.951,0,0,1,50.9,11.1Z" transform="translate(0.4 39.4)" fill="#2e186a"/><path d="M56,11.1H5a4.951,4.951,0,0,1-5-5V5A4.951,4.951,0,0,1,5,0H56a4.951,4.951,0,0,1,5,5V6.1A5.015,5.015,0,0,1,56,11.1Z" transform="translate(0.4 91.1)" fill="#2e186a"/><path d="M89.5,11.1H5a4.951,4.951,0,0,1-5-5V5A4.951,4.951,0,0,1,5,0H89.5a4.951,4.951,0,0,1,5,5V6.1A5.015,5.015,0,0,1,89.5,11.1Z" transform="translate(15.9 73.9)" fill="#fe7624"/><path d="M46.1,11.1H5a4.951,4.951,0,0,1-5-5V5A4.951,4.951,0,0,1,5,0H46.1a4.951,4.951,0,0,1,5,5V6.1A4.951,4.951,0,0,1,46.1,11.1Z" transform="translate(115.6 73.9)" fill="#fe7624"/><path d="M4.4,11.1H3.7A3.691,3.691,0,0,1,0,7.4V3.7A3.691,3.691,0,0,1,3.7,0h.7A3.691,3.691,0,0,1,8.1,3.7V7.4A3.691,3.691,0,0,1,4.4,11.1Z" transform="translate(175.9 56.7)" fill="#2e186a"/><path d="M92.8,11.1H5a4.951,4.951,0,0,1-5-5V5A4.951,4.951,0,0,1,5,0H92.8a4.951,4.951,0,0,1,5,5V6.1A5.081,5.081,0,0,1,92.8,11.1Z" transform="translate(0.4 56.7)" fill="#2e186a"/><path d="M50.9,11.1H5a4.951,4.951,0,0,1-5-5V5A4.951,4.951,0,0,1,5,0H50.9a4.951,4.951,0,0,1,5,5V6.1A5.015,5.015,0,0,1,50.9,11.1Z" transform="translate(71.2 39.4)" fill="#2e186a"/><path d="M64,11.2H5a4.951,4.951,0,0,1-5-5V5A4.951,4.951,0,0,1,5,0H64a4.951,4.951,0,0,1,5,5V6.2A5.015,5.015,0,0,1,64,11.2Z" transform="translate(102.5 56.6)" fill="#fe7624"/><g transform="translate(10)"><path d="M.8,8.9,15.2.2a1.854,1.854,0,0,1,.7-.2,1.284,1.284,0,0,1,1,.4,1.284,1.284,0,0,1,.4,1,1.574,1.574,0,0,1-.7,1.3L4.2,10.1l12.4,7.4a1.357,1.357,0,0,1,.7,1.3,1.367,1.367,0,0,1-1.4,1.4,1.445,1.445,0,0,1-.7-.2L.8,11.3A1.561,1.561,0,0,1,0,10,1.565,1.565,0,0,1,.8,8.9Z" transform="translate(0.1 6.3)" fill="#2e186a"/><path d="M12,.4A1.284,1.284,0,0,1,13,0a1.284,1.284,0,0,1,1,.4,1.284,1.284,0,0,1,.4,1,1.268,1.268,0,0,1-.1.6L2.7,31c-.1.1-.2.3-.3.4a1.284,1.284,0,0,1-1,.4,1.284,1.284,0,0,1-1-.4,1.284,1.284,0,0,1-.4-1,1.268,1.268,0,0,1,.1-.6L11.7.8A1.38,1.38,0,0,1,12,.4Z" transform="translate(20.4 0.6)" fill="#2e186a"/><path d="M17.3,10a1.561,1.561,0,0,1-.8,1.3L2.1,20a1.854,1.854,0,0,1-.7.2,1.284,1.284,0,0,1-1-.4,1.284,1.284,0,0,1-.4-1,1.574,1.574,0,0,1,.7-1.3l12.4-7.4L.7,2.7A1.357,1.357,0,0,1,0,1.4,1.284,1.284,0,0,1,.4.4a1.284,1.284,0,0,1,1-.4,1.445,1.445,0,0,1,.7.2L16.5,8.9A1.084,1.084,0,0,1,17.3,10Z" transform="translate(37.9 6.5)" fill="#2e186a"/></g></g></g><g transform="translate(927 380)"><path d="M259,238.8l-105.6-.7-7.7-31.8c-.292.042-29.925,4.308-33.3,5.3a94.849,94.849,0,0,0-11.888,5.75C97.679,218.906,91,222.7,90.2,224.3c-.537,1.133-.627,2-.267,2.564.381.6,1.244.9,2.639.9A26.924,26.924,0,0,0,98.6,226.8l.9-.4c-2.609,1.878-3.888,3.334-3.6,4.1a4.008,4.008,0,0,0,1.895,1.666,8.28,8.28,0,0,0,3.773.96,6.408,6.408,0,0,0,2.331-.425c3.1-1.992,8.411-3.863,11.3-4.8-1.132.445-2.356.959-3.541,1.457l-.006,0c-1.791.753-3.483,1.464-4.852,1.94a7.347,7.347,0,0,0-2.838,1.873,3.459,3.459,0,0,0-1.088,2.5c.068.816.666,1.883,3.126,2.33l-20.7-.4,22.6-109.3-12.8,5.8a17.851,17.851,0,0,1-19.7-5L0,42.4,40.4,0,99.8,63.1l46.4-16.5a45.878,45.878,0,0,1,28.6-.7,26.785,26.785,0,0,0,.7,2.7,20.157,20.157,0,0,0,3.35,6.387A23.3,23.3,0,0,0,184,59.8l-3.1,14.1a21.834,21.834,0,0,0,16.6,26,21.831,21.831,0,0,0,26-16.6l2.4-10.7,31.2,17.1a36.844,36.844,0,0,1,14.862,14.012A36.33,36.33,0,0,1,277,123.5l1.5,97.1a18.11,18.11,0,0,1-1.282,6.993,16.745,16.745,0,0,1-3.652,5.536,18.476,18.476,0,0,1-6.437,4.183A22.158,22.158,0,0,1,259,238.8Zm-38.8-91.706c-.065,0-.131,0-.2.006a2.951,2.951,0,0,0-2.075,1,3.052,3.052,0,0,0-.725,2.2l2.6,36.1L150,201.9a3.232,3.232,0,0,0-1.9,1.35,2.825,2.825,0,0,0-.4,2.25,2.972,2.972,0,0,0,2.9,2.4,1.835,1.835,0,0,0,.421-.057,1.3,1.3,0,0,1,.279-.042l72.4-16.1a3.078,3.078,0,0,0,2.3-3.1l-2.8-38.7a2.962,2.962,0,0,0-.934-2.016A3.03,3.03,0,0,0,220.2,147.094Z" transform="translate(38.3 47.2)" fill="#2e186a"/><g transform="translate(0 37)"><path d="M13.348,8.395l-1.942-.726c-.479-.176-.954-.348-1.3-.47l-.543-.183-.21-.069.5.359.336.235c2.3,1.6,5.242,3.434,8.606,5.4l1.281.743a39.4,39.4,0,0,0,8.667,3.646A73.4,73.4,0,0,0,41,19.8c1.26.151,2.443.265,3.523.347l.532.038c.423.029.8.05,1.117.066l.363.015a3,3,0,1,1-.177,6l-.585-.024c-.3-.015-.682-.037-1.127-.068-1.319-.09-2.784-.225-4.36-.414a79.246,79.246,0,0,1-13.273-2.683A46.193,46.193,0,0,1,17.629,19.2l-2.04-1.18C5.752,12.294.654,8.617.1,5.415-.464,2.4,1.47.321,4.29.039A14.865,14.865,0,0,1,9.6.755c.74.206,1.509.448,2.314.722l.695.244c.466.167,1,.362,1.466.536l1.273.48a3,3,0,1,1-2,5.658Z" transform="translate(-2.647 9.934)" fill="#2e186a"/><path d="M.114,7.013C-.719,2.2,3.112-.6,7.93.108c4.031.591,8.443,3.38,11.891,7.73a3,3,0,0,1-4.7,3.727C12.573,8.353,9.485,6.4,7.06,6.045,6.878,6.018,6.713,6,6.567,6l-.181,0,.093.1c.377.4.861.882,1.439,1.431l.253.24c1.71,1.609,4.076,3.67,6.7,5.84L16,14.529a112.792,112.792,0,0,0,12.43,9.15c4.689,2.6,11.281,4.73,19.616,6.06A3,3,0,0,1,49.895,30.8l.122.16,4.9,6.9a3,3,0,0,1-4.777,3.625l-.115-.151-4.178-5.883-.317-.054C37.52,34,30.963,31.856,26,29.188l-.476-.26c-2.795-1.542-8.154-5.517-13.668-10.038L10.291,17.6C3.751,12.159.422,8.967.114,7.013Z" transform="translate(0.83 1.498)" fill="#2e186a"/><path d="M9.422,1.975A4.634,4.634,0,0,1,13.813.013a16.09,16.09,0,0,1,5.853,1.915l.459.234L22.1,3.219c1.234.654,2.482,1.308,3.7,1.934l1.55.792c2.1,1.063,3.822,1.895,5.009,2.41l.449.19.617.089c.782.116,1.65.259,2.584.429a73.1,73.1,0,0,1,7.87,1.862c4.615,1.389,8.2,3.087,10.44,5.277l7.574,7.675.469.47a3,3,0,1,1-4.243,4.243L50.127,20.5c-1.42-1.366-4.239-2.7-7.977-3.826a67.261,67.261,0,0,0-7.219-1.705c-.867-.158-1.67-.29-2.389-.4l-.869-.122a3,3,0,0,1-.72-.181l-.437-.176c-1.38-.57-3.376-1.526-5.878-2.793l-.663-.337c-1.142-.583-2.323-1.2-3.5-1.818L18.354,8.02l-1.077-.578-.318-.161.271.233c1.357,1.153,3.139,2.519,4.938,3.792l.415.292c.608.424,1.191.818,1.724,1.166l.212.138.338.192.69.381q.333.182.642.347l.893.465a3,3,0,0,1-1.835,5.642A12.042,12.042,0,0,1,22,18.377l-.141-.086-.851-.483c-1.22-.7-2.432-1.443-3.6-2.211l-.87-.581A33.079,33.079,0,0,1,10.3,9.784q-.429-.489-.791-.977l-.039-.054a4.954,4.954,0,0,0-1.395-.828L7.92,7.863l.137.185c.608.815,1.35,1.766,2.26,2.9l1.152,1.428A26.336,26.336,0,0,0,16.51,16.8c1.53,1.088,3.183,2.135,4.836,3.1l.674.387q.326.185.628.351l.87.469a3,3,0,1,1-2.753,5.331l-.691-.369c-.528-.287-1.114-.616-1.743-.982-1.8-1.047-3.6-2.189-5.3-3.394a31.7,31.7,0,0,1-6.219-5.528L5.664,14.738C3.961,12.613,2.8,11.074,1.926,9.78A15.111,15.111,0,0,1,.46,7.182,3.827,3.827,0,0,1,.773,3.028C2.245,1.136,5.925.941,9.256,2l.128.042Z" transform="translate(9.659 -2.57)" fill="#2e186a"/></g><g transform="translate(128 253)"><path d="M21.845,37.853a12.531,12.531,0,0,1-5.984-1.21,4.761,4.761,0,0,1-2.6-3.709l-.019-.176-.1-.015c-3.177-.522-5.851-2.254-6.654-4.311l-.067-.183a3.706,3.706,0,0,1-.165-.736l-.005-.059-.252.005H5.852A9.357,9.357,0,0,1,3.9,27.277l-.229-.052A4.632,4.632,0,0,1,.426,24.788a6,6,0,0,1,.35-5.129C1.7,17.8,5.049,15.418,12.327,11.421l1.1-.6a86.781,86.781,0,0,1,11.38-5.4l.306-.084c1.672-.426,6.091-1.189,13.908-2.4L41.7,2.528l5.688-.86L54.429.627l4.1-.6a3,3,0,0,1,3.3,2.092l.047.171,7.7,31.8a3,3,0,0,1-2.741,3.7l-.175,0h-43.2l-.236.015C22.751,37.84,22.288,37.853,21.845,37.853ZM33.23,20.048a4.085,4.085,0,0,1,.967.12l.09.022a3,3,0,0,1,.09,5.8l-.762.223-1.191.362c-.251.077-.527.163-.869.272-.727.23-1.442.464-2.124.693l-.568.2-6.209,2.524-1.506.577a4.266,4.266,0,0,0-1.263.711l-.173.15.044.009a10.75,10.75,0,0,0,1.977.154c.343,0,.71-.01,1.09-.031l.337-.02.2-.006H62.845L56.686,6.36l-2.542.373c-3.16.464-6.1.9-8.74,1.3l-5.371.821c-7.5,1.161-12.275,1.98-13.459,2.3l-.068.019A95.892,95.892,0,0,0,15.547,16.5l-.332.182c-2.612,1.434-4.883,2.778-6.569,3.886l-.564.378-.161.11-.006,0-.1.066-.274.192.058-.007c.809-.119,1.747-.3,2.787-.542l.782-.186.228-.156a40.408,40.408,0,0,1,4.594-2.648l.343-.169c.971-.477,2.066-.985,3.257-1.508,2-.881,4.237-1.793,6.641-2.71l.92-.347q.445-.167.859-.319l1.248-.452a3,3,0,0,1,2.157,5.6l-.946.345c-.641.233-1.348.5-2.1.785-2.3.875-4.438,1.748-6.363,2.595-1.1.485-2.12.957-3.028,1.4a29.281,29.281,0,0,0-5.513,3.421l-.234.2.148.053a4.887,4.887,0,0,0,1.54.263,3.675,3.675,0,0,0,.833-.092l.2-.054.023-.013a43.046,43.046,0,0,1,6.646-3.143l.547-.212c1.009-.388,2.1-.785,3.236-1.181l.343-.118,1.88-.749C31.143,20.38,32.3,20.048,33.23,20.048Z" transform="translate(-2.959 -2.5)" fill="#2e186a"/></g><g transform="translate(198)"><path d="M52.711,2.243a3,3,0,0,1,5.845,1.343l-.04.172-9.49,36.355-.077.337A24.844,24.844,0,0,1,19.865,59.014l-.4-.085A24.844,24.844,0,0,1,.5,29.749l.085-.4,2.9-13a3,3,0,0,1,5.889,1.133l-.033.173-2.9,12.992a18.812,18.812,0,0,0,36.665,8.436l.1-.439Z" transform="translate(17.686 91.099)" fill="#2e186a"/><path d="M31.716,103.973h0A36.363,36.363,0,0,1,13.2,98.906,28.562,28.562,0,0,1,6.055,92.9a22.839,22.839,0,0,1-4.437-8.037A41.35,41.35,0,0,1,0,73.206,81.137,81.137,0,0,1,1.856,56.114c.378-1.824.805-3.638,1.271-5.391l.088-.33.169-.619.04-.106c.026-.067.1-.271.141-.271.01,0,.017.015.019.046v.032l.009-.209a2.928,2.928,0,0,1,.061-.424l.052-.207A169.908,169.908,0,0,1,19.4,11.459l.239-.4a22.835,22.835,0,0,1,8.6-8.4A23.43,23.43,0,0,1,39.494,0a32.439,32.439,0,0,1,3.394.184,42.693,42.693,0,0,1,10.4,2.547,48.417,48.417,0,0,1,5.812,2.6c7.538,4.023,13.29,9.093,17.1,15.069a36.693,36.693,0,0,1,5.624,19.431,48.642,48.642,0,0,1-2.074,14.548c-.478,1.62-1.024,3.19-1.623,4.668-.275.681-.548,1.313-.814,1.877l-.2.4-.045.091a2.984,2.984,0,0,1-2.683,1.658c.826,0,.9.612.937.94.013.114.022.19.058.19s.12-.1.289-.381l1.137-1.948-3.389,6.234c-1.818,3.332-3.387,6.158-4.937,8.895l-.358.63-1.278,2.23a100.687,100.687,0,0,1-7.582,11.864,32.306,32.306,0,0,1-8.069,7.275c-2.717,1.594-6,2.744-11.333,3.968l-1.02.229A32.756,32.756,0,0,1,31.716,103.973ZM9.4,50.306l-.964,3.92c-.193.8-.359,1.509-.5,2.114l-.168.771-.239,1.176A73.879,73.879,0,0,0,6,73.148,35.4,35.4,0,0,0,7.354,83.1a16.874,16.874,0,0,0,3.513,6.168,23.056,23.056,0,0,0,5.788,4.684,30.464,30.464,0,0,0,15.1,4.018,26.612,26.612,0,0,0,5.787-.619l.478-.106c8.858-1.988,11.425-3.386,16.154-8.795l.5-.578a99.489,99.489,0,0,0,7.024-11.083l.863-1.5,1.131-1.994c1.362-2.412,2.822-5.046,4.463-8.054l3.407-6.267.209-.369.2-.429c.157-.344.318-.717.48-1.109l.108-.264c.529-1.31,1.01-2.7,1.43-4.118a42.689,42.689,0,0,0,1.83-12.753,33.374,33.374,0,0,0-1.232-8.615A29.3,29.3,0,0,0,71.054,23.5a33.063,33.063,0,0,0-6.037-6.926,46.334,46.334,0,0,0-8.738-5.942,42.581,42.581,0,0,0-5.1-2.279,36.635,36.635,0,0,0-8.925-2.2A26.485,26.485,0,0,0,39.487,6,17.382,17.382,0,0,0,30.95,8.03,17.171,17.171,0,0,0,24.57,14.5,163.786,163.786,0,0,0,9.464,50.324l-.06-.018Z" transform="translate(11.514 11.82)" fill="#2e186a"/><path d="M17.4,39.219a168.321,168.321,0,0,1,15.4-36.5c.3-.5.7-1.1,1-1.6-5.7-4.5-15,4.8-21.4,23.7C9.1,34.619,0,39.619,0,39.619c6.9,6.1,13.2,3.4,17.3,0A1,1,0,0,0,17.4,39.219Z" transform="translate(0.6 22.081)" fill="#2e186a"/><path d="M7.615,1.887a3,3,0,0,1,5.632,2.063l-.061.166L6.939,19.732l3.18,1.147a3,3,0,0,1,1.859,3.672l-.055.168a3,3,0,0,1-3.672,1.859l-.168-.055-6.1-2.2a3,3,0,0,1-1.83-3.767l.062-.17Z" transform="translate(23.799 51.999)" fill="#2e186a"/><ellipse cx="3" cy="1.9" rx="3" ry="1.9" transform="matrix(0.394, -0.919, 0.919, 0.394, 24.581, 54.997)" fill="#2e186a"/><ellipse cx="3" cy="1.9" rx="3" ry="1.9" transform="translate(41.684 63.063) rotate(-77.555)" fill="#2e186a"/><path d="M.061,2.4A3,3,0,0,1,3.6.061a11.686,11.686,0,0,1,6.615,3.808,12.1,12.1,0,0,1,1.826,2.8A9.16,9.16,0,0,1,12.6,8.116a3,3,0,0,1-5.74,1.737l-.071-.228c-.028-.076-.084-.217-.172-.4A6.147,6.147,0,0,0,5.691,7.81a5.646,5.646,0,0,0-2.99-1.8L2.4,5.94A3,3,0,0,1,.061,2.4Z" transform="translate(49.199 46.099)" fill="#2e186a"/><path d="M5.04.048a11.093,11.093,0,0,1,6.92,1.847,15.82,15.82,0,0,1,2.476,1.822,3,3,0,0,1-3.93,4.53l-.268-.232-.147-.12L10,7.822a11.547,11.547,0,0,0-1.148-.795A5.6,5.6,0,0,0,5.665,6.015a1.878,1.878,0,0,0-.785.258l-.148.1a3,3,0,1,1-3.465-4.9A7.894,7.894,0,0,1,5.04.048Z" transform="translate(23.8 35.48)" fill="#2e186a"/><path d="M98.3,61.351l-18.4-9.4c2.3-13.7.9-35-24.9-47-40.3-18.7-55,21.6-55,21.6l92.3,46.6a6.62,6.62,0,1,0,6-11.8Z" transform="translate(24 0.449)" fill="#fe7624"/><path d="M.574,4.59c-4.1-8.4,15.1-2.7,15.1-2.7S10.274,21.19.574,4.59Z" transform="translate(29.226 84.71)" fill="#2e186a"/><path d="M42.908,19.6,4.008,0c-4.5,14.1-10.2,42.4,13.9,49.8,0,0,18.9,6.2,24.3.1,0,0-12.9-9.5-10-17.2,0,0,13.2,19.6,28.8,9.2C61.008,41.7,42.608,35.8,42.908,19.6Z" transform="translate(58.792 46.8)" fill="#2e186a"/></g></g><g transform="translate(364 107)"><g transform="translate(551 123)"><path d="M206.7,64.2H24.9A24.874,24.874,0,0,1,0,39.3V24.9A24.875,24.875,0,0,1,24.9,0H206.7a24.875,24.875,0,0,1,24.9,24.9V39.325a25.127,25.127,0,0,1-15.265,22.921A24.526,24.526,0,0,1,206.7,64.2ZM24.9,6A18.879,18.879,0,0,0,6,24.9V39.3A18.88,18.88,0,0,0,24.9,58.2H206.7a18.57,18.57,0,0,0,7.306-1.486A19.1,19.1,0,0,0,225.6,39.3V24.9A18.88,18.88,0,0,0,206.7,6Z" transform="translate(-2.2 -2.1)" fill="#2e186a"/><path d="M172.1,0a3,3,0,0,1,.176,5.995L172.1,6H3A3,3,0,0,1,2.824.005L3,0Z" transform="translate(26.8 21)" fill="#2e186a"/><path d="M83.2,0a3,3,0,0,1,.176,5.995L83.2,6H3A3,3,0,0,1,2.824.005L3,0Z" transform="translate(26.8 35.4)" fill="#2e186a"/></g><g transform="translate(260 451)"><path d="M206.7,64.2H24.9A24.874,24.874,0,0,1,0,39.3V24.9A24.875,24.875,0,0,1,24.9,0H206.7a24.875,24.875,0,0,1,24.9,24.9V39.3a24.874,24.874,0,0,1-24.9,24.9ZM24.9,6A18.879,18.879,0,0,0,6,24.9V39.3A18.88,18.88,0,0,0,24.9,58.2H206.7a18.88,18.88,0,0,0,18.9-18.9V24.9A18.88,18.88,0,0,0,206.7,6Z" transform="translate(-2.5 -2.4)" fill="#2e186a"/><path d="M172,0a3,3,0,0,1,.176,5.995L172,6H3A3,3,0,0,1,2.824.005L3,0Z" transform="translate(26.6 20.7)" fill="#2e186a"/><path d="M83.2,0a3,3,0,0,1,.176,5.995L83.2,6H3A3,3,0,0,1,2.824.005L3,0Z" transform="translate(26.6 35.1)" fill="#2e186a"/></g><path d="M206.7,64.2H24.9A24.874,24.874,0,0,1,0,39.3V24.9A24.875,24.875,0,0,1,24.9,0H206.7a24.875,24.875,0,0,1,24.9,24.9V39.325a25.127,25.127,0,0,1-15.265,22.921A24.526,24.526,0,0,1,206.7,64.2ZM24.9,6A18.879,18.879,0,0,0,6,24.9V39.3A18.88,18.88,0,0,0,24.9,58.2H206.7a18.57,18.57,0,0,0,7.306-1.486A19.1,19.1,0,0,0,225.6,39.3V24.9A18.88,18.88,0,0,0,206.7,6Z" transform="translate(-3 -2.7)" fill="#2e186a"/><path d="M172.1,0a3,3,0,0,1,.176,5.995L172.1,6H3A3,3,0,0,1,2.824.005L3,0Z" transform="translate(26 20.4)" fill="#2e186a"/><path d="M83.2,0a3,3,0,0,1,.176,5.995L83.2,6H3A3,3,0,0,1,2.824.005L3,0Z" transform="translate(26 34.8)" fill="#2e186a"/></g><g transform="translate(240 281)"><path d="M166.862,1.844A3,3,0,0,1,170.786.233c12.143,5.075,18.957,13.829,21.663,25.212l.12.522.148.077a74.616,74.616,0,0,1,13.425,9.5l2.424,2.1c2.007,1.766,3.741,3.379,7.2,6.7l8.478,8.183c2.965,2.849,5.21,4.955,7.446,6.967l.4.362.062.04a4.208,4.208,0,0,1,.559.458l.292.286.731.67a91.4,91.4,0,0,1,24.772,94.7l-.335,1.032-7.6,23.1a3,3,0,0,1-1.569,1.775l-.343.142-8.218,3.186c-2.817,1.087-5.82,2.242-8.985,3.454l-3.218,1.23c-15.571,5.946-31.431,11.893-46.638,17.444l-4.027,1.466-3.964,1.435C133.856,224.626,107.688,232.9,99.63,232.9c-11.344,0-43.408-22.214-66.406-46.866C3.263,153.919-8.648,122.695,6.709,98.874A219.318,219.318,0,0,1,42.221,56.357,173.538,173.538,0,0,1,67.51,36.821l.351-.219-.033-.152C64.641,21.327,76.384,9.011,104.5.778l.9-.261a3,3,0,1,1,1.651,5.768C79.6,14.143,70.335,24.641,74.2,37.114a3,3,0,0,1-1.325,3.461A164.279,164.279,0,0,0,46.288,60.769a213.326,213.326,0,0,0-34.537,41.357c-13.387,20.765-2.429,49.493,25.86,79.815a238.57,238.57,0,0,0,37.3,32.32l.967.665C86.783,222.38,95.963,226.9,99.63,226.9c6.905,0,32.883-8.192,70.8-21.858l5.106-1.847q1.993-.724,4.017-1.462c14.093-5.144,28.751-10.63,43.22-16.141l5.489-2.1c3.2-1.222,6.232-2.389,9.085-3.489l7.976-3.089,7.16-21.762a85.412,85.412,0,0,0-22.823-89.451l-.745-.684-.207-.2-.062-.039q-.082-.056-.161-.117l-.153-.128-.649-.582c-2.485-2.236-4.966-4.571-8.367-7.849l-5.122-4.941c-13.57-13.033-18.56-17.123-25.556-20.459a3,3,0,0,1-1.655-2.144c-2.008-10.484-7.649-18.257-18.51-22.8A3,3,0,0,1,166.862,1.844Z" transform="translate(33.27 107.199)" fill="#2e186a"/><path d="M8.6,0c1.4,7.3.9,14.2.7,18.4C8.5,35.9,2,45.4,0,51.9c12.8-7.6,24.6-25.2,30.4-36.7C26.6,11.8,15,3.1,8.6,0Z" transform="translate(211.7 134)" fill="#2e186a"/><path d="M66.8,43.9C60.5,41,28.3,20.2,22.9,0,16.4,3.5,6.3,9.6,0,17.1c7.3,4.4,48.4,28.8,66.5,27.5a1.483,1.483,0,0,0,.7-.1A2.092,2.092,0,0,1,66.8,43.9Z" transform="translate(83.6 143.3)" fill="#2e186a"/><path d="M68.5,52.4c6.9-20.2,1.7-42.6-3.2-49.2A80.718,80.718,0,0,1,48.4,35.8,201.573,201.573,0,0,0,8.2.7L8.8,0A7.9,7.9,0,0,0,7.4.1L0,7.7S35,34.3,46.4,98.5c7.4,41.7,11.2,80.8,11.2,80.8l21.7-1.2C79.4,178.1,61,74.3,68.5,52.4Z" transform="translate(131.3 135)" fill="#fe7624"/><g transform="translate(119)"><path d="M8.724.239a3,3,0,0,1,2.343,5.523C6.686,7.621,4.708,10.53,6.915,15.234c1.885,4.048,5.267,4.16,10.035,1.538a3,3,0,0,1,2.892,5.257,17.445,17.445,0,0,1-8.871,2.482c-4.1-.137-7.463-2.383-9.491-6.737C-.685,13.162-.416,8.96,1.9,5.551A15.344,15.344,0,0,1,8.724.239Z" transform="translate(1.105 87.599)" fill="#2e186a"/><path d="M1.913.205A3,3,0,0,1,5.8,1.913c6.251,16.063,9.921,37.12,10.2,51.529a3,3,0,0,1-6,.118C9.732,39.816,6.182,19.446.205,4.089A3,3,0,0,1,1.913.205Z" transform="translate(70.299 52.499)" fill="#2e186a"/><path d="M10.2,0l.176.005A3,3,0,0,1,13.2,3l-.005.176-.3,5.1a3,3,0,0,1-.586,1.612l-.137.171L7.5,15.475l.464.317c2.644,1.819,5.584,3.965,8.748,6.43a213.2,213.2,0,0,1,25.47,23.37l.943,1.028.423-.545.281-.371a78.27,78.27,0,0,0,6.409-10.071A77.741,77.741,0,0,0,58.927,9.1a3,3,0,0,1,5.947.793,83.694,83.694,0,0,1-9.348,28.572,84.242,84.242,0,0,1-6.9,10.846l-.466.612c-1.211,1.575-2.172,2.695-2.775,3.333a3,3,0,0,1-4.434-.079q-1.082-1.231-2.187-2.444A206.882,206.882,0,0,0,13.025,26.955c-2.831-2.206-5.473-4.145-7.868-5.809l-.593-.41c-.761-.523-1.447-.984-2.052-1.382l-.794-.516-.3-.188a3,3,0,0,1-.811-4.363l.119-.147L6.965,6.909l.24-4.085A3,3,0,0,1,10.2,0Z" transform="translate(17.5 119.6)" fill="#2e186a"/><path d="M45.8,53.111h0a35.022,35.022,0,0,1-12.716-2.228C27.965,48.826,24.9,47.217,22.5,45.329a27.663,27.663,0,0,1-6.538-7.868l-.549-.913c-1.341-2.278-3.687-6.752-6.97-13.3L6.7,19.767c-.858-1.726-1.758-3.547-2.673-5.412l-1.614-3.3L.389,6.89.227,6.541a3.007,3.007,0,0,1,.047-2.39,2.968,2.968,0,0,1,1.779-1.6l7.2-2.4a3,3,0,0,1,2.521.291c2.755,1.7,9.657,10.2,13.374,15.979l.106.167.86-.477.993-.538.52-.276A129.3,129.3,0,0,1,41.306,9.111,138.754,138.754,0,0,1,55.836,4.4l.123-.03,1.577-.332,1.639-.327c1.128-.218,2.225-.419,3.259-.6a57.716,57.716,0,0,1,9.079-1.026c.251,0,.493,0,.719.015a2.991,2.991,0,0,1,2.815,2.426l.029.155c.06.321.125.7.189,1.09l.067.412c.068.437.134.885.2,1.331l.129.959c.371,2.91.6,5.825.681,8.664.264,9.137-1,16.6-3.744,22.185a21.706,21.706,0,0,1-7.3,8.326,30.718,30.718,0,0,1-11.113,4.6A40.347,40.347,0,0,1,45.8,53.111ZM9.6,6.362h0l-2.408.8,2.223,4.544c.914,1.86,1.809,3.672,2.66,5.387l1.729,3.464c3.312,6.6,5.624,11.011,6.872,13.1l.382.633c3.5,5.741,5.749,7.535,13.392,10.669l.869.353a28.185,28.185,0,0,0,10.4,1.884,31.111,31.111,0,0,0,12.844-2.708,17.487,17.487,0,0,0,8.641-7.817,30.145,30.145,0,0,0,2.552-8.625,59.29,59.29,0,0,0,.579-10.738c-.077-2.655-.291-5.373-.636-8.077-.009-.068-.018-.136-.027-.2v-.01L69.66,8.9l-.1-.716-.492.047c-1.443.143-3.188.386-5.187.722l-.433.074c-1.317.226-2.717.488-4.16.778l-.638.129-.011,0-.156.032-1.18.249-1.246.337c-3.814,1.049-7.641,2.291-11.373,3.691l-1.217.464a123.129,123.129,0,0,0-13.041,5.9c-1.248.658-2.413,1.3-3.461,1.923-.239.14-.458.271-.652.39l-.485.3A3,3,0,0,1,21.549,22.1C19.366,17.971,12.854,9.556,9.767,6.523L9.6,6.362Z" transform="translate(9.899 87.7)" fill="#2e186a"/><path d="M15.245,95.772s-8.3-7.8-12.9-16.8a20.466,20.466,0,0,1,4.8-25.1c6.2-5.1,12-3.7,12-3.7s-10.5-10.8-2.2-24.7a20.877,20.877,0,0,1,13.4-9.6,19.964,19.964,0,0,1,20.7,7.5s8-30.3,41.7-21.9c3.4.9,7.9,4.5,10.3,7.1,14.3,15.7-12.8,45.3-29.3,51.2-18.1,6.5-29.7,6.1-36.8,3C42.045,64.172,43.945,93.172,15.245,95.772Z" transform="translate(0.355 0.628)" fill="#2e186a"/><path d="M2.158.188A3,3,0,0,1,5.947,1.795l.066.164,6.3,17A3,3,0,0,1,9.678,23L9.5,23H3a3,3,0,0,1-.176-5.995L3,17H5.188L.387,4.043A3,3,0,0,1,1.994.254Z" transform="translate(62.9 83.899)" fill="#2e186a"/><ellipse cx="1.8" cy="2.9" rx="1.8" ry="2.9" transform="translate(71.524 82.714) rotate(-13.875)" fill="#2e186a"/><ellipse cx="1.8" cy="2.9" rx="1.8" ry="2.9" transform="translate(56.325 86.083) rotate(-3.102)" fill="#2e186a"/><path d="M10.188,0a3,3,0,0,1,.4,5.984L10.414,6A5.343,5.343,0,0,0,6.8,7.479,5.424,5.424,0,0,0,5.769,8.766l-.037.075A3,3,0,1,1,.27,6.359L.4,6.094a9.8,9.8,0,0,1,.509-.861,11.867,11.867,0,0,1,1.78-2.12A11.307,11.307,0,0,1,10.188,0Z" transform="translate(42.899 74.6)" fill="#2e186a"/><path d="M8.861,0A7.8,7.8,0,0,1,14.29,2.195a3,3,0,0,1-4.033,4.438L10.111,6.5A1.863,1.863,0,0,0,8.747,6a7.035,7.035,0,0,0-2.783.674,9.691,9.691,0,0,0-1.319.682A3,3,0,1,1,1.356,2.338l.323-.2a16.436,16.436,0,0,1,1.892-.963A12.7,12.7,0,0,1,8.861,0Z" transform="translate(64.8 64.553)" fill="#2e186a"/><path d="M12.724.025V0l-9.9.6A3,3,0,0,0,.535,5.3a6.929,6.929,0,0,0,.86.988A11.3,11.3,0,0,0,3.558,7.917a16.249,16.249,0,0,0,6.884,2.066,3,3,0,0,0,.341.01c3.237-.085,5.231-2.1,5.438-4.85a7.258,7.258,0,0,0-.216-2.308,7.443,7.443,0,0,0-.22-.726l-.063-.166-.112-.255c-.025-.051-.062-.115-.16-.286l-.043-.092c-.079-.15-.215-.259-1.072-.954L14.021.206a2.164,2.164,0,0,0-.946-.171Z" transform="translate(55.096 108.905)" fill="#2e186a"/></g><g transform="translate(87 182)"><path d="M1.807.248a3,3,0,0,1,3.871,1.4l.1.213.386.913.456,1.1c.3.741.628,1.548.969,2.415,1.365,3.464,2.73,7.179,4.005,11,1.39,4.168,2.589,8.219,3.54,12.064a82.808,82.808,0,0,1,2.155,11.964,3,3,0,0,1-5.974.56A77.049,77.049,0,0,0,9.308,30.8C8.4,27.119,7.243,23.218,5.9,19.191c-1.1-3.3-2.273-6.526-3.453-9.568L2.005,8.49q-.4-1.01-.761-1.9l-.618-1.5L.248,4.194A3,3,0,0,1,1.807.248Z" transform="translate(64.299 -2.601)" fill="#2e186a"/><path d="M2.742.011A3,3,0,0,1,5.969,2.567L6,2.884,6.7,10.7l.395,4.319c.383,4.15.773,8.269,1.162,12.242l.333,3.367q.257,2.568.5,4.959l.293,2.8a3,3,0,0,1-5.943.81l-.024-.175-.295-2.812q-.2-1.92-.4-3.958l-.6-6.119c-.279-2.874-.557-5.814-.833-8.778L.587,9.761l-.576-6.5A3,3,0,0,1,2.742.011Z" transform="translate(116.7 -1.6)" fill="#2e186a"/><path d="M43.409.756a3,3,0,0,1,4.12,4.357l-.138.13-15.1,13.4a3,3,0,0,1-3.574.3c-8.3-5.158-15.139-4.989-20.7-1.732a15.39,15.39,0,0,0-2.18,1.535l-.328.288c-.09.082-.162.15-.214.2l-.078.081A3,3,0,1,1,.784,15.278a13.288,13.288,0,0,1,1.169-1.1,21.362,21.362,0,0,1,3.032-2.139c6.868-4.022,15.282-4.514,24.651.511l.3.163Z" transform="translate(-2.7 31.3)" fill="#2e186a"/><path d="M.395,1.514A3,3,0,0,1,4.487.395L34.263,17.334c5.647,3.2,9.118,5.153,9.579,5.383a3,3,0,0,1-2.517,5.443l-.166-.077c-.483-.241-2.98-1.64-7.225-4.041l-15.64-8.879L1.514,5.607A3,3,0,0,1,.395,1.514Z" transform="translate(23.199 43.899)" fill="#2e186a"/><path d="M1.8.253A3,3,0,0,1,5.673,1.636l.075.159,7.5,17.1a3,3,0,0,1-5.419,2.569l-.075-.159-7.5-17.1A3,3,0,0,1,1.8.253Z" transform="translate(148.599 26.399)" fill="#2e186a"/></g><path d="M150.239,58.362s-37.5-15.6-83.9-47.8-75.9,17.6-63.5,38c11,18,72.8,79.7,72.8,79.7l210.3-1.7s49.4-62.2,57.2-71.9c26.2-32.9,4.6-50.4-24.3-52.9-27.1-2.4-100.4,51-109.4,57.9Z" transform="translate(0.561 259.438)" fill="#2e186a"/><path d="M191.4,0H56.2a3.759,3.759,0,0,0-3.7,2.9L34.2,80.4H.2S-2.9,96.3,15.1,96.3h19a3.6,3.6,0,0,0,1.1.2H170.4a3.759,3.759,0,0,0,3.7-2.9l21-88.9A3.777,3.777,0,0,0,191.4,0Z" transform="translate(88.097 226.7)" fill="#fe7624"/></g><path d="M1520.186,0a3,3,0,0,1,.2,5.994l-.176.006L3.014,13a3,3,0,0,1-.2-5.994L2.986,7Z" transform="translate(0.4 660.4)" fill="#2e186a"/></g></g></g></svg>